<svg id="Group_2064" data-name="Group 2064" xmlns="http://www.w3.org/2000/svg" width="122.453" height="44.076" viewBox="0 0 122.453 44.076">
  <path id="Path_1447" data-name="Path 1447" d="M385.271,602.444a5.867,5.867,0,0,0,6.054,5.972,6.02,6.02,0,0,0,6.028-6.023,6.041,6.041,0,0,0-12.082.052m.168-5.7c3.417-4.024,9.489-3.16,12.343.047a8.384,8.384,0,0,1-12.343,11.348v.4c0,1.822-.007,3.643.007,5.465,0,.271-.07.327-.325.32-.654-.019-1.308-.016-1.962,0-.215,0-.294-.033-.294-.278q.011-9.665,0-19.336c0-.22.037-.3.28-.3.675.016,1.355.016,2.03,0,.227,0,.271.07.266.278-.012.673,0,1.343,0,2.053" transform="translate(-332.454 -580.301)" fill="#1d1d1b"/>
  <path id="Path_1454" data-name="Path 1454" d="M409.362,600.562h11.215a5.683,5.683,0,0,0-6.341-4.1,5.4,5.4,0,0,0-4.874,4.1m6.834,2.2c-2.254,0-4.508.007-6.761-.007-.339,0-.418.056-.374.414a5.951,5.951,0,0,0,1.425,3.328,5.447,5.447,0,0,0,3.636,1.88,6.632,6.632,0,0,0,4.687-1.25,7.338,7.338,0,0,0,1.864-2.237c.117-.187.2-.241.416-.117.551.313,1.123.589,1.7.864.166.079.166.147.086.3a8.086,8.086,0,0,1-5.276,4.47,8.922,8.922,0,0,1-7.773-1.219,8.112,8.112,0,0,1-3.153-4.862,8.446,8.446,0,0,1,4.786-9.634,8.751,8.751,0,0,1,2.8-.63,8.611,8.611,0,0,1,4.337.721,7.947,7.947,0,0,1,4.671,6.091c.091.5.11,1.016.152,1.525.028.329-.093.374-.383.371-2.277-.012-4.554-.007-6.831-.007" transform="translate(-300.961 -580.309)" fill="#1d1d1b"/>
  <path id="Path_1449" data-name="Path 1449" d="M405.784,602.439a5.9,5.9,0,0,0-6.035-6.03,6.006,6.006,0,1,0,0,12.011,5.851,5.851,0,0,0,6.037-5.981m-.135,5.692a8.4,8.4,0,0,1-12.481-11.252c2.882-3.291,9.022-4.192,12.481-.133,0-.7.009-1.359,0-2.016-.007-.234.033-.327.294-.318.666.019,1.331.014,2,0,.2,0,.25.059.25.255q-.01,7.7,0,15.41c0,.224-.065.268-.273.266-.666-.014-1.331-.016-2,0-.215,0-.278-.051-.271-.271.014-.628,0-1.256,0-1.943" transform="translate(-321.392 -580.302)" fill="#1d1d1b"/>
  <path id="Path_1452" data-name="Path 1452" d="M415.251,594.207c-.542,1.151-1.065,2.265-1.588,3.382q-2.887,6.127-5.762,12.259a.442.442,0,0,1-.5.285c-.22,0-.369-.023-.486-.271q-3.293-6.986-6.617-13.959c-.259-.551-.521-1.1-.8-1.7.88,0,1.714.007,2.55,0,.206,0,.208.159.259.269q1.324,2.781,2.639,5.57,1.188,2.505,2.382,5.007a1.123,1.123,0,0,0,.079.126c.285-.6.558-1.161.824-1.728q2.112-4.5,4.22-9a.342.342,0,0,1,.36-.248c.792.016,1.586.007,2.443.007" transform="translate(-310.248 -580.091)" fill="#1d1d1b"/>
  <path id="Path_1443" data-name="Path 1443" d="M402,618.432a9.246,9.246,0,0,1-12.437-12.39,9,9,0,0,1,6.78-4.984,8.508,8.508,0,0,1,6.637,1.474c.437.322.836.7,1.254,1.049.105.089.117.252.25.343-.131-.43-.271-.857-.425-1.282a22.063,22.063,0,0,0-19.186-14.433c-.434-.033-.869-.045-1.306-.047a20.562,20.562,0,0,0-4.017.325,22.6,22.6,0,0,0-6.649,2.3A22,22,0,0,0,362.05,604.44a21.921,21.921,0,0,0,.568,13.312,21.743,21.743,0,0,0,3.335,6.012,22.071,22.071,0,0,0,15.851,8.422c.434.033.869.044,1.3.047a20.537,20.537,0,0,0,4.017-.325,22.617,22.617,0,0,0,6.651-2.3,21.981,21.981,0,0,0,10.662-13.03,1.683,1.683,0,0,0-.2.252,11.855,11.855,0,0,1-2.237,1.6" transform="translate(-361.28 -588.159)" fill="#329f37"/>
  <path id="Path_1445" data-name="Path 1445" d="M382.481,609.675a6.785,6.785,0,1,1,6.806-6.78,6.77,6.77,0,0,1-6.806,6.78m8.945-15.052c-.712.009-1.425.016-2.135,0-.252-.007-.336.044-.325.318.026.572.007,1.149.007,1.738a.315.315,0,0,1-.114-.049c-.131-.091-.142-.257-.248-.343-.418-.353-.817-.729-1.254-1.051a8.529,8.529,0,0,0-6.637-1.474,9.007,9.007,0,0,0-6.78,4.984,9.246,9.246,0,0,0,12.436,12.39,11.747,11.747,0,0,0,2.237-1.6,1.686,1.686,0,0,1,.2-.252l.049-.028a.28.28,0,0,1,.107-.037c0,.736.007,1.455,0,2.174,0,.2.021.285.255.278q1.121-.024,2.242,0c.231,0,.259-.079.259-.28q-.007-8.243,0-16.486c0-.252-.1-.276-.3-.273" transform="translate(-345.662 -580.862)" fill="#1d1d1b"/>
</svg>
