<svg xmlns="http://www.w3.org/2000/svg" xmlns:xlink="http://www.w3.org/1999/xlink" width="116.06" height="59.093" viewBox="0 0 116.06 59.093">
  <defs>
    <clipPath id="clip-path">
      <path id="Path_1095" data-name="Path 1095" d="M496.794,549.426v8.179c-.293,2.949-3.8,2.412-3.8,2.412H482.178V562.7h10.96c5.67-.332,6.262-3.679,6.3-4.836v-.228c0-.106-.009-.164-.009-.164V546.878Z" transform="translate(-482.178 -546.878)" fill="none"/>
    </clipPath>
    <linearGradient id="linear-gradient" x1="-64.376" y1="43.148" x2="-64.243" y2="43.148" gradientUnits="objectBoundingBox">
      <stop offset="0" stop-color="#006db3"/>
      <stop offset="0.8" stop-color="#00a0dc"/>
      <stop offset="1" stop-color="#e0edf4"/>
    </linearGradient>
    <clipPath id="clip-path-2">
      <path id="Path_1096" data-name="Path 1096" d="M486.906,546.645s-5.55.8-4.675,5.767c0,0,1.023-2.949,4.97-2.949h8.914l3.375-2.818Z" transform="translate(-482.137 -546.645)" fill="none"/>
    </clipPath>
    <linearGradient id="linear-gradient-2" x1="-61.212" y1="118.478" x2="-61.085" y2="118.478" xlink:href="#linear-gradient"/>
    <clipPath id="clip-path-3">
      <path id="Path_1097" data-name="Path 1097" d="M485.751,549.148c-6.87.4-6.283,5.228-6.283,5.228v10.591l2.629-2.546v-8.179c.3-2.949,3.8-2.412,3.8-2.412h10.815v-2.682Z" transform="translate(-479.456 -549.148)" fill="none"/>
    </clipPath>
    <linearGradient id="linear-gradient-3" x1="-61.921" y1="42.826" x2="-61.792" y2="42.826" xlink:href="#linear-gradient"/>
    <clipPath id="clip-path-4">
      <path id="Path_1098" data-name="Path 1098" d="M491.739,556.7h-8.914l-3.368,2.813h12.575s5.562-.8,4.677-5.765a5,5,0,0,1-4.97,2.951" transform="translate(-479.457 -553.745)" fill="none"/>
    </clipPath>
    <linearGradient id="linear-gradient-4" x1="-60.907" y1="115.689" x2="-60.78" y2="115.689" xlink:href="#linear-gradient"/>
    <clipPath id="clip-path-5">
      <path id="Path_1099" data-name="Path 1099" d="M496.594,549.387v8.181c-.29,2.949-3.792,2.412-3.792,2.412H481.987v2.679h10.958c6.87-.4,6.285-5.228,6.285-5.228V546.841Z" transform="translate(-481.987 -546.841)" fill="none"/>
    </clipPath>
    <linearGradient id="linear-gradient-5" x1="-62.288" y1="43.208" x2="-62.159" y2="43.208" xlink:href="#linear-gradient"/>
    <clipPath id="clip-path-6">
      <path id="Path_1100" data-name="Path 1100" d="M486.711,546.606s-5.55.811-4.67,5.769c0,0,1.018-2.952,4.965-2.952h8.916l3.375-2.818Z" transform="translate(-481.946 -546.606)" fill="none"/>
    </clipPath>
    <linearGradient id="linear-gradient-6" x1="-61.179" y1="118.975" x2="-61.052" y2="118.975" xlink:href="#linear-gradient"/>
    <clipPath id="clip-path-7">
      <path id="Path_1101" data-name="Path 1101" d="M485.56,549.11c-6.866.4-6.285,5.23-6.285,5.23v10.589l2.636-2.544V554.2c.286-2.947,3.8-2.41,3.8-2.41h10.817V549.11Z" transform="translate(-479.263 -549.11)" fill="none"/>
    </clipPath>
    <linearGradient id="linear-gradient-7" x1="-61.896" y1="42.877" x2="-61.767" y2="42.877" xlink:href="#linear-gradient"/>
    <clipPath id="clip-path-8">
      <path id="Path_1102" data-name="Path 1102" d="M491.552,556.658h-8.914l-3.375,2.811h12.582s5.553-.8,4.679-5.762a5.009,5.009,0,0,1-4.972,2.951" transform="translate(-479.263 -553.707)" fill="none"/>
    </clipPath>
    <linearGradient id="linear-gradient-8" x1="-60.889" y1="116.278" x2="-60.762" y2="116.278" xlink:href="#linear-gradient"/>
    <clipPath id="clip-path-9">
      <path id="Path_1103" data-name="Path 1103" d="M461.48,562.3a2.84,2.84,0,0,0-1.613.373,1.553,1.553,0,0,0-.613,1.378v3.385q0,1.884,2.032,1.882h2.961v-1.007h-2.663a3.671,3.671,0,0,1-.68-.042.742.742,0,0,1-.493-.4.394.394,0,0,1-.053-.2v-1.38h3.912v-1.014h-3.912v-1.193a.818.818,0,0,1,.2-.532.62.62,0,0,1,.5-.24h3.223V562.3Z" transform="translate(-459.254 -562.3)" fill="none"/>
    </clipPath>
    <linearGradient id="linear-gradient-9" x1="-210.473" y1="92.19" x2="-210.015" y2="92.19" gradientUnits="objectBoundingBox">
      <stop offset="0" stop-color="#006db3"/>
      <stop offset="1" stop-color="#00a0dc"/>
    </linearGradient>
    <clipPath id="clip-path-10">
      <path id="Path_1104" data-name="Path 1104" d="M463.568,563.06c-1.076,0-1.615.456-1.615,1.359v3.907h.951v-3.8a.573.573,0,0,1,.141-.452.851.851,0,0,1,.518-.12h1.527c.392,0,.6.108.652.329v4.039h.949v-3.907c0-.9-.534-1.359-1.613-1.359Z" transform="translate(-461.953 -563.06)" fill="none"/>
    </clipPath>
    <linearGradient id="linear-gradient-10" x1="-224.575" y1="122.506" x2="-224.089" y2="122.506" xlink:href="#linear-gradient-9"/>
    <clipPath id="clip-path-11">
      <path id="Path_1105" data-name="Path 1105" d="M465.585,566.9v-2.383c0-.329.182-.523.551-.58H467.9c.346,0,.512.191.512.59v2.382a.556.556,0,0,1-.134.4.507.507,0,0,1-.378.148h-1.7a.58.58,0,0,1-.617-.555m.4-3.843a1.473,1.473,0,0,0-.491.1,1.219,1.219,0,0,0-.862,1.244V566.9a1.374,1.374,0,0,0,.422,1.011,1.448,1.448,0,0,0,1.069.419h2.288v.221c0,.415-.242.624-.719.624H464.59v.756h3.91a1.557,1.557,0,0,0,.385-.2,1.135,1.135,0,0,0,.486-.984v-4.41a1.4,1.4,0,0,0-.023-.23,1.176,1.176,0,0,0-1.336-1.048Z" transform="translate(-464.59 -563.06)" fill="none"/>
    </clipPath>
    <linearGradient id="linear-gradient-11" x1="-223.894" y1="93.944" x2="-223.412" y2="93.944" xlink:href="#linear-gradient-9"/>
    <clipPath id="clip-path-12">
      <path id="Path_1106" data-name="Path 1106" d="M467.342,569.318h.963v-5.267h-.963Zm.014-6.845a.591.591,0,0,0,0,.866.633.633,0,0,0,.461.173.659.659,0,0,0,.463-.168.549.549,0,0,0,.187-.422.589.589,0,0,0-.191-.435.649.649,0,0,0-.461-.187.637.637,0,0,0-.459.173" transform="translate(-467.167 -562.3)" fill="none"/>
    </clipPath>
    <linearGradient id="linear-gradient-12" x1="-828.362" y1="92.149" x2="-826.589" y2="92.149" xlink:href="#linear-gradient-9"/>
    <clipPath id="clip-path-13">
      <path id="Path_1107" data-name="Path 1107" d="M469.855,563.06c-1.076,0-1.617.456-1.617,1.359v3.907h.954v-3.8a.557.557,0,0,1,.145-.452.821.821,0,0,1,.514-.12h1.53c.385,0,.6.108.65.329v4.039h.954v-3.907c0-.9-.542-1.359-1.62-1.359Z" transform="translate(-468.238 -563.06)" fill="none"/>
    </clipPath>
    <linearGradient id="linear-gradient-13" x1="-227.3" y1="122.506" x2="-226.815" y2="122.506" xlink:href="#linear-gradient-9"/>
    <clipPath id="clip-path-14">
      <path id="Path_1108" data-name="Path 1108" d="M471.829,564.6a.579.579,0,0,1,.652-.661h1.569c.382,0,.581.15.581.458v.078l-2.8,1.193Zm.829-1.541c-1.184,0-1.783.511-1.783,1.528v2.357a1.263,1.263,0,0,0,.445,1,1.659,1.659,0,0,0,1.12.38h3.214v-.868h-3.166a.678.678,0,0,1-.482-.138.916.916,0,0,1-.177-.456v-.228l3.758-1.606v-.622a1.207,1.207,0,0,0-.4-.982,1.576,1.576,0,0,0-1.1-.366Z" transform="translate(-470.875 -563.06)" fill="none"/>
    </clipPath>
    <linearGradient id="linear-gradient-14" x1="-227.04" y1="122.507" x2="-226.558" y2="122.507" xlink:href="#linear-gradient-9"/>
    <clipPath id="clip-path-15">
      <path id="Path_1109" data-name="Path 1109" d="M474.4,564.6c0-.445.21-.661.645-.661h1.569c.385,0,.583.15.583.458v.078l-2.8,1.193Zm.832-1.541c-1.193,0-1.785.511-1.785,1.528v2.357a1.246,1.246,0,0,0,.442,1,1.65,1.65,0,0,0,1.12.38h3.212v-.868h-3.17a.684.684,0,0,1-.479-.138.948.948,0,0,1-.17-.456v-.228l3.758-1.606v-.622a1.238,1.238,0,0,0-.4-.982,1.589,1.589,0,0,0-1.108-.366Z" transform="translate(-473.448 -563.06)" fill="none"/>
    </clipPath>
    <linearGradient id="linear-gradient-15" x1="-228.499" y1="122.507" x2="-228.016" y2="122.507" xlink:href="#linear-gradient-9"/>
    <clipPath id="clip-path-16">
      <path id="Path_1110" data-name="Path 1110" d="M477.442,563.06c-.071,0-.154.014-.253.023a1.5,1.5,0,0,0-.825.323,1.181,1.181,0,0,0-.32.751,2.672,2.672,0,0,0-.025.3v3.868h.952V564.47a.468.468,0,0,1,.532-.53h.477v-.88Z" transform="translate(-476.018 -563.06)" fill="none"/>
    </clipPath>
    <linearGradient id="linear-gradient-16" x1="-559.374" y1="122.465" x2="-558.199" y2="122.465" xlink:href="#linear-gradient-9"/>
    <clipPath id="clip-path-17">
      <path id="Path_1111" data-name="Path 1111" d="M477.314,569.318h.965v-5.267h-.965Zm.014-6.845a.606.606,0,0,0,0,.866.64.64,0,0,0,.47.173.654.654,0,0,0,.456-.168.557.557,0,0,0,.187-.422.589.589,0,0,0-.191-.435.66.66,0,0,0-.468-.187.63.63,0,0,0-.454.173" transform="translate(-477.146 -562.3)" fill="none"/>
    </clipPath>
    <linearGradient id="linear-gradient-17" x1="-848.997" y1="92.149" x2="-847.217" y2="92.149" xlink:href="#linear-gradient-9"/>
    <clipPath id="clip-path-18">
      <path id="Path_1112" data-name="Path 1112" d="M479.833,563.06c-1.078,0-1.617.456-1.617,1.359v3.907h.949v-3.8a.565.565,0,0,1,.147-.452.817.817,0,0,1,.514-.12h1.528c.387,0,.6.108.657.329v4.039h.947v-3.907c0-.9-.535-1.359-1.617-1.359Z" transform="translate(-478.216 -563.06)" fill="none"/>
    </clipPath>
    <linearGradient id="linear-gradient-18" x1="-232.371" y1="122.506" x2="-231.885" y2="122.506" xlink:href="#linear-gradient-9"/>
    <clipPath id="clip-path-19">
      <path id="Path_1113" data-name="Path 1113" d="M481.847,566.9v-2.383q0-.494.553-.58h1.758c.346,0,.518.191.518.59v2.382a.547.547,0,0,1-.136.4.506.506,0,0,1-.382.148h-1.693a.581.581,0,0,1-.617-.555m.4-3.843a1.417,1.417,0,0,0-.488.1,1.223,1.223,0,0,0-.864,1.244V566.9a1.359,1.359,0,0,0,.424,1.011,1.438,1.438,0,0,0,1.064.419h2.29v.221c0,.415-.235.624-.719.624h-3.1v.756h3.908a1.612,1.612,0,0,0,.387-.2,1.135,1.135,0,0,0,.479-.984v-4.41a1.293,1.293,0,0,0-1.355-1.279Z" transform="translate(-480.854 -563.06)" fill="none"/>
    </clipPath>
    <linearGradient id="linear-gradient-19" x1="-232.073" y1="93.944" x2="-231.591" y2="93.944" xlink:href="#linear-gradient-9"/>
  </defs>
  <g id="Group_2060" data-name="Group 2060" transform="translate(0.001)">
    <g id="Group_1657" data-name="Group 1657" transform="translate(-0.001 0)">
      <g id="Group_1651" data-name="Group 1651" transform="translate(52.817 14.941)">
        <g id="Group_1538" data-name="Group 1538" clip-path="url(#clip-path)">
          <rect id="Rectangle_271" data-name="Rectangle 271" width="17.257" height="15.821" transform="translate(0 0)" fill="url(#linear-gradient)"/>
        </g>
      </g>
      <g id="Group_1652" data-name="Group 1652" transform="translate(52.722 14.405)">
        <g id="Group_1540" data-name="Group 1540" clip-path="url(#clip-path-2)">
          <rect id="Rectangle_272" data-name="Rectangle 272" width="18.135" height="5.767" transform="translate(-0.782)" fill="url(#linear-gradient-2)"/>
        </g>
      </g>
      <g id="Group_1646" data-name="Group 1646" transform="translate(46.544 20.171)">
        <g id="Group_1542" data-name="Group 1542" clip-path="url(#clip-path-3)">
          <rect id="Rectangle_273" data-name="Rectangle 273" width="17.83" height="15.819" transform="translate(-0.575 0)" fill="url(#linear-gradient-3)"/>
        </g>
      </g>
      <g id="Group_1647" data-name="Group 1647" transform="translate(46.548 30.762)">
        <g id="Group_1544" data-name="Group 1544" clip-path="url(#clip-path-4)">
          <rect id="Rectangle_274" data-name="Rectangle 274" width="18.137" height="5.764" transform="translate(0)" fill="url(#linear-gradient-4)"/>
        </g>
      </g>
      <g id="Group_1653" data-name="Group 1653" transform="translate(52.376 14.856)">
        <g id="Group_1546" data-name="Group 1546" clip-path="url(#clip-path-5)">
          <rect id="Rectangle_275" data-name="Rectangle 275" width="17.828" height="15.819" fill="url(#linear-gradient-5)"/>
        </g>
      </g>
      <g id="Group_1654" data-name="Group 1654" transform="translate(52.282 14.314)">
        <g id="Group_1548" data-name="Group 1548" clip-path="url(#clip-path-6)">
          <rect id="Rectangle_276" data-name="Rectangle 276" width="18.137" height="5.769" transform="translate(-0.786)" fill="url(#linear-gradient-6)"/>
        </g>
      </g>
      <g id="Group_1648" data-name="Group 1648" transform="translate(46.099 20.084)">
        <g id="Group_1550" data-name="Group 1550" clip-path="url(#clip-path-7)">
          <rect id="Rectangle_277" data-name="Rectangle 277" width="17.831" height="15.819" transform="translate(-0.569 0)" fill="url(#linear-gradient-7)"/>
        </g>
      </g>
      <g id="Group_1649" data-name="Group 1649" transform="translate(46.101 30.675)">
        <g id="Group_1552" data-name="Group 1552" clip-path="url(#clip-path-8)">
          <rect id="Rectangle_278" data-name="Rectangle 278" width="18.135" height="5.762" transform="translate(0 0)" fill="url(#linear-gradient-8)"/>
        </g>
      </g>
      <g id="Group_1635" data-name="Group 1635" transform="translate(0 50.473)">
        <g id="Group_1554" data-name="Group 1554" clip-path="url(#clip-path-9)">
          <rect id="Rectangle_279" data-name="Rectangle 279" width="5.027" height="7.018" transform="translate(0 0)" fill="url(#linear-gradient-9)"/>
        </g>
      </g>
      <g id="Group_1637" data-name="Group 1637" transform="translate(6.218 52.224)">
        <g id="Group_1556" data-name="Group 1556" clip-path="url(#clip-path-10)">
          <rect id="Rectangle_280" data-name="Rectangle 280" width="4.739" height="5.267" transform="translate(0 0)" fill="url(#linear-gradient-10)"/>
        </g>
      </g>
      <g id="Group_1638" data-name="Group 1638" transform="translate(12.294 52.224)">
        <g id="Group_1558" data-name="Group 1558" clip-path="url(#clip-path-11)">
          <rect id="Rectangle_281" data-name="Rectangle 281" width="4.781" height="6.868" transform="translate(0 0)" fill="url(#linear-gradient-11)"/>
        </g>
      </g>
      <g id="Group_1639" data-name="Group 1639" transform="translate(18.231 50.473)">
        <g id="Group_1560" data-name="Group 1560" clip-path="url(#clip-path-12)">
          <rect id="Rectangle_282" data-name="Rectangle 282" width="1.299" height="7.018" transform="translate(0 0)" fill="url(#linear-gradient-12)"/>
        </g>
      </g>
      <g id="Group_1640" data-name="Group 1640" transform="translate(20.699 52.224)">
        <g id="Group_1562" data-name="Group 1562" clip-path="url(#clip-path-13)">
          <rect id="Rectangle_283" data-name="Rectangle 283" width="4.746" height="5.267" transform="translate(0 0)" fill="url(#linear-gradient-13)"/>
        </g>
      </g>
      <g id="Group_1641" data-name="Group 1641" transform="translate(26.774 52.224)">
        <g id="Group_1564" data-name="Group 1564" clip-path="url(#clip-path-14)">
          <rect id="Rectangle_284" data-name="Rectangle 284" width="4.778" height="5.267" transform="translate(0 0)" fill="url(#linear-gradient-14)"/>
        </g>
      </g>
      <g id="Group_1642" data-name="Group 1642" transform="translate(32.702 52.224)">
        <g id="Group_1566" data-name="Group 1566" clip-path="url(#clip-path-15)">
          <rect id="Rectangle_285" data-name="Rectangle 285" width="4.774" height="5.267" transform="translate(0 0)" fill="url(#linear-gradient-15)"/>
        </g>
      </g>
      <g id="Group_1643" data-name="Group 1643" transform="translate(38.623 52.224)">
        <g id="Group_1568" data-name="Group 1568" clip-path="url(#clip-path-16)">
          <rect id="Rectangle_286" data-name="Rectangle 286" width="1.961" height="5.267" transform="translate(0 0)" fill="url(#linear-gradient-16)"/>
        </g>
      </g>
      <g id="Group_1644" data-name="Group 1644" transform="translate(41.223 50.473)">
        <g id="Group_1570" data-name="Group 1570" clip-path="url(#clip-path-17)">
          <rect id="Rectangle_287" data-name="Rectangle 287" width="1.295" height="7.018" transform="translate(0 0)" fill="url(#linear-gradient-17)"/>
        </g>
      </g>
      <g id="Group_1645" data-name="Group 1645" transform="translate(43.688 52.224)">
        <g id="Group_1572" data-name="Group 1572" clip-path="url(#clip-path-18)">
          <rect id="Rectangle_288" data-name="Rectangle 288" width="4.742" height="5.267" transform="translate(0 0)" fill="url(#linear-gradient-18)"/>
        </g>
      </g>
      <g id="Group_1650" data-name="Group 1650" transform="translate(49.765 52.224)">
        <g id="Group_1574" data-name="Group 1574" clip-path="url(#clip-path-19)">
          <rect id="Rectangle_289" data-name="Rectangle 289" width="4.774" height="6.868" transform="translate(0 0)" fill="url(#linear-gradient-19)"/>
        </g>
      </g>
      <g id="Group_1655" data-name="Group 1655" transform="translate(58.961 50.473)">
        <path id="Path_1114" data-name="Path 1114" d="M484.845,567.636v-3.613a1.69,1.69,0,0,1,.482-1.239,1.741,1.741,0,0,1,1.288-.484h3.209v1.014h-3.067c-.541,0-.806.247-.806.737v3.507a.707.707,0,0,0,.23.53.814.814,0,0,0,.576.221H489.8v1.011h-3.276a1.867,1.867,0,0,1-.963-.3,1.508,1.508,0,0,1-.719-1.385" transform="translate(-484.845 -562.3)" fill="#1d1d1b"/>
        <path id="Path_1115" data-name="Path 1115" d="M489.143,567.458H490.7a.6.6,0,0,0,.67-.675v-2.212c0-.424-.226-.631-.67-.631h-1.555c-.463,0-.7.207-.7.631v2.182a.62.62,0,0,0,.7.705m-1.643-.424V564.3c0-.721.426-1.129,1.274-1.221a.76.76,0,0,0,.136-.016h1.88c.049,0,.124.012.228.023.866.115,1.3.521,1.3,1.214v2.737a1.27,1.27,0,0,1-.786,1.138,1.639,1.639,0,0,1-.744.157H489a1.373,1.373,0,0,1-1.433-.951c-.081-.217-.1-.327-.065-.344" transform="translate(-481.404 -561.309)" fill="#1d1d1b"/>
        <path id="Path_1116" data-name="Path 1116" d="M490.161,568.327v-3.907c0-.9.539-1.359,1.62-1.359h1.507c1.078,0,1.617.456,1.617,1.359v3.907h-.947v-4.039c-.051-.224-.267-.332-.65-.332h-1.53a.818.818,0,0,0-.516.122.542.542,0,0,0-.15.452v3.8Z" transform="translate(-477.913 -561.309)" fill="#1d1d1b"/>
        <path id="Path_1117" data-name="Path 1117" d="M492.73,568.327v-.868h2.914a.307.307,0,0,0,.228-.1.491.491,0,0,0,.166-.429v-.4c0-.327-.191-.488-.562-.488h-1.3a1.418,1.418,0,0,1-1.295-.574.913.913,0,0,1-.147-.521v-.673a1.177,1.177,0,0,1,.325-.882,1.3,1.3,0,0,1,.936-.325h2.993v.878h-2.9c-.274,0-.406.127-.406.383v.385a.371.371,0,0,0,.154.313.565.565,0,0,0,.369.122h1.422a1.355,1.355,0,0,1,.263.018,1.518,1.518,0,0,1,.8.422,1.1,1.1,0,0,1,.3.772v.823a1.136,1.136,0,0,1-.493.924,1.521,1.521,0,0,1-.719.228Z" transform="translate(-474.563 -561.309)" fill="#1d1d1b"/>
      </g>
      <path id="Path_1462" data-name="Path 1462" d="M495.077,562.3v7.02h.945v-4.389h1v-.88h-1V562.3Z" transform="translate(-412.542 -511.828)" fill="#1d1d1b"/>
      <g id="Group_1656" data-name="Group 1656" transform="translate(85.048 52.224)">
        <path id="Path_1119" data-name="Path 1119" d="M496.168,568.327v-3.87a1.6,1.6,0,0,1,.023-.3,1.152,1.152,0,0,1,.318-.754,1.492,1.492,0,0,1,.827-.32,2.257,2.257,0,0,1,.253-.023h.532v.878h-.479a.47.47,0,0,0-.528.532v3.857Z" transform="translate(-496.168 -563.06)" fill="#1d1d1b"/>
        <path id="Path_1120" data-name="Path 1120" d="M497.368,566.974V563.06h.972V567.1c.051.224.267.332.65.332h1.521a.776.776,0,0,0,.5-.124.572.572,0,0,0,.147-.447v-3.8h.947v3.914c0,.9-.528,1.352-1.613,1.352h-1.509c-1.081,0-1.617-.451-1.617-1.352" transform="translate(-494.603 -563.06)" fill="#1d1d1b"/>
        <path id="Path_1121" data-name="Path 1121" d="M500.005,567v-2.606a1.214,1.214,0,0,1,.447-1,1.813,1.813,0,0,1,1.136-.327h2.2v.88h-2.207c-.422,0-.624.187-.624.56v2.295a.647.647,0,0,0,.177.465.629.629,0,0,0,.479.2H503.8v.868h-2.182a1.773,1.773,0,0,1-.829-.177,1.25,1.25,0,0,1-.779-1.154" transform="translate(-491.165 -563.06)" fill="#1d1d1b"/>
      </g>
      <path id="Path_1464" data-name="Path 1464" d="M502.116,562.3v7.02h.947v-4.389h1v-.88h-1V562.3Z" transform="translate(-403.363 -511.828)" fill="#1d1d1b"/>
      <g id="Group_1636" data-name="Group 1636">
        <path id="Path_1123" data-name="Path 1123" d="M503.307,569.319h.963v-5.267h-.963Zm-.177-6.417a.571.571,0,0,1,.187-.428.681.681,0,0,1,.924.012.583.583,0,0,1,.191.438.56.56,0,0,1-.182.422.659.659,0,0,1-.463.168.651.651,0,0,1-.47-.175.565.565,0,0,1-.187-.435" transform="translate(-402.041 -511.828)" fill="#1d1d1b"/>
        <path id="Path_1124" data-name="Path 1124" d="M505.858,567.458h1.557a.6.6,0,0,0,.668-.675v-2.212c0-.424-.226-.631-.668-.631h-1.557c-.456,0-.691.207-.691.631v2.182a.62.62,0,0,0,.691.705m-1.647-.424V564.3c0-.721.431-1.129,1.281-1.221a.721.721,0,0,0,.131-.016h1.88c.051,0,.127.012.233.023q1.3.173,1.295,1.214v2.737a1.258,1.258,0,0,1-.786,1.138,1.628,1.628,0,0,1-.742.157h-1.793a1.374,1.374,0,0,1-1.431-.951c-.081-.217-.1-.327-.069-.344" transform="translate(-400.652 -510.836)" fill="#1d1d1b"/>
        <path id="Path_1125" data-name="Path 1125" d="M506.873,568.327v-3.907c0-.9.541-1.359,1.62-1.359H510c1.078,0,1.617.456,1.617,1.359v3.907h-.949v-4.039c-.053-.224-.27-.332-.645-.332h-1.537a.8.8,0,0,0-.511.122.557.557,0,0,0-.147.452v3.8Z" transform="translate(-397.16 -510.836)" fill="#1d1d1b"/>
        <path id="Path_1126" data-name="Path 1126" d="M468.65,577.793a51.034,51.034,0,0,0,5.871.251c12.476,0,17.245-6.368,17.245-17.51.067-9.734-4.034-15.916-16.31-15.916a36.028,36.028,0,0,0-6.806.548Zm-8.663-36.483a126.147,126.147,0,0,1,15.2-.917c8.338,0,14.28,1.838,18.217,5.14,4.067,3.366,6.407,8.145,6.407,14.817,0,6.737-2.341,12.243-6.472,16.038-4.274,3.859-11.216,5.942-19.957,5.942-4.2,0-10.462-.184-13.4-.491Z" transform="translate(-458.298 -540.393)" fill="#164d7b"/>
        <path id="Path_1127" data-name="Path 1127" d="M467.919,577.793a50.964,50.964,0,0,0,5.868.251c12.481,0,17.247-6.368,17.247-17.51.064-9.734-4.037-15.916-16.314-15.916a35.99,35.99,0,0,0-6.8.548Zm-8.665-36.483a126.187,126.187,0,0,1,15.2-.917c8.34,0,14.278,1.838,18.22,5.14,4.064,3.366,6.4,8.145,6.4,14.817,0,6.737-2.339,12.243-6.47,16.038-4.272,3.859-11.216,5.942-19.957,5.942-4.2,0-10.467-.184-13.4-.491Z" transform="translate(-459.254 -540.393)" fill="#0097da"/>
        <path id="Path_1128" data-name="Path 1128" d="M501,577.793a51.173,51.173,0,0,0,5.875.251c12.476,0,17.245-6.368,17.245-17.51.065-9.734-4.034-15.916-16.312-15.916a36.131,36.131,0,0,0-6.808.548Zm-8.661-36.483a126.187,126.187,0,0,1,15.2-.917c8.338,0,14.278,1.838,18.22,5.14,4.062,3.366,6.4,8.145,6.4,14.817,0,6.737-2.341,12.243-6.472,16.038-4.274,3.859-11.211,5.942-19.952,5.942-4.2,0-10.462-.184-13.4-.491Z" transform="translate(-416.107 -540.393)" fill="#164d7b"/>
        <path id="Path_1129" data-name="Path 1129" d="M500.276,577.793a51.161,51.161,0,0,0,5.871.251c12.474,0,17.247-6.368,17.247-17.51.065-9.734-4.036-15.916-16.31-15.916a36.057,36.057,0,0,0-6.808.548Zm-8.665-36.483a126.287,126.287,0,0,1,15.2-.917c8.338,0,14.275,1.838,18.215,5.14,4.066,3.366,6.4,8.145,6.4,14.817,0,6.737-2.336,12.243-6.472,16.038-4.272,3.859-11.209,5.942-19.948,5.942-4.2,0-10.462-.184-13.4-.491Z" transform="translate(-417.062 -540.393)" fill="#0097da"/>
      </g>
      <rect id="Rectangle_328" data-name="Rectangle 328" width="114.92" height="1.371" transform="translate(0 45.955)" fill="#0097da"/>
    </g>
  </g>
</svg>
