<?xml version="1.0" encoding="utf-8"?>
<!-- Generator: Adobe Illustrator 19.0.0, SVG Export Plug-In . SVG Version: 6.00 Build 0)  -->
<svg version="1.1" id="Layer_1" xmlns="http://www.w3.org/2000/svg" xmlns:xlink="http://www.w3.org/1999/xlink" x="0px" y="0px"
	 viewBox="0 0 496 416" style="enable-background:new 0 0 496 416;" xml:space="preserve">
<style type="text/css">
	.st0{clip-path:url(#SVGID_2_);fill:#878787;}
</style>
<g>
	<defs>
		<rect id="SVGID_1_" width="496" height="416"/>
	</defs>
	<clipPath id="SVGID_2_">
		<use xlink:href="#SVGID_1_"  style="overflow:visible;"/>
	</clipPath>
	<path class="st0" d="M456,112c-19.3,0-35.5,13.8-39.2,32H340l12-16c10.3-13.8,16-30.8,16-48c0-44.1-35.9-80-80-80s-80,35.9-80,80
		c0,17.2,5.7,34.2,16,48l12,16H79.2c-3.7-18.2-19.9-32-39.2-32c-22.1,0-40,17.9-40,40v224c0,22.1,17.9,40,40,40h416
		c22.1,0,40-17.9,40-40V152C496,129.9,478.1,112,456,112 M416,336h-32v-32h32V336z M416,288h-32c-8.8,0-16,7.2-16,16v32
		c0,8.8,7.2,16,16,16h32v16h-32c-8.8,0-16,7.2-16,16v16h-16v-88c0-13.2-10.8-24-24-24h-72c-13.2,0-24,10.8-24,24v88h-16V296
		c0-4.4-3.6-8-8-8h-56c-4.4,0-8,3.6-8,8v6.3c0,34.8-9.9,68.4-28.5,97.7H95.4c21.3-30.7,32.6-66.6,32.6-104c0-4.4-3.6-8-8-8H80v-16
		h24c13.2,0,24-10.8,24-24v-22.7c0-6.9,4.4-13,10.9-15.2l39.2-13.1c13.1-4.4,21.9-16.6,21.9-30.4V160h16v13.4
		c0,17.2-11,32.5-27.4,37.9l-33.7,11.2c-6.5,2.2-10.9,8.3-10.9,15.2V248c0,13.2,10.8,24,24,24h160c13.2,0,24-10.8,24-24v-88h16v88
		c0,13.2,10.8,24,24,24h24V288z M336,400h-88v-88c0-4.4,3.6-8,8-8h72c4.4,0,8,3.6,8,8V400z M200,400h-65.7
		c16.6-29.3,25.4-62.1,25.7-96h40V400z M80,256v-96h104v6.7c0,6.9-4.4,13-10.9,15.2l-39.2,13.1c-13.1,4.4-21.9,16.6-21.9,30.4V248
		c0,4.4-3.6,8-8,8H80z M416,256h-24c-4.4,0-8-3.6-8-8v-88h32V256z M288,16c35.3,0,64,28.7,64,64c0,13.8-4.5,27.4-12.8,38.4
		L288,186.7l-51.2-68.3c-8.3-11-12.8-24.7-12.8-38.4C224,44.7,252.7,16,288,16 M312,200c0,8.7-11,16-24,16s-24-7.3-24-16
		c0-3.8,2.3-7.6,6.2-10.5l11.4,15.3c1.5,2,3.9,3.2,6.4,3.2c2.5,0,4.9-1.2,6.4-3.2l11.4-15.3C309.7,192.4,312,196.2,312,200
		 M260.5,176.7C252.6,182.6,248,191,248,200c0,17.6,17.9,32,40,32s40-14.4,40-32c0-9-4.6-17.4-12.5-23.3L328,160h8v88
		c0,4.4-3.6,8-8,8H168c-4.4,0-8-3.6-8-8v-10.2l33.7-11.2c22.9-7.6,38.3-29,38.3-53.1V160h16L260.5,176.7z M16,152
		c0-13.2,10.8-24,24-24s24,10.8,24,24v192c-6.7-5-15-8-24-8s-17.3,3-24,8V152z M16,376c0-13.2,10.8-24,24-24s24,10.8,24,24
		c0,4.4,3.6,8,8,8s8-3.6,8-8v-72h31.8c-1.5,32.1-12.1,62.6-30.9,88.9l-5.1,7.1H40C26.8,400,16,389.2,16,376 M456,400h-72v-16h40
		c4.4,0,8-3.6,8-8c0-13.2,10.8-24,24-24c13.2,0,24,10.8,24,24C480,389.2,469.2,400,456,400 M480,344c-6.7-5-15-8-24-8s-17.3,3-24,8
		V152c0-13.2,10.8-24,24-24c13.2,0,24,10.8,24,24V344z"/>
	<path class="st0" d="M288,112c22.1,0,40-17.9,40-40s-17.9-40-40-40s-40,17.9-40,40S265.9,112,288,112 M288,48c13.2,0,24,10.8,24,24
		c0,13.2-10.8,24-24,24c-13.2,0-24-10.8-24-24C264,58.8,274.8,48,288,48"/>
</g>
</svg>
