<?xml version="1.0" encoding="utf-8"?>
<!-- Generator: Adobe Illustrator 19.0.0, SVG Export Plug-In . SVG Version: 6.00 Build 0)  -->
<svg version="1.1" id="Capa_1" xmlns="http://www.w3.org/2000/svg" xmlns:xlink="http://www.w3.org/1999/xlink" x="0px" y="0px"
	 viewBox="0 0 490.8 490.8" style="enable-background:new 0 0 490.8 490.8;" xml:space="preserve">
<style type="text/css">
	.st0{fill:#FFFFFF;}
</style>
<g>
	<path class="st0" d="M231.7,3.1c-4.2-4.1-11-4-15.1,0.3c-4,4.1-4,10.7,0,14.8l227.1,227.1L216.6,472.5c-4.2,4.1-4.4,10.8-0.3,15.1
		c4.1,4.2,10.8,4.4,15.1,0.3c0.1-0.1,0.2-0.2,0.3-0.3l234.7-234.7c4.2-4.2,4.2-10.9,0-15.1L231.7,3.1z"/>
	<path class="st0" d="M274.4,237.8L39.7,3.1c-4.2-4.1-11-4-15.1,0.3c-4,4.1-4,10.7,0,14.8l227.1,227.1L24.6,472.5
		c-4.2,4.1-4.4,10.8-0.3,15.1c4.1,4.2,10.8,4.4,15.1,0.3c0.1-0.1,0.2-0.2,0.3-0.3l234.7-234.7C278.5,248.7,278.5,242,274.4,237.8z"
		/>
</g>
<path class="st0" d="M224.1,490.7c-5.9,0-10.7-4.8-10.7-10.6c0-2.8,1.1-5.6,3.1-7.6l227.1-227.1L216.6,18.2c-4.1-4.2-4-11,0.3-15.1
	c4.1-4,10.7-4,14.8,0l234.7,234.7c4.2,4.2,4.2,10.9,0,15.1L231.7,487.6C229.7,489.6,227,490.7,224.1,490.7z"/>
<path class="st0" d="M32.1,490.7c-5.9,0-10.7-4.8-10.7-10.6c0-2.8,1.1-5.6,3.1-7.6l227.1-227.1L24.6,18.2c-4.2-4.2-4.2-10.9,0-15.1
	s10.9-4.2,15.1,0l234.7,234.7c4.2,4.2,4.2,10.9,0,15.1L39.7,487.5C37.7,489.6,35,490.7,32.1,490.7z"/>
</svg>
