<?xml version="1.0" encoding="utf-8"?>
<!-- Generator: Adobe Illustrator 19.0.0, SVG Export Plug-In . SVG Version: 6.00 Build 0)  -->
<svg version="1.1" id="Layer_1" xmlns="http://www.w3.org/2000/svg" xmlns:xlink="http://www.w3.org/1999/xlink" x="0px" y="0px"
	 viewBox="0 0 482 482" style="enable-background:new 0 0 482 482;" xml:space="preserve">
<style type="text/css">
	.st0{clip-path:url(#SVGID_2_);fill:#dd1d26;}
	.st1{clip-path:url(#SVGID_2_);fill:#FFFFFF;}
</style>
<g>
	<defs>
		<rect id="SVGID_1_" width="482" height="482"/>
	</defs>
	<clipPath id="SVGID_2_">
		<use xlink:href="#SVGID_1_"  style="overflow:visible;"/>
	</clipPath>
	<path class="st0" d="M482,241c0,133.1-107.9,241-241,241S0,374.1,0,241S107.9,0,241,0S482,107.9,482,241"/>
	<path class="st1" d="M373.9,384.5v-33.2c7-4.1,11.1-11.8,10.6-20c0-11.7-7.1-21.3-16-21.3s-16,9.5-16,21.3
		c-0.5,8.1,3.6,15.8,10.6,20v33.2h-37.2V223l-31.9-16v28.6h15.9v10.6h-15.9v21.3h15.9v10.6h-15.9v21.3h15.9v10.6h-15.9v21.3h15.9
		V342h-15.9v21.3h15.9v10.6h-15.9v10.6h-10.6v-214l-63.8-18.2v19.5h37.2v10.6h-37.2v21.3h37.2v10.6h-37.2v21.3h37.2v10.6h-37.2v21.3
		h37.2v10.6h-37.2v21.3h37.2v10.6h-37.2v21.3h37.2V342h-37.2v21.3h37.2v10.6h-37.2v10.6h-10.6V86.8h-95.7v21.3h47.8v10.6h-47.8V140
		h47.8v10.6h-47.8v21.3h47.8v10.6h-47.8v21.3h47.8v10.6h-47.8v21.3h47.8v10.6h-47.8v21.3h47.8v10.6h-47.8v21.3h47.8v10.6h-47.8v21.3
		h47.8V342h-47.8v21.3h47.8v10.6h-47.8v10.6H81.5v10.6h319v-10.6H373.9z"/>
</g>
</svg>
