<?xml version="1.0" encoding="utf-8"?>
<!-- Generator: Adobe Illustrator 19.0.0, SVG Export Plug-In . SVG Version: 6.00 Build 0)  -->
<svg version="1.1" id="Layer_1" xmlns="http://www.w3.org/2000/svg" xmlns:xlink="http://www.w3.org/1999/xlink" x="0px" y="0px"
	 viewBox="0 0 480 480" style="enable-background:new 0 0 480 480;" xml:space="preserve">
<style type="text/css">
	.st0{fill:#FFFFFF;}
	.st1{fill:#dd1d26;}
</style>
<circle class="st0" cx="240" cy="240" r="241"/>
<g>
	<path class="st1" d="M207.5,144.9h-42l72.1,72.6L207.5,144.9z"/>
	<path class="st1" d="M288.7,144.9h-62l31,75L288.7,144.9z"/>
	<path class="st1" d="M263.9,91.8h-12.4l-22.1,35.4H286L263.9,91.8z"/>
	<path class="st1" d="M165.5,127.2h43l22.1-35.4h-29.7L165.5,127.2z"/>
	<path class="st1" d="M307.9,144.9l-30,72.6l72.1-72.6L307.9,144.9z"/>
	<path class="st1" d="M314.5,91.8h-29.7l22.1,35.4h43L314.5,91.8z"/>
	<path class="st1" d="M179.5,363.2l-65.6-65.6l-25,25l65.5,65.6L179.5,363.2z"/>
	<path class="st1" d="M345.8,251.7L305,291.9c-8.3,8.3-19.6,13-31.3,13h-78.6v-17.7h80.3v-35.4h-97.5c-11.7,0-23,4.7-31.3,13
		L126.4,285l65.6,65.6l10.4-10.4h71.4c21.1,0,41.9-8.4,56.8-23.3l60.5-60.5c0,0-6.4-6.4-6.5-6.5C374,239.5,356.3,241.1,345.8,251.7
		L345.8,251.7z"/>
</g>
</svg>
