<?xml version="1.0" encoding="utf-8"?>
<!-- Generator: Adobe Illustrator 19.0.0, SVG Export Plug-In . SVG Version: 6.00 Build 0)  -->
<svg version="1.1" id="Layer_1" xmlns="http://www.w3.org/2000/svg" xmlns:xlink="http://www.w3.org/1999/xlink" x="0px" y="0px"
	 viewBox="0 0 512 390.8" style="enable-background:new 0 0 512 390.8;" xml:space="preserve">
<style type="text/css">
	.st0{clip-path:url(#SVGID_2_);fill:#FFFFFF;}
</style>
<g>
	<defs>
		<rect id="SVGID_1_" width="512" height="390.8"/>
	</defs>
	<clipPath id="SVGID_2_">
		<use xlink:href="#SVGID_1_"  style="overflow:visible;"/>
	</clipPath>
	<path class="st0" d="M456.7,143.3c0-23.7-16.5-43.6-38.6-48.8c-10.6,6.9-23.2,10.9-36.8,10.9s-26.2-4-36.8-10.9
		c-22.1,5.2-38.6,25.1-38.6,48.8v42.8h150.7L456.7,143.3L456.7,143.3z"/>
	<path class="st0" d="M381.4,75.3c20.8,0,37.7-16.9,37.7-37.7C419,16.9,402.1,0,381.4,0c-20.8,0-37.7,16.9-37.7,37.7
		C343.7,58.4,360.6,75.3,381.4,75.3"/>
	<path class="st0" d="M200.6,75.3c20.8,0,37.7-16.9,37.7-37.7c0-20.8-16.9-37.7-37.7-37.7C179.9,0,163,16.9,163,37.7
		C163,58.4,179.9,75.3,200.6,75.3"/>
	<path class="st0" d="M276,143.3c0-23.7-16.5-43.6-38.6-48.8c-10.6,6.9-23.2,10.9-36.8,10.9c-13.5,0-26.2-4-36.8-10.9
		c-22.1,5.2-38.6,25.1-38.6,48.8v42.8H276L276,143.3L276,143.3z"/>
	<path class="st0" d="M508,242.5c-6.3-8.3-17.8-10.2-26.4-4.5l-108.8,97.2H233.8v-30h89.9c12.6-0.1,22.9-10.4,22.9-23
		c0-12.7-10.3-23-23-23H217.9l-4.4-6.8c-0.8-1.2-21-30.3-60.6-30.3c-39.2,0-58.5,26.7-59.7,28.5l-4.4,6.8l-8-0.2H64.1v133.6l289.3,0
		c17.9,0,34.7-6.9,47.5-19.4l103.7-101.7l0.4-0.4C513,262.6,514.3,250.8,508,242.5"/>
	<rect y="257.3" class="st0" width="34.1" height="133.6"/>
</g>
</svg>
