<?xml version="1.0" encoding="utf-8"?>
<!-- Generator: Adobe Illustrator 19.0.0, SVG Export Plug-In . SVG Version: 6.00 Build 0)  -->
<svg version="1.1" id="Layer_1" xmlns="http://www.w3.org/2000/svg" xmlns:xlink="http://www.w3.org/1999/xlink" x="0px" y="0px"
	 viewBox="0 0 482 482" style="enable-background:new 0 0 482 482;" xml:space="preserve">
<style type="text/css">
	.st0{clip-path:url(#SVGID_2_);fill:#dd1d26;}
	.st1{clip-path:url(#SVGID_2_);fill:#FFFFFF;}
</style>
<g>
	<defs>
		<rect id="SVGID_1_" width="482" height="482"/>
	</defs>
	<clipPath id="SVGID_2_">
		<use xlink:href="#SVGID_1_"  style="overflow:visible;"/>
	</clipPath>
	<path class="st0" d="M482,241c0,133.1-107.9,241-241,241S0,374.1,0,241S107.9,0,241,0S482,107.9,482,241"/>
	<path class="st1" d="M168.3,304.4c5.1-4.5,5.6-12.3,1.1-17.5l-0.7-0.8c-2.2-2.5-5.2-4-8.5-4.1h-0.8c-3,0-5.9,1.1-8.2,3.1
		l-16.6,14.6L119.6,313c-5.1,4.5-5.6,12.3-1.1,17.5l0.7,0.8c4.5,5.1,12.3,5.6,17.5,1.1l11.6-10.2L168.3,304.4z"/>
	<path class="st1" d="M128.5,338.3c-0.3,0-0.7,0-1,0c-4.1-0.3-7.9-2.1-10.5-5.2l-0.7-0.8c-5.6-6.4-4.9-16,1.4-21.6l31.7-27.9
		c3.1-2.7,7.1-4,11.1-3.8c4.1,0.3,7.9,2.1,10.5,5.2l1,1.1c5.3,6.4,4.6,15.8-1.7,21.3l-31.7,27.9C135.8,337,132.2,338.3,128.5,338.3
		 M159.5,285c-2.3,0-4.5,0.9-6.2,2.4l-31.7,27.9c-3.9,3.4-4.3,9.4-0.8,13.3l0.7,0.8c3.4,3.9,9.4,4.3,13.3,0.8l31.7-27.9
		c3.9-3.4,4.3-9.4,0.9-13.3l-0.7-0.8c-1.6-1.9-4-3-6.5-3.2L159.5,285z"/>
	<path class="st1" d="M212.8,335.4c-3,0-5.9,1.1-8.2,3.1l-16.4,14.4c-5.1,4.5-5.7,12.3-1.1,17.5c4.5,5.1,12.3,5.7,17.5,1.1
		l16.4-14.4c5.1-4.5,5.7-12.3,1.1-17.5C219.8,336.9,216.4,335.4,212.8,335.4"/>
	<path class="st1" d="M196.5,377.5c-8.5,0-15.4-6.8-15.4-15.3c0-4.4,1.9-8.6,5.2-11.6l16.4-14.4c6.5-5.3,16-4.7,21.7,1.4
		c5.6,6.4,5,16.1-1.4,21.7l-16.4,14.4C203.8,376.1,200.2,377.5,196.5,377.5 M212.9,338.4c-2.3,0-4.5,0.8-6.2,2.3L190.3,355
		c-3.9,3.4-4.3,9.4-0.9,13.3c3.4,3.9,9.4,4.3,13.3,0.9l16.4-14.3c3.9-3.4,4.3-9.4,0.9-13.3C218.2,339.5,215.6,338.4,212.9,338.4
		L212.9,338.4z"/>
	<polygon class="st1" points="66.8,108.3 33.6,253.5 60.2,268.4 129,156.5 	"/>
	<path class="st1" d="M61.2,272.4l-31-17.4L65,103.1l67.9,52.6L61.2,272.4z M37,252l22.2,12.4l65.9-107.3l-56.4-43.6L37,252z"/>
	<path class="st1" d="M129.9,287.6c5.1-4.5,5.6-12.3,1.1-17.5l-0.2-0.2c-2.2-2.5-5.2-4-8.5-4.2h-0.8c-3,0-5.9,1.1-8.2,3.1
		l-19.9,17.4c-5.1,4.5-5.6,12.3-1.1,17.5c4.4,5.3,12.3,5.9,17.5,1.5c0.1,0,0.1-0.1,0.2-0.1l1.5-1.3l15.1-13.3L129.9,287.6z"/>
	<path class="st1" d="M102,311c-0.4,0-0.8,0-1.2,0c-4.1-0.3-8-2.3-10.7-5.4c-5.6-6.4-5-16.1,1.4-21.7l19.8-17.4
		c6.4-5.6,16.1-5,21.7,1.4c2.8,3.1,4.3,7.2,4,11.4c-0.3,4.1-2.1,7.9-5.2,10.5L112,307.3C109.2,309.7,105.6,311.1,102,311
		 M121.5,268.6c-2.3,0-4.5,0.9-6.2,2.4l-19.8,17.4c-3.9,3.4-4.3,9.4-0.9,13.3l0,0c1.7,2,4.1,3.2,6.7,3.4c2.5,0.2,5-0.6,6.8-2.3
		l19.8-17.4c3.9-3.4,4.3-9.4,0.9-13.3c-1.7-2-4.1-3.2-6.7-3.4L121.5,268.6z"/>
	<path class="st1" d="M199.1,322.3c0.2-3.3-0.9-6.5-3.1-9l-0.2-0.2c-2.2-2.5-5.2-4-8.5-4.1h-0.8c-3,0-5.9,1.1-8.2,3.1l-1.9,1.7
		l-20.1,17.6L151,336c-5.1,4.7-5.5,12.6-0.9,17.8c2.2,2.4,5.2,3.9,8.4,4.1c3.3,0.2,6.5-0.9,9-3.1l27.3-24
		C197.4,328.6,198.9,325.6,199.1,322.3"/>
	<path class="st1" d="M159.4,360.8c-0.3,0-0.7,0-1,0c-8.5-0.5-15-7.9-14.5-16.4c0.3-4.1,2.1-7.9,5.2-10.6l27.3-24
		c3.1-2.7,7.1-4,11.1-3.8c4.1,0.2,7.8,2.1,10.5,5.2c2.8,3.1,4.2,7.2,4,11.4c-0.3,4.1-2.1,7.8-5.2,10.5l-27.3,24
		C166.7,359.5,163.1,360.8,159.4,360.8 M178.4,315.9L153,338.2c-3.9,3.4-4.3,9.4-0.9,13.3c1.7,2,4.1,3.2,6.6,3.4
		c2.5,0.2,5-0.7,6.9-2.3l27.3-24c3.9-3.4,4.3-9.4,0.9-13.3c0,0,0,0,0,0c-1.7-2-4.1-3.2-6.7-3.4h-0.6c-2.3,0-4.5,0.8-6.2,2.4
		L178.4,315.9z"/>
	<path class="st1" d="M362.9,282.7l-96.4-78.6c-36.9,19.6-63.1,9.5-75.6,1.5c-6.5-4.3-8.4-13-4.1-19.5c1.3-2,3.1-3.7,5.3-4.8
		l32.1-17.1c-0.8-0.1-1.6-0.2-2.4-0.3c-29,4.6-58.3,7.1-87.7,7.5l-56.2,91.4l12.5,9.5l14.7-12.9c10.2-9,25.8-8,34.8,2.3c0,0,0,0,0,0
		l0.2,0.2c2.9,3.4,4.9,7.5,5.7,11.9c4.5-3,9.8-4.5,15.2-4.1c6.5,0.4,12.6,3.4,16.9,8.3l0.7,0.8c4.3,4.9,6.5,11.3,6.1,17.8v0
		c1.1-0.1,2.3-0.2,3.4-0.1c6.5,0.4,12.6,3.4,16.9,8.3l-4.4,4.2l4.6-4c4.3,4.9,6.5,11.3,6.1,17.9c0,0.1,0,0.2,0,0.2
		c13.5-1,25.2,9.2,26.2,22.7c0.1,1.1,0.1,2.3,0,3.4c-0.3,4.2-1.7,8.3-4.1,11.9l26.4,15.2c5.8,3.3,13.2,1.3,16.6-4.4
		c3.2-5.5,1.7-12.5-3.6-16.1l-42.1-29.2c0,0-0.1-0.1-0.1-0.1l-2.8-2c-2.7-2-3.4-5.8-1.4-8.6c1.9-2.7,5.6-3.4,8.4-1.5l59.3,41.1
		c5.5,3.8,13,2.4,16.8-3c0,0,0,0,0,0c3.7-5.4,2.4-12.9-3-16.7l-59.1-41.9c0,0,0-0.1-0.1-0.1c-2.8-2-3.4-5.8-1.4-8.6
		c2-2.8,5.8-3.4,8.6-1.4l66.2,47c5.8,4.1,13.8,2.7,17.9-3.1c4-5.6,2.8-13.3-2.6-17.5l-71.2-51.3c-2.8-1.9-3.6-5.7-1.7-8.5
		c1.9-2.8,5.7-3.6,8.5-1.7c0.1,0.1,0.2,0.1,0.3,0.2l4.9,3.5h0.1l66,47.6c0.1,0.1,0.2,0.2,0.3,0.3l1.1,0.8c0.2,0.1,0.4,0.3,0.6,0.5
		l1.2,0.8c5.5,4,13.2,2.9,17.4-2.4c2.5-3.2,3.4-7.4,2.2-11.4C366.3,286.4,364.9,284.3,362.9,282.7"/>
	<path class="st1" d="M265.8,381.1c-2.6,0-5.2-0.7-7.5-2l-29.2-16.8l1.8-2.6c6.6-9.9,3.9-23.3-6.1-29.9c-3.2-2.1-6.8-3.3-10.6-3.6
		c-0.7,0-1.5,0-2.2,0.1l-4,0.2l0.2-3.4c0.4-4.8-0.9-9.6-3.5-13.6l-2.2,2l-4-4.4l2.3-2.2c-3.6-3.2-8.1-5-12.9-5.3
		c-0.9,0-1.7,0-2.6,0.1l-3.2,0.2l-0.4-3.5v-0.1c0.3-5.6-1.6-11.2-5.3-15.5l-0.7-0.8c-7.1-8.2-19.3-9.8-28.2-3.7l-3.8,2.5l-0.8-4.5
		c-2-11.8-13.2-19.8-25.1-17.8c-4,0.7-7.7,2.4-10.7,5.1l-16.6,14.5L74,263.6l58.4-95.1l1.6,0c29.2-0.4,58.3-3,87.2-7.5l0.4-0.1
		l0.4,0c0.8,0.1,1.6,0.2,2.5,0.3l8.9,1.3l-40.1,21.3c-5.5,2.8-7.6,9.5-4.8,15c0.9,1.7,2.2,3.2,3.8,4.2c11.8,7.5,36.9,17.3,72.6-1.7
		l1.7-0.9l98,79.8c2.4,2,4.2,4.6,5.1,7.7c1.4,4.8,0.4,10.1-2.7,14c-5.2,6.5-14.7,7.8-21.5,3l-3.3-2.5l-70.8-51
		c-1.4-1-3.4-0.7-4.4,0.7c0,0,0,0,0,0c-1,1.4-0.7,3.4,0.7,4.4c0,0,0,0,0,0l71.3,51.4c6.9,5.3,8.2,15.3,2.9,22.2
		c-5.2,6.7-14.7,8.1-21.6,3.3l-66.2-46.9c-0.7-0.5-1.5-0.7-2.4-0.5c-1.7,0.3-2.9,1.9-2.6,3.6c0.1,0.8,0.6,1.6,1.3,2.1l59.2,42
		c6.7,4.8,8.3,14,3.7,20.8c-4.7,6.8-14.1,8.5-20.9,3.8c0,0,0,0,0,0L233,317.2c-1.4-1-3.4-0.7-4.4,0.7c-1,1.4-0.7,3.4,0.7,4.4
		c0.1,0,0.1,0.1,0.2,0.1l45,31.2c6.8,4.7,8.6,14,3.9,20.9c-2,2.9-5,5.1-8.5,6C268.5,380.9,267.2,381.1,265.8,381.1 M237.4,360.2
		l23.8,13.8c4.4,2.4,10,0.8,12.4-3.7c2.2-4,1.1-9-2.6-11.7l-33.6-23.3c2.3,4.4,3.3,9.4,3,14.4C240.2,353.3,239.2,356.9,237.4,360.2
		 M231.3,310.7c1.8,0,3.6,0.6,5.2,1.6l59.3,41.1c4.1,2.9,9.8,1.8,12.7-2.3c2.8-4.1,1.8-9.7-2.2-12.6l-59.5-42.2
		c-3.9-3.1-4.6-8.8-1.5-12.8c3-3.8,8.4-4.6,12.3-1.8l66.2,47c4.5,3.1,10.6,2,13.7-2.4c3-4.3,2.1-10.2-2-13.4l-71.2-51.3
		c-4.1-2.9-5-8.6-2.1-12.7c2.9-4.1,8.6-5,12.7-2.1l4.9,3.5l67.4,48.7c0.3,0.2,0.6,0.5,0.9,0.7l0.8,0.5c4.2,3.1,10.1,2.3,13.4-1.8
		c1.9-2.5,2.6-5.7,1.7-8.7c-0.5-1.9-1.6-3.5-3.1-4.7l-94.9-77.4c-37.5,19.1-64.1,8.6-76.8,0.5c-7.9-5.1-10.2-15.7-5-23.6
		c1.6-2.5,3.8-4.5,6.4-5.9l18.2-9.6c-18.5,2.5-43.7,4.4-73,5.3l-53.9,87.8l8.5,6.5l12.9-11.3c11.5-10.1,28.9-8.9,38.9,2.5
		c0,0,0,0,0,0c2.5,2.8,4.4,6.1,5.6,9.6c4.2-2,8.9-2.9,13.5-2.6c7.3,0.5,14.1,3.8,19,9.3l0.7,0.8c4.1,4.6,6.5,10.5,6.8,16.7h0.6
		c6.4,0.4,12.4,3.1,17.1,7.4l0.1-0.1l1.6,1.8l0.2,0.2l1.9,2.1l-0.1,0.1c3.2,4.4,5,9.6,5.2,15h0.4c2.6,0.2,5.2,0.7,7.7,1.6
		c-1.1-4.9,1.9-9.8,6.8-10.9C229.8,310.8,230.6,310.7,231.3,310.7L231.3,310.7z"/>
	<path class="st1" d="M415.2,106.1L353,154.2l57.5,93.5c0.4,0.2,0.7,0.4,1.1,0.7c1,1,1.6,2.3,1.7,3.8l8.6,14l26.6-15L415.2,106.1z"
		/>
	<path class="st1" d="M420.8,270.2l-10.5-17l-0.1-0.7c0-0.7-0.3-1.4-0.8-1.9l-1.1-0.7l-0.4-0.6l-58.9-95.7l67.9-52.6l34.8,151.8
		L420.8,270.2z M416.1,251.2l6.8,11l22.2-12.4l-31.7-138.5L356.9,155l55.7,90.6c0.4,0.2,0.7,0.5,1,0.8
		C414.9,247.7,415.8,249.4,416.1,251.2L416.1,251.2z"/>
	<path class="st1" d="M337,170.8c-12.1,5-25.5,5.5-37.9,1.4l-32.6-10.6c-4.5-1.4-9.4-1-13.6,1.2l-11.1,5.9c-0.1,0.1-0.2,0.1-0.3,0.2
		l-43.8,23.3c-0.6,0.3-1,0.9-1.1,1.6c0,0.6,0.3,1.2,0.8,1.6c12.9,8.2,35,14.2,66.6-3.9c2.2-1.3,5-1,6.9,0.6l99.6,81.2
		c1.4,1.1,2.6,2.4,3.7,3.9l24.6-24.6L346.4,167L337,170.8z"/>
	<path class="st1" d="M374.1,281.5l-2.1-2.6c-1-1.2-2-2.4-3.3-3.4l-99.6-81.2c-1-0.8-2.4-0.9-3.6-0.3c-32.9,18.9-56,12.5-69.6,3.8
		c-1.4-0.9-2.3-2.5-2.2-4.2c0.1-1.7,1.1-3.3,2.6-4.1l55.2-29.3c4.9-2.6,10.6-3.1,15.9-1.4l32.6,10.6c11.7,3.9,24.4,3.4,35.8-1.3
		l11.8-4.8l55,89.5L374.1,281.5z M267.1,187.7c2.1,0,4.1,0.7,5.8,2l99.6,81.2c0.7,0.6,1.4,1.2,2,1.8l20.7-20.7l-49.9-81.3l-7.1,2.9
		c-12.7,5.2-26.9,5.7-39.9,1.4l-32.6-10.6c-3.8-1.2-7.8-0.8-11.3,1l-53.5,28.4c12.4,7.2,32.8,11.6,61.8-5
		C264,188.1,265.5,187.7,267.1,187.7"/>
</g>
</svg>
