<?xml version="1.0" encoding="utf-8"?>
<!-- Generator: Adobe Illustrator 19.0.0, SVG Export Plug-In . SVG Version: 6.00 Build 0)  -->
<svg version="1.1" id="Layer_1" xmlns="http://www.w3.org/2000/svg" xmlns:xlink="http://www.w3.org/1999/xlink" x="0px" y="0px"
	 viewBox="0 0 496 496" style="enable-background:new 0 0 496 496;" xml:space="preserve">
<style type="text/css">
	.st0{fill:#878787;}
	.st1{clip-path:url(#SVGID_2_);fill:#878787;}
</style>
<path class="st0" d="M256,208h224v16H256V208z M240,240h256v-48H240V240z"/>
<polygon class="st0" points="256,176 272,176 272,163.9 368,90.1 464,163.9 464,176 480,176 480,156.1 368,69.9 256,156.1 "/>
<g>
	<defs>
		<rect id="SVGID_1_" width="496" height="496"/>
	</defs>
	<clipPath id="SVGID_2_">
		<use xlink:href="#SVGID_1_"  style="overflow:visible;"/>
	</clipPath>
	<path class="st1" d="M496,408c0-22.4-7.7-44.5-21.7-62l-7-8.8c-4.7-5.9-11.7-9.3-19.2-9.3c-6,0-11.6,2.2-16,6v-14h-48v48h24.5
		c-5.5,12.5-8.5,26.2-8.5,40c0,23.7,17.3,43.4,40,47.3V480h-40v-72v-8h-64v80h-80v-24.7c22.7-3.8,40-23.5,40-47.3
		c0-22.4-7.7-44.5-21.7-62l-7-8.8c-4.7-5.9-11.7-9.3-19.2-9.3s-14.6,3.4-19.2,9.2l-7,8.8c-14,17.5-21.7,39.5-21.7,62
		c0,23.7,17.3,43.4,40,47.3V480h-72v-80h-64v80H56v-24.7c22.7-3.8,40-23.5,40-47.3c0-20-6.1-39.6-17.4-56H88v-48H40v25.5
		c-4.4,1.5-8.3,4.1-11.2,7.8l-7,8.8C7.7,363.5,0,385.6,0,408c0,23.7,17.3,43.4,40,47.3V480H16v-24H0v40h40h16h184h16h184h16h40v-40
		h-16v24h-24v-24.7C478.7,451.4,496,431.7,496,408 M56,320h16v16h-6c-2.8-3-6.2-5.2-10-6.5V320z M40,400v38.9
		c-13.8-3.6-24-16-24-30.9c0-18.8,6.5-37.3,18.2-52l7-8.8c1.7-2.1,4.1-3.2,6.8-3.2s5.1,1.2,6.8,3.2l7,8.8
		C73.5,370.7,80,389.2,80,408c0,14.9-10.2,27.3-24,30.9V400H40z M152,480h-32v-64h32V480z M240,400v38.9c-13.8-3.6-24-16-24-30.9
		c0-18.8,6.5-37.3,18.2-52l7-8.8c1.7-2.1,4.1-3.2,6.8-3.2s5.1,1.2,6.8,3.2l7,8.8c11.8,14.7,18.2,33.2,18.2,52
		c0,14.9-10.2,27.3-24,30.9V400H240z M384,480h-32v-64h32V480z M400,336h16v16h-16V336z M440,400v38.9c-13.8-3.6-24-16-24-30.9
		c0-18.8,6.5-37.3,18.2-52l7-8.8c1.7-2.1,4.1-3.2,6.8-3.2c2.6,0,5.1,1.2,6.8,3.2l7,8.8c11.8,14.7,18.2,33.2,18.2,52
		c0,14.9-10.2,27.3-24,30.9V400H440z"/>
	<rect x="256" y="256" class="st1" width="16" height="64"/>
	<rect x="464" y="256" class="st1" width="16" height="64"/>
	<path class="st1" d="M432,256h-48v48h48V256z M416,288h-16v-16h16V288z"/>
	<path class="st1" d="M352,256h-48v48h48V256z M336,288h-16v-16h16V288z"/>
	<path class="st1" d="M152,112h-48v48h48V112z M136,144h-16v-16h16V144z"/>
	<path class="st1" d="M216,112h-48v48h48V112z M200,144h-16v-16h16V144z"/>
	<path class="st1" d="M88,112H40v48h48V112z M72,144H56v-16h16V144z"/>
	<path class="st1" d="M152,176h-48v48h48V176z M136,208h-16v-16h16V208z"/>
	<path class="st1" d="M216,176h-48v48h48V176z M200,208h-16v-16h16V208z"/>
	<path class="st1" d="M88,176H40v48h48V176z M72,208H56v-16h16V208z"/>
	<path class="st1" d="M152,240h-48v48h48V240z M136,272h-16v-16h16V272z"/>
	<path class="st1" d="M216,240h-48v48h48V240z M200,272h-16v-16h16V272z"/>
	<path class="st1" d="M40,288h48v-48H40V288z M56,256h16v16H56V256z"/>
	<path class="st1" d="M104,352h48v-48h-48V352z M120,320h16v16h-16V320z"/>
	<path class="st1" d="M168,352h48v-48h-48V352z M184,320h16v16h-16V320z"/>
	<path class="st1" d="M304,368h48v-48h-48V368z M320,336h16v16h-16V336z"/>
	<polygon class="st1" points="16,96 240,96 240,136 256,136 256,80 0,80 0,344 16,344 	"/>
	<path class="st1" d="M40,48h176v16h16V32h-16V0H40v32H24v32h16V48z M56,16h144v16H56V16z"/>
</g>
</svg>
