<?xml version="1.0" encoding="utf-8"?>
<!-- Generator: Adobe Illustrator 19.0.0, SVG Export Plug-In . SVG Version: 6.00 Build 0)  -->
<svg version="1.1" id="Layer_1" xmlns="http://www.w3.org/2000/svg" xmlns:xlink="http://www.w3.org/1999/xlink" x="0px" y="0px"
	 viewBox="0 0 482 482" style="enable-background:new 0 0 482 482;" xml:space="preserve">
<style type="text/css">
	.st0{clip-path:url(#SVGID_2_);fill:#dd1d26;}
	.st1{fill:#FFFFFF;}
</style>
<g>
	<defs>
		<rect id="SVGID_1_" width="482" height="482"/>
	</defs>
	<clipPath id="SVGID_2_">
		<use xlink:href="#SVGID_1_"  style="overflow:visible;"/>
	</clipPath>
	<path class="st0" d="M482,241c0,133.1-107.9,241-241,241S0,374.1,0,241C0,107.9,107.9,0,241,0S482,107.9,482,241"/>
</g>
<g>
	<path class="st1" d="M127.2,306.5c-11.7-7.2-20.8-17.6-27.4-31.4c-6.6-13.8-9.9-30.1-9.9-48.9c0-18.8,3.3-35.1,9.9-48.9
		c6.6-13.8,15.7-24.2,27.4-31.4c11.7-7.2,25-10.8,40-10.8c14.8,0,28.1,3.6,39.8,10.8c11.7,7.2,20.8,17.6,27.4,31.4
		c6.6,13.8,9.9,30.1,9.9,48.9c0,18.8-3.3,35.1-9.9,48.9c-6.6,13.8-15.7,24.2-27.4,31.4c-11.7,7.2-24.9,10.8-39.8,10.8
		C152.2,317.3,138.9,313.7,127.2,306.5z M187.1,264.6c4.9-8.1,7.4-20.9,7.4-38.4s-2.5-30.3-7.4-38.4c-4.9-8.1-11.5-12.1-19.9-12.1
		c-8.5,0-15.2,4-20.1,12.1c-4.9,8.1-7.4,20.9-7.4,38.4s2.5,30.3,7.4,38.4c4.9,8.1,11.6,12.1,20.1,12.1
		C175.6,276.8,182.2,272.7,187.1,264.6z"/>
	<path class="st1" d="M426.3,280.3h-26v33.5h-48.3v-33.5h-92.5V248L338,138.7h51.3L318,241h35.5v-29.8h46.8V241h26V280.3z"/>
</g>
</svg>
