<?xml version="1.0" encoding="utf-8"?>
<!-- Generator: Adobe Illustrator 19.0.0, SVG Export Plug-In . SVG Version: 6.00 Build 0)  -->
<svg version="1.1" id="Layer_1" xmlns="http://www.w3.org/2000/svg" xmlns:xlink="http://www.w3.org/1999/xlink" x="0px" y="0px"
	 viewBox="0 0 482 482" style="enable-background:new 0 0 482 482;" xml:space="preserve">
<style type="text/css">
	.st0{clip-path:url(#SVGID_2_);fill:#dd1d26;}
	.st1{clip-path:url(#SVGID_2_);fill:#FFFFFF;}
</style>
<g>
	<defs>
		<rect id="SVGID_1_" width="482" height="482"/>
	</defs>
	<clipPath id="SVGID_2_">
		<use xlink:href="#SVGID_1_"  style="overflow:visible;"/>
	</clipPath>
	<path class="st0" d="M482,241c0,133.1-107.9,241-241,241S0,374.1,0,241S107.9,0,241,0S482,107.9,482,241"/>
	<path class="st1" d="M378.8,137.4c1.8-3.4,0.8-15.8-16.9-25.9c-17.7-10.1-48.2-23.8-56.2-4.5c-8,19.3-21.7,64.6-25.5,75.6
		c-1.5,4.3-4.5,9.8-7.9,15.1c13.9-0.7,26.8,2.1,38,8.7c7.9,4.6,14.4,10.9,19.8,18.5c0.8-2.8,1.5-5.2,1.9-6.2
		c1.5-3.4,11.2-23.3,22.3-40C365.5,162,377,140.8,378.8,137.4"/>
	<path class="st1" d="M302.5,263.6c0,0,8.7-0.4,11.5-6c0,0,1.3-2.1,3.4-2.5c2.2-0.4,4.5-3.9,5.4-6.4c0.6-1.8,3.1-12.1,5-19.1
		c-5.4-7.6-12-13.9-19.8-18.5c-11.2-6.6-24.1-9.3-38-8.7c-5.3,8.4-11.3,16.3-13.1,18.5c-3.1,3.6-1.2,7.1-1.2,7.1s-5.2,8.2,2.3,15.1
		c0,0,5-11.8,28.6-2.1C310.1,250.7,302.5,263.6,302.5,263.6"/>
	<path class="st1" d="M170.3,348.8c-19.1,8.9-42.4,5.4-58.3,21.7c-2.4,2.5-2.4,7.2,1.3,8c35.9,7.6,50.5,7.9,87.8,3.2
		c16.7-2.1,23-9.7,17-9.2c-0.2,0-0.4,0-0.6,0.1l26.7-60.3c-1.3-1.9-1.4-5.1,0-8.1c1.9-4,5.6-6.2,8.4-4.9c2.8,1.3,3.5,5.6,1.6,9.6
		c-1.3,2.8-3.5,4.6-5.6,5.1l-28,62.7c0,0,1.9,1.4,4.5-2.3c2.6-3.8,22.2-28,46.2-35c0,0,4.1-1.2,5-3.6l25.6-75.5c0,0,1.1-9.3-14-16
		c-14.6-6.5-26.3-4.4-29.3,0.5c0,0-22.3,47.5-40.6,72.7c0,0-1.8,1.1,0,12.9c1.8,11.9,1.4,17-2.5,40.7c0,0-0.1,0.7,0,1.6
		c-30.5,2.8-61.5,8.6-91.2-0.3c17.2-11.1,41.3-8.1,58.7-20.3c2.4-1.7,2.1-5.8-0.3-7.4c-17.8-11.4-42.6-12.6-58.6-26.2
		c-22.8-19.3,14-29.8,26.3-42.2c6.3-6.4,7.2-13.4,1.1-19.8c-16.6-17.5-49.1-32.4-38.9-63.7c1.9-5.7-2.2,0.3-4.1,6
		c-6,18.3-2.2,33.3,12.3,46.4c8.5,7.7,34.3,19.6,14.4,32.5c-7.7,5-17.4,7.7-24.6,13.3C79.4,315.5,146,338.5,170.3,348.8"/>
</g>
</svg>
