<?xml version="1.0" encoding="utf-8"?>
<!-- Generator: Adobe Illustrator 19.0.0, SVG Export Plug-In . SVG Version: 6.00 Build 0)  -->
<svg version="1.1" id="Layer_1" xmlns="http://www.w3.org/2000/svg" xmlns:xlink="http://www.w3.org/1999/xlink" x="0px" y="0px"
	 viewBox="0 0 512 512" style="enable-background:new 0 0 512 512;" xml:space="preserve">
<style type="text/css">
	.st0{clip-path:url(#SVGID_2_);fill:#FFFFFF;}
</style>
<g>
	<defs>
		<rect id="SVGID_1_" width="512" height="512"/>
	</defs>
	<clipPath id="SVGID_2_">
		<use xlink:href="#SVGID_1_"  style="overflow:visible;"/>
	</clipPath>
	<path class="st0" d="M181,391h-60c-33.1,0-61-26.9-61-60v-15c0-24.9-20.1-45-45-45H0v60c0,66.2,54.8,120,121,120v61h120v-61
		C241,417.9,214.1,391,181,391"/>
	<path class="st0" d="M451,316v15c0,33.1-26.9,60-60,60h-60c-33.1,0-60,26.9-60,60v61h120v-61c66.2,0,121-53.8,121-120v-60h-15
		C472.1,271,451,291.1,451,316"/>
	<path class="st0" d="M181,301c24.9,0,45,20.1,45,45s-20.1,45-45,45s-45-20.1-45-45S156.1,301,181,301"/>
	<path class="st0" d="M331,301c24.9,0,45,20.1,45,45s-20.1,45-45,45c-24.9,0-45-20.1-45-45S306.1,301,331,301"/>
	<path class="st0" d="M226,61c8.3,0,15-6.7,15-15V0C156.9,7.6,91,79.9,91,166c0,15.6,2.3,30.7,6.4,45H136c8.3,0,15-6.7,15-15v-15h75
		c8.3,0,15-6.7,15-15s-6.7-15-15-15c-24.8,0-45-20.2-45-45C181,81.2,201.2,61,226,61"/>
	<path class="st0" d="M376,211h38.6c4.1-14.3,6.4-29.4,6.4-45c0-5.1-0.3-10.1-0.8-15H346c-8.3,0-15,6.7-15,15s6.7,15,15,15h15v15
		C361,204.3,367.7,211,376,211"/>
	<path class="st0" d="M331,271c15.1,0,29.2,4.6,41,12.3c12.4-12.3,22.8-26.6,30.8-42.3H376c-20.3,0-37.5-13.5-43.1-31.9
		c-18.5-5.6-31.9-22.8-31.9-43.1c0-24.8,20.2-45,45-45h68.6C396.3,56.4,339.8,6.2,271,0v46c0,24.8-20.2,45-45,45
		c-8.3,0-15,6.7-15,15s6.7,15,15,15c24.8,0,45,20.2,45,45c0,24.8-20.2,45-45,45h-47.6c-6.2,17.5-22.9,30-42.4,30h-26.8
		c8,15.7,18.4,30,30.8,42.3c11.8-7.7,25.8-12.3,41-12.3c36.2,0,66.5,25.8,73.5,59.9c0.5,0,1,0.1,1.5,0.1c0.5,0,1-0.1,1.5-0.1
		C264.5,296.8,294.8,271,331,271"/>
</g>
</svg>
