<?xml version="1.0" encoding="utf-8"?>
<!-- Generator: Adobe Illustrator 19.0.0, SVG Export Plug-In . SVG Version: 6.00 Build 0)  -->
<svg version="1.1" id="Layer_1" xmlns="http://www.w3.org/2000/svg" xmlns:xlink="http://www.w3.org/1999/xlink" x="0px" y="0px"
	 viewBox="0 0 60 138" style="enable-background:new 0 0 60 138;" xml:space="preserve">
<style type="text/css">
	.st0{fill:#FFFFFF;}
</style>
<g>
	<g>
		<path class="st0" d="M9.4,136.5c0-39.1,0-78.1,0-117.2c0-5.6,0-11.3,0-16.9c0-2.5-8-2.5-8,0c0,39.1,0,78.1,0,117.2
			c0,5.6,0,11.3,0,16.9C1.4,139,9.4,139,9.4,136.5L9.4,136.5z"/>
	</g>
	<g>
		<path class="st0" d="M34.4,115.5c0-26.8,0-53.5,0-80.3c0-3.9,0-7.8,0-11.7c0-2.5-8-2.5-8,0c0,26.8,0,53.5,0,80.3
			c0,3.9,0,7.8,0,11.7C26.4,117.9,34.4,117.9,34.4,115.5L34.4,115.5z"/>
	</g>
	<g>
		<path class="st0" d="M59.4,102.4c0-22,0-44,0-65.9c0-2.5-8-2.5-8,0c0,22,0,44,0,65.9C51.4,104.9,59.4,104.9,59.4,102.4L59.4,102.4
			z"/>
	</g>
</g>
</svg>
