<?xml version="1.0" encoding="utf-8"?>
<!-- Generator: Adobe Illustrator 19.0.0, SVG Export Plug-In . SVG Version: 6.00 Build 0)  -->
<svg version="1.1" id="Layer_1" xmlns="http://www.w3.org/2000/svg" xmlns:xlink="http://www.w3.org/1999/xlink" x="0px" y="0px"
	 viewBox="0 0 482 482" style="enable-background:new 0 0 482 482;" xml:space="preserve">
<style type="text/css">
	.st0{clip-path:url(#SVGID_2_);fill:#FFFFFF;}
	.st1{clip-path:url(#SVGID_2_);fill:#dd1d26;}
</style>
<g>
	<defs>
		<rect id="SVGID_1_" width="482" height="482"/>
	</defs>
	<clipPath id="SVGID_2_">
		<use xlink:href="#SVGID_1_"  style="overflow:visible;"/>
	</clipPath>
	<path class="st0" d="M482,241c0,133.1-107.9,241-241,241S0,374.1,0,241S107.9,0,241,0S482,107.9,482,241"/>
	<path class="st1" d="M412.3,386.6v-22.7c0-15.4-9-24.5-24.5-24.5H234c-20.8,0-31.5,9.8-31.5,24.5v29.5c0,15.3,10.3,22.9,31.5,22.9
		h153.8C403.3,416.3,412.3,406,412.3,386.6 M384.3,388.3H230.5v-21h153.8V388.3z"/>
	<path class="st1" d="M293.4,178.6v7v59.9v0l8.9,24h-15L141.1,65.7l-32.2,19.4l9.8,17.1v90.3h-10.3l6.9,48.9h3h0.3v14.8
		c-6.3,2.9-13.3,9-13.3,20c0,7.4,2.9,12.8,7.1,16.4l-37.9,32.7h10.7l33.6-28.9c3,1.2,6.3,1.8,9.5,1.8c3.2,0,6.4-0.9,9.3-2.4
		l36.4,29.5H185l0.1-0.1l-41.9-33.9c2.8-3.4,4.7-8,4.7-13.9c0-3.9-3.1-7-7-7c-3.9,0-7,3.1-7,7c0,2.5-0.7,4.1-1.6,5.1l-1.9-1.6
		c-1.3-1.1-3.2-1-4.5,0.1l-2.6,2.3c-2.3-1-4-3.1-4-7c0-6.3,6.3-7.9,7.5-8.1c3.4-0.6,5.8-3.5,5.8-6.9v-19.8h4.9h2.9l9.8-48.9h-7.1
		h-3.5v-50.7l83.9,161.5v1.1v2.1v4.9h28v14h97.9h7v-14h35h7V178.6H293.4z M233,214.9l0.1,0.1l-28.5,18.6l14.7-37.6L233,214.9z
		 M132.6,192.6h-3.5h-3.5v-77.1l7,13.2V192.6z M138.7,121.3l-12.1-22.9L145.5,86L138.7,121.3z M155.1,100.3l13.4,23.3l-21.6,13.9
		L155.1,100.3z M157.2,150.9l20.4-13.3l-8,36.3L157.2,150.9z M186.2,149.4l15,21.9l-22.6,14.5L186.2,149.4z M183.9,202.6l25.3-17.3
		l-14.4,38.5L183.9,202.6z M221.3,269.1l-12.2-21.5l30.3-21.6L221.3,269.1z M230.8,284.3l20.7-44.6l16.8,22.9L230.8,284.3z
		 M370.3,248.5h-48.9v-41.9h48.9V248.5z"/>
	<polygon class="st1" points="76.7,367.4 69.7,367.4 69.7,381.3 181.6,381.3 181.6,367.4 167.6,367.4 167.6,353.4 167.6,346.4 
		181.6,346.4 181.6,332.4 69.7,332.4 69.7,346.4 83.7,346.4 83.7,367.4 	"/>
</g>
</svg>
