<?xml version="1.0" encoding="utf-8"?>
<!-- Generator: Adobe Illustrator 19.0.0, SVG Export Plug-In . SVG Version: 6.00 Build 0)  -->
<svg version="1.1" id="Layer_1" xmlns="http://www.w3.org/2000/svg" xmlns:xlink="http://www.w3.org/1999/xlink" x="0px" y="0px"
	 viewBox="0 0 480 480" style="enable-background:new 0 0 480 480;" xml:space="preserve">
<style type="text/css">
	.st0{fill:#dd1d26;}
	.st1{fill:#FFFFFF;}
</style>
<circle id="XMLID_6_" class="st0" cx="240" cy="240.5" r="241"/>
<g id="XMLID_2_">
	<path id="XMLID_3_" class="st1" d="M297.4,348.8l-3.9,15.8c-11.6,4.6-20.8,8-27.7,10.4c-6.9,2.4-14.9,3.6-24,3.6
		c-14,0-24.9-3.4-32.7-10.3c-7.8-6.8-11.7-15.5-11.7-26c0-4.1,0.3-8.3,0.9-12.5c0.6-4.3,1.5-9.1,2.8-14.5l14.5-51.2
		c1.3-4.9,2.4-9.5,3.3-13.9c0.9-4.4,1.3-8.4,1.3-12c0-6.5-1.4-11.1-4-13.7c-2.7-2.6-7.8-3.9-15.5-3.9c-3.7,0-7.6,0.6-11.5,1.8
		c-3.9,1.2-7.3,2.3-10.1,3.3l3.9-15.8c9.5-3.9,18.5-7.2,27.2-9.9c8.7-2.7,16.9-4.1,24.6-4.1c13.9,0,24.7,3.4,32.2,10.1
		c7.5,6.7,11.3,15.5,11.3,26.2c0,2.2-0.2,6.1-0.8,11.7c-0.5,5.6-1.5,10.8-2.9,15.4l-14.4,51c-1.2,4.1-2.2,8.8-3.2,14
		c-1,5.2-1.4,9.2-1.4,11.9c0,6.8,1.5,11.4,4.5,13.9c3,2.5,8.3,3.7,15.8,3.7c3.5,0,7.5-0.6,11.9-1.8
		C292.1,350.8,295.4,349.7,297.4,348.8z M301,134.7c0,8.9-3.3,16.5-10.1,22.7c-6.7,6.3-14.8,9.4-24.3,9.4c-9.5,0-17.6-3.1-24.4-9.4
		c-6.8-6.2-10.2-13.8-10.2-22.7c0-8.9,3.4-16.5,10.2-22.8c6.8-6.3,14.9-9.5,24.4-9.5c9.5,0,17.5,3.2,24.3,9.5
		C297.7,118.2,301,125.8,301,134.7z"/>
</g>
</svg>
