<?xml version="1.0" encoding="utf-8"?>
<!-- Generator: Adobe Illustrator 19.0.0, SVG Export Plug-In . SVG Version: 6.00 Build 0)  -->
<svg version="1.1" id="Layer_1" xmlns="http://www.w3.org/2000/svg" xmlns:xlink="http://www.w3.org/1999/xlink" x="0px" y="0px"
	 viewBox="0 0 482 482" style="enable-background:new 0 0 482 482;" xml:space="preserve">
<style type="text/css">
	.st0{clip-path:url(#SVGID_2_);fill:#dd1d26;}
	.st1{fill:#FFFFFF;}
</style>
<g>
	<defs>
		<rect id="SVGID_1_" width="482" height="482"/>
	</defs>
	<clipPath id="SVGID_2_">
		<use xlink:href="#SVGID_1_"  style="overflow:visible;"/>
	</clipPath>
	<path class="st0" d="M482,241c0,133.1-107.9,241-241,241S0,374.1,0,241C0,107.9,107.9,0,241,0S482,107.9,482,241"/>
</g>
<g>
	<path class="st1" d="M127.2,306.5c-11.7-7.2-20.8-17.6-27.4-31.4c-6.6-13.8-9.9-30.1-9.9-48.9c0-18.8,3.3-35.1,9.9-48.9
		c6.6-13.8,15.7-24.2,27.4-31.4c11.7-7.2,25-10.8,40-10.8c14.8,0,28.1,3.6,39.8,10.8c11.7,7.2,20.8,17.6,27.4,31.4
		c6.6,13.8,9.9,30.1,9.9,48.9c0,18.8-3.3,35.1-9.9,48.9c-6.6,13.8-15.7,24.2-27.4,31.4c-11.7,7.2-24.9,10.8-39.8,10.8
		C152.2,317.3,138.9,313.7,127.2,306.5z M187.1,264.6c4.9-8.1,7.4-20.9,7.4-38.4s-2.5-30.3-7.4-38.4c-4.9-8.1-11.5-12.1-19.9-12.1
		c-8.5,0-15.2,4-20.1,12.1c-4.9,8.1-7.4,20.9-7.4,38.4s2.5,30.3,7.4,38.4c4.9,8.1,11.6,12.1,20.1,12.1
		C175.6,276.8,182.2,272.7,187.1,264.6z"/>
	<path class="st1" d="M394.8,274.5v39.3H258.5v-31l65.5-61.3c6.3-6,10.6-11.1,12.8-15.4c2.2-4.3,3.3-8.5,3.3-12.9
		c0-5.7-1.9-10.1-5.8-13.3c-3.8-3.2-9.4-4.8-16.8-4.8c-6.5,0-12.5,1.5-17.9,4.4c-5.4,2.9-9.9,7.1-13.4,12.6l-36.8-20.5
		c6.8-11.3,16.4-20.3,28.8-26.8c12.3-6.5,26.9-9.8,43.8-9.8c13.3,0,25.1,2.2,35.4,6.5c10.3,4.3,18.3,10.5,24,18.6
		c5.8,8.1,8.6,17.5,8.6,28.1c0,9.5-2,18.5-6.1,26.9c-4.1,8.4-12,18-23.6,28.6l-33,30.5H394.8z"/>
</g>
</svg>
