<?xml version="1.0" encoding="utf-8"?>
<!-- Generator: Adobe Illustrator 19.0.0, SVG Export Plug-In . SVG Version: 6.00 Build 0)  -->
<svg version="1.1" id="Layer_1" xmlns="http://www.w3.org/2000/svg" xmlns:xlink="http://www.w3.org/1999/xlink" x="0px" y="0px"
	 viewBox="0 0 95.3 79.6" style="enable-background:new 0 0 95.3 79.6;" xml:space="preserve">
<style type="text/css">
	.st0{clip-path:url(#SVGID_2_);fill:#dd1d26;}
</style>
<g>
	<defs>
		<rect id="SVGID_1_" y="0" width="95.3" height="79.6"/>
	</defs>
	<clipPath id="SVGID_2_">
		<use xlink:href="#SVGID_1_"  style="overflow:visible;"/>
	</clipPath>
	<path class="st0" d="M30.5,36.1c-2.3-0.7-4.7-1-7-1c-3.5,0-6.5,0.8-8.8,1.8c2.2-8.1,7.5-22,18-23.5c1-0.1,1.8-0.8,2-1.8l2.3-8.2
		c0.2-0.7,0.1-1.4-0.3-2s-1-1-1.8-1.1C34.3,0.1,33.5,0,32.7,0C20.1,0,7.6,13.2,2.3,32.1c-3.1,11.1-4,27.7,3.6,38.2
		c4.3,5.9,10.5,9,18.5,9.3c0,0,0.1,0,0.1,0c9.9,0,18.7-6.7,21.3-16.2c1.6-5.7,0.9-11.7-2-16.9C41,41.4,36.2,37.7,30.5,36.1"/>
	<path class="st0" d="M92.5,46.6c-2.9-5.1-7.6-8.8-13.3-10.5c-2.3-0.7-4.7-1-7-1c-3.5,0-6.5,0.8-8.8,1.8c2.2-8.1,7.5-22,18-23.5
		c1-0.1,1.8-0.9,2-1.8l2.3-8.2c0.2-0.7,0.1-1.4-0.3-2c-0.4-0.6-1-1-1.8-1.1C82.9,0.1,82.1,0,81.3,0C68.7,0,56.2,13.2,50.9,32.1
		c-3.1,11.1-4,27.7,3.6,38.2c4.3,5.9,10.5,9,18.5,9.3c0,0,0.1,0,0.1,0c9.9,0,18.7-6.7,21.3-16.2C96.1,57.7,95.4,51.7,92.5,46.6"/>
</g>
</svg>
