<?xml version="1.0" encoding="utf-8"?>
<!-- Generator: Adobe Illustrator 19.0.0, SVG Export Plug-In . SVG Version: 6.00 Build 0)  -->
<svg version="1.1" id="Layer_1" xmlns="http://www.w3.org/2000/svg" xmlns:xlink="http://www.w3.org/1999/xlink" x="0px" y="0px"
	 viewBox="0 0 480 480" style="enable-background:new 0 0 480 480;" xml:space="preserve">
<style type="text/css">
	.st0{fill:#dd1d26;}
	.st1{fill:#FFFFFF;}
</style>
<circle class="st0" cx="240" cy="240" r="241"/>
<g>
	<path class="st1" d="M212.7,241.5c1-1,2.3-1.5,3.7-1.5h25.9c2.9,0,5.2,2.3,5.2,5.2s-2.3,5.2-5.2,5.2h-23.8
		c-3.4,3.3-7.1,6.3-11.1,8.9c2.7,3.8,4,8.4,3.7,13.1c-0.3,5.5-2.9,10.7-7.1,14.3c4.7,4.1,7.3,10.1,7.1,16.3c20-0.3,29-6,32.6-9.7
		c2-2,5.3-2,7.3,0c2,2,2,5.3,0,7.3c-5.9,5.9-17.8,12.7-41.4,12.7c-0.6,0-1.2,0-1.8,0c-2.5,3.9-6.2,6.8-10.6,8.4
		c5.2,7.8,4.6,18.1-1.7,25.2v17.4h46.6c1.6,0,3.2,0.8,4.1,2.1l14,18.6h80.9l-56.7-85.1c-0.6-0.9-0.9-1.8-0.9-2.9v-29.8L264,227.9
		c-2.6-5.3-8-8.6-13.9-8.6h-51.9l-26.3,35.1C178.4,257.8,192.8,261.4,212.7,241.5L212.7,241.5z"/>
	<path class="st1" d="M185.3,219.3v-119c0-2.9-2.3-5.2-5.2-5.2c-2.9,0-5.2,2.3-5.2,5.2v119H185.3z"/>
	<path class="st1" d="M149.4,281.4h40.7c5.6,0,10.4-4.3,10.7-9.9c0.1-2.7-0.8-5.3-2.6-7.3c-4.8,2.1-10,3.2-15.3,3.3
		c-1.6,0-3.2-0.1-4.8-0.3c-5.6-0.8-10.9-3-15.4-6.4h-13.6c-5.7,0-10.4,4.6-10.3,10.4c0,0.2,0,0.3,0,0.5
		C139,277.1,143.8,281.4,149.4,281.4L149.4,281.4z"/>
	<path class="st1" d="M200.8,302.6c0.3-5.7-4.2-10.6-9.9-10.8c-0.2,0-0.3,0-0.5,0h-41.4c-5.7,0-10.4,4.7-10.4,10.4
		c0,0.2,0,0.3,0,0.5c0.3,5.6,5.1,9.9,10.7,9.9h40.7C195.7,312.5,200.6,308.2,200.8,302.6L200.8,302.6z"/>
	<path class="st1" d="M164.6,353.9h-10.4l7.8,10.4h2.6V353.9z"/>
	<path class="st1" d="M190.5,333.2c0-5.7-4.6-10.3-10.4-10.4h-31.1c-5.7,0-10.4,4.6-10.4,10.4c0,5.7,4.6,10.4,10.4,10.4h31.1
		C185.9,343.5,190.5,338.9,190.5,333.2z"/>
	<path class="st1" d="M149.1,250.4H162l15.5-20.7h-28.5c-5.7,0-10.4,4.6-10.4,10.4C138.7,245.7,143.4,250.4,149.1,250.4z"/>
	<path class="st1" d="M175,353.9v25.9c0,2.9,2.3,5.2,5.2,5.2c2.9,0,5.2-2.3,5.2-5.2v-26.5c-1.7,0.4-3.4,0.7-5.2,0.7H175z"/>
	<path class="st1" d="M299.9,149.4c11.1-18.5,27-29.4,36.3-34.6c-6.8-4.6-18.4-10.3-29.5-4.7c-23.4,11.7-50.4,21.4-72.7,4.7
		c-13.9-10.5-30.7-10.6-38.3-9.9v82.8c9-6.5,24-14.9,41.4-14.9C262.2,172.7,285.9,172.7,299.9,149.4z"/>
</g>
</svg>
