<?xml version="1.0" encoding="utf-8"?>
<!-- Generator: Adobe Illustrator 19.0.0, SVG Export Plug-In . SVG Version: 6.00 Build 0)  -->
<svg version="1.1" id="Layer_1" xmlns="http://www.w3.org/2000/svg" xmlns:xlink="http://www.w3.org/1999/xlink" x="0px" y="0px"
	 viewBox="0 0 512 427.2" style="enable-background:new 0 0 512 427.2;" xml:space="preserve">
<style type="text/css">
	.st0{clip-path:url(#SVGID_2_);fill:#FFFFFF;}
</style>
<g>
	<defs>
		<rect id="SVGID_1_" width="512" height="427.2"/>
	</defs>
	<clipPath id="SVGID_2_">
		<use xlink:href="#SVGID_1_"  style="overflow:visible;"/>
	</clipPath>
	<path class="st0" d="M76.2,267.1l39.5-39.5c8.2-8.2,19.1-12.7,30.6-12.7c22.9,0,41.6,17.7,43.2,40.1c21.4,1.5,38.5,18.6,40,40
		c21.4,1.5,38.5,18.6,40,40c10.4,0.7,20,5.1,27.5,12.6c2.1,2.1,18.7,20.3,18.7,20.3c5.1,5.1,13.5,5.2,18.7-0.1
		c4.8-4.8,5.6-13-0.2-19l-84.9-87.9c-2.9-3-4.3-6.9-4.2-10.7c0.1-13.3,16.4-20,25.8-10.3l84.8,87.8c2.5,2.5,5.8,3.8,9.3,3.8
		c11.4,0,18-13.9,9.2-22.9l-84.9-87.9c-5.8-6-5.6-15.5,0.4-21.2c6-5.8,15.5-5.6,21.2,0.4l84.8,87.8c5.2,5.1,13.5,5.1,18.7-0.1
		c4.8-4.8,5.6-13-0.2-19C311.9,163,341,192.8,285.3,136.6c-5.4-5.4-14.2-5.4-19.6,0.1l-39.2,39.2c-17.1,17.1-44.9,17.1-62.1,0
		l-19.6-19.6c-5.9-5.9-5.9-15.4,0-21.2l90.4-90.4c-8.9-8.8-10.8-10.6-14.8-13.9C167-13.4,88.5-9.6,39.4,39.5
		c-52.6,52.6-52.6,138.2,0,190.8C52.5,243.4,64.7,255.6,76.2,267.1"/>
	<path class="st0" d="M155.6,267.6c5.2-5.2,5.2-13.6,0-18.8c-5.2-5.2-13.6-5.2-18.8,0l-39.5,39.5l18.8,18.8
		C118.7,304.6,158.2,265.1,155.6,267.6z"/>
	<path class="st0" d="M195.7,307.6c5.2-5.2,5.2-13.6,0-18.8c-5.2-5.2-13.6-5.2-18.8,0c-1,1-37.9,37.9-39.5,39.5l18.8,18.8
		C158.7,344.6,198.2,305.1,195.7,307.6"/>
	<path class="st0" d="M235.7,347.6c5.2-5.2,5.2-13.6,0-18.8c-5.2-5.2-13.6-5.2-18.8,0c-1,1-37.9,37.9-39.5,39.5l18.8,18.8
		C198.7,384.6,238.2,345.1,235.7,347.6"/>
	<path class="st0" d="M472.6,39.5C423.5-9.6,345.8-13,292.7,29.7L176.8,145.6l9,9c5.4,5.4,14.2,5.4,19.6,0l39.2-39.2
		c17.1-17.1,45-17.1,62.1,0c58,58.6,24.2,23.9,129,132.4c3.4,3.4,6.1,7.3,8.1,11.3c9.1-9.1,18.7-18.7,28.9-28.9
		C525.1,177.7,525.1,92.1,472.6,39.5"/>
	<path class="st0" d="M279.6,378.3c0-11.8-14.4-17.7-22.7-9.4c-0.1,0.1-37,37-39.5,39.5c4.6,4.6,14.1,14.1,18.8,18.8l39.5-39.5
		C278.2,385.1,279.6,381.8,279.6,378.3"/>
</g>
</svg>
