<?xml version="1.0" encoding="utf-8"?>
<!-- Generator: Adobe Illustrator 19.0.0, SVG Export Plug-In . SVG Version: 6.00 Build 0)  -->
<svg version="1.1" id="Layer_1" xmlns="http://www.w3.org/2000/svg" xmlns:xlink="http://www.w3.org/1999/xlink" x="0px" y="0px"
	 viewBox="0 0 480 480" style="enable-background:new 0 0 480 480;" xml:space="preserve">
<style type="text/css">
	.st0{fill:#dd1d26;}
	.st1{fill:#FFFFFF;}
</style>
<circle class="st0" cx="240" cy="240" r="241"/>
<g>
	<path class="st1" d="M150.5,305.5c-11.7-7.2-20.8-17.6-27.4-31.4c-6.6-13.8-9.9-30.1-9.9-48.9c0-18.8,3.3-35.1,9.9-48.9
		c6.6-13.8,15.7-24.2,27.4-31.4c11.7-7.2,25-10.8,40-10.8c14.8,0,28.1,3.6,39.8,10.8c11.7,7.2,20.8,17.6,27.4,31.4
		c6.6,13.8,9.9,30.1,9.9,48.9c0,18.8-3.3,35.1-9.9,48.9c-6.6,13.8-15.7,24.2-27.4,31.4c-11.7,7.2-24.9,10.8-39.8,10.8
		C175.5,316.3,162.1,312.7,150.5,305.5z M210.4,263.6c4.9-8.1,7.4-20.9,7.4-38.4c0-17.5-2.5-30.3-7.4-38.4
		c-4.9-8.1-11.5-12.1-19.9-12.1c-8.5,0-15.2,4-20.1,12.1c-4.9,8.1-7.4,20.9-7.4,38.4c0,17.5,2.5,30.3,7.4,38.4
		c4.9,8.1,11.6,12.1,20.1,12.1C198.8,275.8,205.4,271.7,210.4,263.6z"/>
	<path class="st1" d="M357.6,137.7v175.1H308V176h-32.5v-38.3H357.6z"/>
</g>
</svg>
