<?xml version="1.0" encoding="utf-8"?>
<!-- Generator: Adobe Illustrator 19.0.0, SVG Export Plug-In . SVG Version: 6.00 Build 0)  -->
<svg version="1.1" id="Layer_1" xmlns="http://www.w3.org/2000/svg" xmlns:xlink="http://www.w3.org/1999/xlink" x="0px" y="0px"
	 viewBox="0 0 482 482" style="enable-background:new 0 0 482 482;" xml:space="preserve">
<style type="text/css">
	.st0{clip-path:url(#SVGID_2_);fill:#dd1d26;}
	.st1{clip-path:url(#SVGID_2_);fill:#FFFFFF;}
</style>
<g>
	<defs>
		<rect id="SVGID_1_" width="482" height="482"/>
	</defs>
	<clipPath id="SVGID_2_">
		<use xlink:href="#SVGID_1_"  style="overflow:visible;"/>
	</clipPath>
	<path class="st0" d="M482,241c0,133.1-107.9,241-241,241S0,374.1,0,241S107.9,0,241,0S482,107.9,482,241"/>
	<path class="st1" d="M310.7,153.1c0-6.3-2.4-12.2-6.9-16.6l-22.1-22.1c-4.4-4.4-10.6-6.9-16.8-6.9h-1.3v47h47.1V153.1z"/>
	<path class="st1" d="M250.4,268.9c1.5-4.5,4.1-8.8,7.5-12.2l53-52.8V170h-55c-4.3,0-7.6-3.5-7.6-7.8v-54.8H130.9
		c-12.9,0-23.5,10.5-23.5,23.5v220.2c0,12.9,10.5,23.5,23.5,23.5h156.3c12.9,0,23.7-10.5,23.7-23.5v-58.4l-8.6,8.4
		c-3.5,3.5-7.6,6-12.2,7.5l-24.9,8.3l-3.8,0.2c-6.3,0-12.2-3-15.9-8.2c-3.7-5.1-4.6-11.7-2.7-17.6L250.4,268.9z M146.6,248.3h78
		c4.3,0,7.8,3.5,7.8,7.8c0,4.3-3.5,7.8-7.8,7.8h-78c-4.3,0-7.8-3.5-7.8-7.8C138.7,251.8,142.2,248.3,146.6,248.3 M138.7,224.8
		c0-4.3,3.5-7.8,7.8-7.8h78c4.3,0,7.8,3.5,7.8,7.8c0,4.3-3.5,7.8-7.8,7.8h-78C142.2,232.7,138.7,229.2,138.7,224.8 M138.7,287.4
		c0-4.3,3.5-7.8,7.8-7.8h78c4.3,0,7.8,3.5,7.8,7.8c0,4.3-3.5,7.8-7.8,7.8h-78C142.2,295.3,138.7,291.8,138.7,287.4 M255.9,326.6
		c4.3,0,7.8,3.5,7.8,7.8c0,4.3-3.5,7.8-7.8,7.8h-47c-4.3,0-7.8-3.5-7.8-7.8c0-4.3,3.5-7.8,7.8-7.8H255.9z M146.6,201.4
		c-4.3,0-7.8-3.5-7.8-7.8c0-4.3,3.5-7.8,7.8-7.8h109.3c4.3,0,7.8,3.5,7.8,7.8c0,4.3-3.5,7.8-7.8,7.8H146.6z"/>
	<path class="st1" d="M264.5,275.9l-6.8,20.4c-1,3.1,1.9,6,5,4.9l20.4-6.8L264.5,275.9z"/>
	<path class="st1" d="M325.3,211.4L273.8,263l22.2,22.2c11.6-11.7,34.3-34.3,51.5-51.5L325.3,211.4z"/>
	<path class="st1" d="M370,189c-2.8-2.8-6.8-4.3-11.1-4.3s-8.3,1.6-11.1,4.4l-11.4,11.4l22.2,22.2l11.4-11.4
		C376.1,205.1,376.1,195.1,370,189"/>
	<polygon class="st1" points="370,211.2 370,211.2 370,211.2 	"/>
	<path class="st1" d="M370,211.2L370,211.2L370,211.2z"/>
	<path class="st1" d="M370.1,211.1C370.1,211,370.1,211,370.1,211.1"/>
</g>
</svg>
