<?xml version="1.0" encoding="utf-8"?>
<!-- Generator: Adobe Illustrator 24.3.0, SVG Export Plug-In . SVG Version: 6.00 Build 0)  -->
<svg version="1.1" id="Layer_1" xmlns="http://www.w3.org/2000/svg" xmlns:xlink="http://www.w3.org/1999/xlink" x="0px" y="0px"
	 viewBox="0 0 424.9 155.3" style="enable-background:new 0 0 424.9 155.3;" xml:space="preserve">
<style type="text/css">
	.st0{fill:#15559B;}
	.st1{fill:#D22A28;}
	.st2{fill:#FFFFFF;}
	.st3{enable-background:new    ;}
	.st4{fill:#1E71B8;}
	.st5{fill:#C6C6C6;}
	.st6{fill:#E94E1B;}
</style>
<g>
	<g>
		<path class="st0" d="M1788.1,1288.8c6.3,8.3,9.5,18.5,9.5,30.8c0,16.9-6.5,30-19.5,39.2s-31.9,13.8-56.8,13.8h-97v-195.1h91.4
			c23,0,40.8,4.5,53.2,13.5s18.7,21.4,18.7,37.2c0,9.7-2.2,18.2-6.7,25.6s-10.6,13.2-18.4,17.3
			C1773.3,1274.6,1781.8,1280.5,1788.1,1288.8z M1660.5,1205.9v53.8h51.3c12.6,0,22.3-2.3,29.1-6.8c6.8-4.6,10.2-11.2,10.2-19.9
			c0-8.9-3.4-15.7-10.2-20.2c-6.8-4.6-16.5-6.8-29.1-6.8L1660.5,1205.9L1660.5,1205.9z M1761.1,1315.9c0-18.8-14-28.1-42.1-28.1
			h-58.5v56.3h58.5C1747.1,1344.1,1761.1,1334.7,1761.1,1315.9z"/>
		<path class="st0" d="M1853.2,1368.9c-14-4.3-25.1-9.9-33.3-17l12.5-28.1c8,6.3,17.8,11.5,29.4,15.5s23.3,6,35,6
			c14.5,0,25.3-2.3,32.5-7c7.2-4.6,10.7-10.8,10.7-18.4c0-5.6-2-10.2-6-13.8c-4-3.6-9.1-6.4-15.2-8.5c-6.1-2-14.5-4.4-25.1-7
			c-14.9-3.5-26.9-7.1-36.1-10.6s-17.1-9.1-23.7-16.6s-9.9-17.7-9.9-30.5c0-10.8,2.9-20.6,8.8-29.4c5.8-8.8,14.7-15.8,26.5-21
			s26.2-7.8,43.3-7.8c11.9,0,23.6,1.5,35.1,4.5s21.5,7.2,29.8,12.8l-11.4,28.2c-8.6-5-17.5-8.8-26.8-11.4s-18.3-3.9-27-3.9
			c-14.3,0-24.9,2.4-31.9,7.2c-7,4.8-10.4,11.2-10.4,19.2c0,5.6,2,10.1,6,13.7c4,3.5,9.1,6.3,15.2,8.4s14.5,4.4,25.1,7
			c14.5,3.3,26.4,6.8,35.7,10.4s17.2,9.2,23.8,16.6c6.6,7.4,9.9,17.5,9.9,30.1c0,10.8-2.9,20.5-8.8,29.3s-14.7,15.7-26.6,20.9
			c-11.9,5.2-26.4,7.8-43.5,7.8C1881.8,1375.3,1867.2,1373.2,1853.2,1368.9z"/>
		<path class="st0" d="M2278.7,1362.3c-15.9-8.6-28.3-20.6-37.3-35.8c-9-15.2-13.5-32.4-13.5-51.6s4.6-36.3,13.6-51.6
			c9.1-15.2,21.6-27.2,37.5-35.8s33.7-13,53.4-13c16,0,30.6,2.8,43.8,8.4s24.3,13.7,33.4,24.2l-23.4,22
			c-14.1-15.2-31.5-22.8-52.1-22.8c-13.4,0-25.4,2.9-35.9,8.8s-18.9,14-24.8,24.4c-5.9,10.4-8.9,22.2-8.9,35.4c0,13.2,3,25,8.9,35.4
			s14.2,18.5,24.8,24.4s22.6,8.8,35.9,8.8c20.6,0,38-7.7,52.1-23.1l23.4,22.3c-9.1,10.6-20.3,18.7-33.6,24.2s-27.9,8.4-43.9,8.4
			C2312.4,1375.3,2294.6,1371,2278.7,1362.3z"/>
	</g>
	<g>
		<g>
			<polygon class="st0" points="2055.5,1336 2107.5,1366 2186.3,1320.5 2186.3,1229.5 2186.3,1229.5 2186.3,1209.8 2203.3,1219.6 
				2203.3,1330.3 2107.5,1385.7 2055.5,1355.7 2038.5,1345.8 2038.5,1326.2 			"/>
			<polygon class="st0" points="2055.5,1254.7 2063.9,1249.8 2063.9,1249.8 2107.5,1224.6 2132.9,1239.3 2151.1,1249.8 
				2151.1,1269.5 2132.9,1259 2132.9,1259 2107.5,1244.3 2082.1,1259 2080.9,1259.7 2080.9,1259.7 2063.9,1269.5 2055.5,1274.3 
				2055.5,1305 2107.5,1335 2151.1,1309.8 2159.5,1305 2159.5,1289.7 2159.5,1274.3 2159.5,1263.6 2159.5,1254.7 2159.5,1245 
				2159.5,1225.3 2159.5,1214 2159.5,1194.3 2176.5,1204.1 2176.5,1223.8 2176.5,1235.2 2176.5,1263.6 2176.5,1264.5 2176.5,1289.7 
				2176.5,1314.8 2107.5,1354.7 2055.5,1324.7 2038.5,1314.8 2038.5,1278.1 2038.5,1274.3 2038.5,1264.5 			"/>
			<polygon class="st0" points="2028.7,1209.8 2107.5,1164.3 2151.1,1189.5 2151.1,1209.1 2107.5,1184 2028.7,1229.5 2028.7,1229.5 
				2028.7,1240.8 2028.7,1255.4 2028.7,1320.5 2028.7,1320.5 2028.7,1340.2 2011.6,1330.3 2011.6,1219.6 			"/>
			<polygon class="st1" points="2107.5,1195.3 2151.1,1220.5 2151.1,1240.1 2107.5,1215 2064.1,1240 2055.5,1245 2055.5,1245 
				2038.5,1254.8 2038.5,1235.2 2038.5,1235.2 			"/>
		</g>
	</g>
</g>
<text transform="matrix(1 0 0 1 1624.2861 1436.0757)" class="st0" style="font-family:'CenturyGothic'; font-size:41.5609px;">Binh Duong S</text>
<text transform="matrix(1 0 0 1 1887.5962 1436.0757)" class="st0" style="font-family:'ArialMT'; font-size:41.5609px;">ervice and Industrial Dev. Corp.</text>
<g>
	<g>
		<path class="st2" d="M97.9,69c3.1,4,4.6,9,4.6,14.9c0,8.2-3.2,14.5-9.5,19s-15.5,6.7-27.6,6.7h-47V15h44.3
			c11.2,0,19.8,2.2,25.8,6.6s9.1,10.4,9.1,18c0,4.7-1.1,8.8-3.2,12.4c-2.2,3.6-5.1,6.4-8.9,8.4C90.7,62.2,94.9,65,97.9,69z M36,28.8
			v26.1h24.9c6.1,0,10.8-1.1,14.1-3.3c3.3-2.2,4.9-5.4,4.9-9.7s-1.7-7.6-4.9-9.8c-3.3-2.2-8-3.3-14.1-3.3C60.9,28.8,36,28.8,36,28.8
			z M84.8,82.2c0-9.1-6.8-13.7-20.4-13.7H36v27.3h28.4C78,95.9,84.8,91.3,84.8,82.2z"/>
		<path class="st2" d="M129.5,107.9c-6.8-2.1-12.2-4.8-16.2-8.2l6.1-13.7c3.9,3.1,8.6,5.6,14.3,7.5c5.6,1.9,11.3,2.9,17,2.9
			c7,0,12.3-1.1,15.8-3.4s5.2-5.2,5.2-8.9c0-2.7-1-4.9-2.9-6.7s-4.4-3.1-7.4-4.1s-7-2.1-12.2-3.4c-7.2-1.7-13.1-3.4-17.5-5.1
			c-4.5-1.7-8.3-4.4-11.5-8s-4.8-8.6-4.8-14.8c0-5.2,1.4-10,4.3-14.3c2.8-4.3,7.1-7.7,12.8-10.2c5.7-2.5,12.7-3.8,21-3.8
			c5.8,0,11.4,0.7,17,2.2s10.4,3.5,14.5,6.2l-5.5,13.6c-4.1-2.4-8.5-4.3-13-5.5s-8.9-1.9-13.1-1.9c-6.9,0-12.1,1.2-15.5,3.5
			s-5.1,5.5-5.1,9.3c0,2.7,1,4.9,2.9,6.6s4.4,3.1,7.4,4.1s7,2.1,12.2,3.4c7,1.6,12.8,3.3,17.3,5.1s8.4,4.4,11.6,8
			c3.2,3.6,4.8,8.5,4.8,14.6c0,5.2-1.4,10-4.3,14.2c-2.8,4.2-7.1,7.6-12.9,10.1S159,111,150.7,111C143.4,111,136.3,110,129.5,107.9z
			"/>
		<path class="st2" d="M335.9,104.7c-7.7-4.2-13.7-10-18.1-17.4s-6.6-15.7-6.6-25s2.2-17.6,6.6-25s10.5-13.2,18.2-17.4
			s16.3-6.3,25.9-6.3c7.8,0,14.8,1.4,21.2,4.1c6.4,2.7,11.8,6.6,16.2,11.8L388,40.2c-6.9-7.4-15.3-11.1-25.3-11.1
			c-6.5,0-12.3,1.4-17.4,4.3s-9.1,6.8-12,11.8S329,56,329,62.4s1.4,12.1,4.3,17.2c2.9,5.1,6.9,9,12,11.8s11,4.3,17.4,4.3
			c10,0,18.4-3.7,25.3-11.2l11.4,10.8c-4.4,5.1-9.9,9.1-16.3,11.8c-6.4,2.7-13.5,4.1-21.3,4.1C352.3,111,343.6,108.9,335.9,104.7z"
			/>
	</g>
	<g>
		<g>
			<polygon class="st2" points="227.6,91.9 252.9,106.5 291.1,84.4 291.1,40.2 291.1,40.2 291.1,30.7 299.4,35.5 299.4,89.2 
				252.9,116 227.6,101.5 219.4,96.7 219.4,87.2 			"/>
			<polygon class="st2" points="227.6,52.5 231.7,50.1 231.7,50.1 252.9,37.9 265.2,45 274,50.1 274,59.7 265.2,54.6 265.2,54.6 
				252.9,47.4 240.5,54.6 240,54.9 240,54.9 231.7,59.7 227.6,62 227.6,76.9 252.9,91.4 274,79.2 278.1,76.9 278.1,69.4 278.1,62 
				278.1,56.8 278.1,52.5 278.1,47.8 278.1,38.2 278.1,32.7 278.1,23.2 286.3,28 286.3,37.5 286.3,43 286.3,56.8 286.3,57.2 
				286.3,69.4 286.3,81.7 252.9,101 227.6,86.4 219.4,81.7 219.4,63.8 219.4,62 219.4,57.2 			"/>
			<polygon class="st2" points="214.6,30.7 252.9,8.6 274,20.9 274,30.4 252.9,18.2 214.6,40.2 214.6,40.2 214.6,45.8 214.6,52.8 
				214.6,84.4 214.6,84.4 214.6,94 206.4,89.2 206.4,35.5 			"/>
			<polygon class="st2" points="252.9,23.7 274,35.9 274,45.4 252.9,33.2 231.8,45.4 227.6,47.8 227.6,47.8 219.4,52.5 219.4,43 
				219.4,43 			"/>
		</g>
	</g>
</g>
<g class="st3">
	<path class="st2" d="M19.8,140.2v-13.6h5.1c1,0,1.9,0.1,2.5,0.4s1.1,0.7,1.5,1.3s0.5,1.2,0.5,1.8s-0.2,1.1-0.5,1.6
		s-0.8,0.9-1.4,1.2c0.8,0.2,1.5,0.7,1.9,1.2c0.4,0.6,0.7,1.3,0.7,2.1c0,0.6-0.1,1.2-0.4,1.8c-0.3,0.5-0.6,1-1,1.3s-0.9,0.5-1.5,0.7
		s-1.3,0.2-2.2,0.2L19.8,140.2L19.8,140.2z M21.6,132.3h2.9c0.8,0,1.4-0.1,1.7-0.2c0.5-0.1,0.8-0.4,1-0.7s0.3-0.7,0.3-1.2
		s-0.1-0.8-0.3-1.2c-0.2-0.3-0.5-0.6-0.9-0.7c-0.4-0.1-1.1-0.2-2.1-0.2h-2.7v4.2H21.6z M21.6,138.6H25c0.6,0,1,0,1.2-0.1
		c0.4-0.1,0.8-0.2,1-0.4c0.3-0.2,0.5-0.4,0.7-0.8c0.2-0.3,0.3-0.7,0.3-1.1c0-0.5-0.1-0.9-0.4-1.3c-0.3-0.4-0.6-0.6-1.1-0.8
		s-1.1-0.2-2-0.2h-3.1V138.6z"/>
	<path class="st2" d="M32.4,128.5v-1.9H34v1.9H32.4z M32.4,140.2v-9.8H34v9.8H32.4z"/>
	<path class="st2" d="M36.6,140.2v-9.8h1.5v1.4c0.7-1.1,1.8-1.6,3.1-1.6c0.6,0,1.1,0.1,1.6,0.3s0.9,0.5,1.1,0.8
		c0.2,0.3,0.4,0.8,0.5,1.2c0.1,0.3,0.1,0.8,0.1,1.6v6h-1.7v-6c0-0.7-0.1-1.2-0.2-1.5c-0.1-0.3-0.4-0.6-0.7-0.8s-0.7-0.3-1.2-0.3
		c-0.7,0-1.3,0.2-1.8,0.7s-0.8,1.3-0.8,2.6v5.4L36.6,140.2L36.6,140.2z"/>
	<path class="st2" d="M47.1,140.2v-13.6h1.7v4.9c0.8-0.9,1.8-1.4,2.9-1.4c0.7,0,1.4,0.1,1.9,0.4s0.9,0.7,1.2,1.2s0.3,1.2,0.3,2.2
		v6.2h-1.7v-6.2c0-0.8-0.2-1.4-0.5-1.8c-0.4-0.4-0.9-0.6-1.5-0.6c-0.5,0-1,0.1-1.4,0.4s-0.7,0.6-0.9,1s-0.3,1-0.3,1.8v5.4h-1.7
		V140.2z"/>
	<path class="st2" d="M63.1,140.2v-13.6h4.7c1.1,0,1.9,0.1,2.4,0.2c0.8,0.2,1.4,0.5,2,1c0.7,0.6,1.3,1.4,1.6,2.3
		c0.4,0.9,0.5,2,0.5,3.2c0,1-0.1,1.9-0.4,2.7c-0.2,0.8-0.5,1.5-0.9,2s-0.8,0.9-1.2,1.2c-0.4,0.3-1,0.5-1.6,0.7s-1.4,0.2-2.2,0.2
		h-4.9V140.2z M64.9,138.6h2.9c0.9,0,1.6-0.1,2.1-0.2c0.5-0.2,0.9-0.4,1.2-0.7c0.4-0.4,0.8-1,1-1.7s0.4-1.6,0.4-2.6
		c0-1.4-0.2-2.5-0.7-3.3s-1-1.3-1.7-1.5c-0.5-0.2-1.3-0.3-2.3-0.3h-2.9V138.6z"/>
	<path class="st2" d="M83,140.2v-1.4c-0.8,1.1-1.8,1.7-3.1,1.7c-0.6,0-1.1-0.1-1.6-0.3s-0.9-0.5-1.1-0.8s-0.4-0.7-0.5-1.2
		c-0.1-0.3-0.1-0.8-0.1-1.6v-6.1h1.7v5.4c0,0.9,0,1.5,0.1,1.8c0.1,0.4,0.3,0.8,0.7,1s0.8,0.4,1.3,0.4s1-0.1,1.4-0.4s0.7-0.6,0.9-1
		c0.2-0.4,0.3-1.1,0.3-1.9v-5.3h1.7v9.8L83,140.2L83,140.2z"/>
	<path class="st2" d="M86.5,135.2c0-1.8,0.5-3.2,1.5-4c0.8-0.7,1.9-1.1,3.1-1.1c1.4,0,2.5,0.4,3.3,1.3c0.9,0.9,1.3,2.1,1.3,3.7
		c0,1.3-0.2,2.3-0.6,3s-0.9,1.3-1.7,1.7c-0.7,0.4-1.5,0.6-2.4,0.6c-1.4,0-2.5-0.4-3.3-1.3C86.9,138.2,86.5,136.9,86.5,135.2z
		 M88.2,135.2c0,1.3,0.3,2.2,0.8,2.8s1.2,0.9,2.1,0.9c0.8,0,1.5-0.3,2.1-0.9c0.5-0.6,0.8-1.6,0.8-2.9c0-1.2-0.3-2.1-0.8-2.8
		c-0.6-0.6-1.2-0.9-2.1-0.9c-0.8,0-1.5,0.3-2.1,0.9C88.5,133,88.2,134,88.2,135.2z"/>
	<path class="st2" d="M97.7,140.2v-9.8h1.5v1.4c0.7-1.1,1.8-1.6,3.1-1.6c0.6,0,1.1,0.1,1.6,0.3s0.9,0.5,1.1,0.8s0.4,0.8,0.5,1.2
		c0.1,0.3,0.1,0.8,0.1,1.6v6H104v-6c0-0.7-0.1-1.2-0.2-1.5s-0.4-0.6-0.7-0.8c-0.3-0.2-0.7-0.3-1.2-0.3c-0.7,0-1.3,0.2-1.8,0.7
		s-0.8,1.3-0.8,2.6v5.4L97.7,140.2L97.7,140.2z"/>
	<path class="st2" d="M107.9,141l1.6,0.2c0.1,0.5,0.3,0.9,0.6,1.1c0.4,0.3,1,0.5,1.7,0.5c0.8,0,1.4-0.2,1.8-0.5s0.7-0.7,0.9-1.3
		c0.1-0.3,0.1-1.1,0.1-2.1c-0.7,0.9-1.6,1.3-2.7,1.3c-1.4,0-2.4-0.5-3.1-1.5s-1.1-2.1-1.1-3.5c0-0.9,0.2-1.8,0.5-2.6
		s0.8-1.4,1.5-1.8s1.4-0.6,2.3-0.6c1.2,0,2.1,0.5,2.9,1.4v-1.2h1.5v8.5c0,1.5-0.2,2.6-0.5,3.3s-0.8,1.1-1.5,1.5s-1.5,0.6-2.5,0.6
		c-1.2,0-2.1-0.3-2.8-0.8C108.2,142.8,107.9,142,107.9,141z M109.3,135.1c0,1.3,0.3,2.2,0.8,2.8s1.2,0.9,1.9,0.9
		c0.8,0,1.4-0.3,1.9-0.9c0.5-0.6,0.8-1.5,0.8-2.8c0-1.2-0.3-2.1-0.8-2.7c-0.5-0.6-1.2-0.9-1.9-0.9c-0.7,0-1.4,0.3-1.9,0.9
		S109.3,133.9,109.3,135.1z"/>
	<path class="st2" d="M123.6,135.8l1.7-0.1c0.1,0.7,0.3,1.2,0.6,1.7c0.3,0.4,0.7,0.8,1.4,1.1c0.6,0.3,1.3,0.4,2.1,0.4
		c0.7,0,1.3-0.1,1.8-0.3s0.9-0.5,1.2-0.8s0.4-0.7,0.4-1.2c0-0.4-0.1-0.8-0.4-1.1c-0.2-0.3-0.7-0.6-1.2-0.8c-0.4-0.1-1.2-0.4-2.4-0.7
		s-2.1-0.6-2.6-0.8c-0.6-0.3-1.1-0.8-1.4-1.3s-0.5-1.1-0.5-1.7c0-0.7,0.2-1.3,0.6-1.9c0.4-0.6,1-1,1.7-1.4c0.7-0.3,1.6-0.5,2.5-0.5
		c1,0,1.9,0.2,2.7,0.5s1.4,0.8,1.8,1.4c0.4,0.6,0.6,1.3,0.7,2.1l-1.7,0.1c-0.1-0.9-0.4-1.5-0.9-1.9s-1.3-0.7-2.4-0.7
		c-1.1,0-1.9,0.2-2.4,0.6c-0.5,0.4-0.7,0.9-0.7,1.4s0.2,0.9,0.5,1.2s1.2,0.6,2.7,1c1.5,0.3,2.5,0.6,3,0.9c0.8,0.4,1.4,0.8,1.7,1.4
		c0.4,0.6,0.6,1.2,0.6,1.9s-0.2,1.4-0.6,2c-0.4,0.6-1,1.1-1.8,1.5s-1.6,0.5-2.6,0.5c-1.2,0-2.3-0.2-3.1-0.5c-0.8-0.4-1.5-0.9-2-1.6
		C123.9,137.5,123.6,136.7,123.6,135.8z"/>
	<path class="st2" d="M143.4,137l1.7,0.2c-0.3,1-0.8,1.8-1.5,2.3c-0.7,0.6-1.7,0.8-2.8,0.8c-1.4,0-2.6-0.4-3.4-1.3
		c-0.8-0.9-1.3-2.1-1.3-3.7c0-1.7,0.4-2.9,1.3-3.8c0.9-0.9,2-1.4,3.3-1.4s2.4,0.4,3.2,1.3c0.8,0.9,1.2,2.2,1.2,3.8
		c0,0.1,0,0.2,0,0.4h-7.3c0.1,1.1,0.4,1.9,0.9,2.5s1.2,0.9,2.1,0.9c0.6,0,1.1-0.2,1.6-0.5C142.8,138.2,143.1,137.7,143.4,137z
		 M137.9,134.3h5.5c-0.1-0.8-0.3-1.4-0.6-1.9c-0.5-0.6-1.2-1-2.1-1c-0.8,0-1.4,0.3-1.9,0.8C138.2,132.8,138,133.4,137.9,134.3z"/>
	<path class="st2" d="M147.2,140.2v-9.8h1.5v1.5c0.4-0.7,0.7-1.2,1.1-1.4c0.3-0.2,0.7-0.3,1.1-0.3c0.6,0,1.1,0.2,1.7,0.5l-0.6,1.5
		c-0.4-0.2-0.8-0.4-1.2-0.4s-0.7,0.1-1,0.3s-0.5,0.5-0.6,0.9c-0.2,0.6-0.3,1.2-0.3,1.9v5.1h-1.7V140.2z"/>
	<path class="st2" d="M156.2,140.2l-3.7-9.8h1.8l2.1,5.9c0.2,0.6,0.4,1.3,0.6,2c0.1-0.5,0.4-1.1,0.6-1.9l2.2-6h1.7l-3.7,9.8H156.2z"
		/>
	<path class="st2" d="M163,128.5v-1.9h1.7v1.9H163z M163,140.2v-9.8h1.7v9.8H163z"/>
	<path class="st2" d="M173.6,136.6l1.6,0.2c-0.2,1.1-0.6,2-1.4,2.7s-1.6,1-2.7,1c-1.3,0-2.4-0.4-3.2-1.3s-1.2-2.1-1.2-3.8
		c0-1.1,0.2-2,0.5-2.8s0.9-1.4,1.6-1.8c0.7-0.4,1.5-0.6,2.3-0.6c1.1,0,1.9,0.3,2.6,0.8c0.7,0.5,1.1,1.3,1.3,2.3l-1.6,0.2
		c-0.2-0.7-0.4-1.2-0.8-1.5c-0.4-0.3-0.9-0.5-1.4-0.5c-0.8,0-1.5,0.3-2,0.9c-0.5,0.6-0.8,1.6-0.8,2.9c0,1.3,0.3,2.3,0.8,2.9
		s1.2,0.9,2,0.9c0.7,0,1.2-0.2,1.6-0.6C173.2,138,173.5,137.4,173.6,136.6z"/>
	<path class="st2" d="M183.4,137l1.7,0.2c-0.3,1-0.8,1.8-1.5,2.3c-0.7,0.6-1.7,0.8-2.8,0.8c-1.4,0-2.6-0.4-3.4-1.3
		c-0.8-0.9-1.3-2.1-1.3-3.7c0-1.7,0.4-2.9,1.3-3.8c0.9-0.9,2-1.4,3.3-1.4s2.4,0.4,3.2,1.3c0.8,0.9,1.2,2.2,1.2,3.8
		c0,0.1,0,0.2,0,0.4h-7.3c0.1,1.1,0.4,1.9,0.9,2.5s1.2,0.9,2.1,0.9c0.6,0,1.1-0.2,1.6-0.5C182.8,138.2,183.1,137.7,183.4,137z
		 M177.9,134.3h5.5c-0.1-0.8-0.3-1.4-0.6-1.9c-0.5-0.6-1.2-1-2.1-1c-0.8,0-1.4,0.3-1.9,0.8C178.3,132.8,178,133.4,177.9,134.3z"/>
	<path class="st2" d="M198.9,138.9c-0.6,0.5-1.2,0.9-1.8,1.1c-0.6,0.2-1.2,0.3-1.8,0.3c-1.1,0-1.9-0.3-2.5-0.8s-0.9-1.2-0.9-2
		c0-0.5,0.1-0.9,0.3-1.3c0.2-0.4,0.5-0.7,0.9-1c0.4-0.2,0.8-0.4,1.2-0.5c0.3-0.1,0.8-0.2,1.5-0.2c1.3-0.2,2.3-0.4,3-0.6
		c0-0.2,0-0.4,0-0.4c0-0.7-0.2-1.2-0.5-1.4c-0.4-0.4-1.1-0.6-1.9-0.6c-0.8,0-1.4,0.1-1.7,0.4c-0.4,0.3-0.6,0.8-0.8,1.5l-1.6-0.2
		c0.1-0.7,0.4-1.3,0.7-1.7s0.8-0.8,1.5-1c0.6-0.2,1.4-0.3,2.2-0.3s1.5,0.1,2,0.3s0.9,0.4,1.2,0.7c0.2,0.3,0.4,0.7,0.5,1.1
		c0.1,0.3,0.1,0.8,0.1,1.5v2.2c0,1.5,0,2.5,0.1,2.9s0.2,0.8,0.4,1.2h-1.7C199,139.8,198.9,139.4,198.9,138.9z M198.7,135.2
		c-0.6,0.2-1.5,0.5-2.7,0.6c-0.7,0.1-1.2,0.2-1.5,0.3s-0.5,0.3-0.7,0.5s-0.2,0.5-0.2,0.8c0,0.4,0.2,0.8,0.5,1.1s0.8,0.4,1.5,0.4
		c0.6,0,1.2-0.1,1.7-0.4c0.5-0.3,0.9-0.7,1.1-1.2c0.2-0.4,0.3-0.9,0.3-1.7L198.7,135.2L198.7,135.2z"/>
	<path class="st2" d="M203,140.2v-9.8h1.5v1.4c0.7-1.1,1.8-1.6,3.1-1.6c0.6,0,1.1,0.1,1.6,0.3s0.9,0.5,1.1,0.8
		c0.2,0.3,0.4,0.8,0.5,1.2c0.1,0.3,0.1,0.8,0.1,1.6v6h-1.7v-6c0-0.7-0.1-1.2-0.2-1.5c-0.1-0.3-0.4-0.6-0.7-0.8s-0.7-0.3-1.2-0.3
		c-0.7,0-1.3,0.2-1.8,0.7s-0.8,1.3-0.8,2.6v5.4L203,140.2L203,140.2z"/>
	<path class="st2" d="M219.9,140.2V139c-0.6,1-1.5,1.5-2.7,1.5c-0.8,0-1.5-0.2-2.2-0.6s-1.2-1-1.5-1.8c-0.4-0.8-0.5-1.7-0.5-2.7
		s0.2-1.9,0.5-2.7s0.8-1.4,1.5-1.8c0.7-0.4,1.4-0.6,2.2-0.6c0.6,0,1.1,0.1,1.6,0.4c0.5,0.2,0.8,0.6,1.1,1v-4.9h1.7v13.6h-1.7V140.2z
		 M214.6,135.2c0,1.3,0.3,2.2,0.8,2.8s1.2,0.9,1.9,0.9s1.3-0.3,1.9-0.9c0.5-0.6,0.8-1.5,0.8-2.7c0-1.3-0.3-2.3-0.8-3
		c-0.5-0.6-1.2-0.9-1.9-0.9s-1.4,0.3-1.9,0.9C214.9,133,214.6,133.9,214.6,135.2z"/>
	<path class="st2" d="M229.9,140.2v-13.6h1.8v13.6H229.9z"/>
	<path class="st2" d="M234.6,140.2v-9.8h1.5v1.4c0.7-1.1,1.8-1.6,3.1-1.6c0.6,0,1.1,0.1,1.6,0.3s0.9,0.5,1.1,0.8
		c0.2,0.3,0.4,0.8,0.5,1.2c0.1,0.3,0.1,0.8,0.1,1.6v6h-1.7v-6c0-0.7-0.1-1.2-0.2-1.5c-0.1-0.3-0.4-0.6-0.7-0.8s-0.7-0.3-1.2-0.3
		c-0.7,0-1.3,0.2-1.8,0.7s-0.8,1.3-0.8,2.6v5.4L234.6,140.2L234.6,140.2z"/>
	<path class="st2" d="M251.5,140.2V139c-0.6,1-1.5,1.5-2.7,1.5c-0.8,0-1.5-0.2-2.2-0.6s-1.2-1-1.5-1.8c-0.4-0.8-0.5-1.7-0.5-2.7
		s0.2-1.9,0.5-2.7s0.8-1.4,1.5-1.8c0.7-0.4,1.4-0.6,2.2-0.6c0.6,0,1.1,0.1,1.6,0.4c0.5,0.2,0.8,0.6,1.1,1v-4.9h1.7v13.6h-1.7V140.2z
		 M246.2,135.2c0,1.3,0.3,2.2,0.8,2.8s1.2,0.9,1.9,0.9s1.3-0.3,1.9-0.9c0.5-0.6,0.8-1.5,0.8-2.7c0-1.3-0.3-2.3-0.8-3
		c-0.5-0.6-1.2-0.9-1.9-0.9s-1.4,0.3-1.9,0.9C246.5,133,246.2,133.9,246.2,135.2z"/>
	<path class="st2" d="M262.1,140.2v-1.4c-0.8,1.1-1.8,1.7-3.1,1.7c-0.6,0-1.1-0.1-1.6-0.3s-0.9-0.5-1.1-0.8s-0.4-0.7-0.5-1.2
		c-0.1-0.3-0.1-0.8-0.1-1.6v-6.1h1.7v5.4c0,0.9,0,1.5,0.1,1.8c0.1,0.4,0.3,0.8,0.7,1s0.8,0.4,1.3,0.4s1-0.1,1.4-0.4
		c0.4-0.3,0.7-0.6,0.9-1s0.3-1.1,0.3-1.9v-5.3h1.7v9.8L262.1,140.2L262.1,140.2z"/>
	<path class="st2" d="M265.6,137.2l1.6-0.3c0.1,0.7,0.4,1.2,0.8,1.5c0.4,0.4,1,0.5,1.8,0.5s1.3-0.2,1.7-0.5s0.6-0.7,0.6-1.1
		c0-0.4-0.2-0.7-0.5-0.9c-0.2-0.1-0.8-0.3-1.7-0.6c-1.2-0.3-2.1-0.6-2.5-0.8c-0.5-0.2-0.8-0.5-1.1-0.9c-0.2-0.4-0.4-0.8-0.4-1.3
		c0-0.4,0.1-0.8,0.3-1.2s0.5-0.7,0.8-0.9s0.6-0.4,1.1-0.5s0.9-0.2,1.4-0.2c0.8,0,1.4,0.1,2,0.3s1,0.5,1.3,0.9s0.5,0.9,0.6,1.5
		l-1.6,0.2c-0.1-0.5-0.3-0.9-0.6-1.2c-0.4-0.3-0.9-0.4-1.5-0.4c-0.8,0-1.3,0.1-1.6,0.4s-0.5,0.5-0.5,0.9c0,0.2,0.1,0.4,0.2,0.6
		c0.1,0.2,0.3,0.3,0.6,0.4c0.2,0.1,0.7,0.2,1.5,0.4c1.2,0.3,2,0.6,2.5,0.8s0.8,0.5,1.1,0.9c0.3,0.4,0.4,0.9,0.4,1.4
		c0,0.6-0.2,1.1-0.5,1.6s-0.8,0.9-1.4,1.1c-0.6,0.3-1.3,0.4-2.1,0.4c-1.3,0-2.2-0.3-2.9-0.8C266.2,139,265.7,138.3,265.6,137.2z"/>
	<path class="st2" d="M279.3,138.7l0.2,1.5c-0.5,0.1-0.9,0.1-1.3,0.1c-0.6,0-1.1-0.1-1.4-0.3s-0.6-0.4-0.7-0.8s-0.2-1-0.2-2v-5.7
		h-1.2v-1.3h1.2v-2.4l1.7-1v3.4h1.7v1.3h-1.7v5.7c0,0.5,0,0.8,0.1,0.9s0.2,0.2,0.3,0.3c0.1,0.1,0.3,0.1,0.6,0.1
		C278.8,138.7,279,138.7,279.3,138.7z"/>
	<path class="st2" d="M280.9,140.2v-9.8h1.5v1.5c0.4-0.7,0.7-1.2,1.1-1.4c0.3-0.2,0.7-0.3,1.1-0.3c0.6,0,1.1,0.2,1.7,0.5l-0.6,1.5
		c-0.4-0.2-0.8-0.4-1.2-0.4c-0.4,0-0.7,0.1-1,0.3s-0.5,0.5-0.6,0.9c-0.2,0.6-0.3,1.2-0.3,1.9v5.1h-1.7V140.2z"/>
	<path class="st2" d="M287.3,128.5v-1.9h1.7v1.9H287.3z M287.3,140.2v-9.8h1.7v9.8H287.3z"/>
	<path class="st2" d="M297.9,138.9c-0.6,0.5-1.2,0.9-1.8,1.1s-1.2,0.3-1.8,0.3c-1.1,0-1.9-0.3-2.5-0.8s-0.9-1.2-0.9-2
		c0-0.5,0.1-0.9,0.3-1.3c0.2-0.4,0.5-0.7,0.9-1c0.4-0.2,0.8-0.4,1.2-0.5c0.3-0.1,0.8-0.2,1.5-0.2c1.3-0.2,2.3-0.4,3-0.6
		c0-0.2,0-0.4,0-0.4c0-0.7-0.2-1.2-0.5-1.4c-0.4-0.4-1.1-0.6-1.9-0.6s-1.4,0.1-1.7,0.4s-0.6,0.8-0.8,1.5l-1.6-0.2
		c0.1-0.7,0.4-1.3,0.7-1.7c0.3-0.4,0.8-0.8,1.5-1s1.4-0.3,2.2-0.3c0.8,0,1.5,0.1,2,0.3s0.9,0.4,1.2,0.7c0.2,0.3,0.4,0.7,0.5,1.1
		c0.1,0.3,0.1,0.8,0.1,1.5v2.2c0,1.5,0,2.5,0.1,2.9s0.2,0.8,0.4,1.2h-1.7C298,139.8,297.9,139.4,297.9,138.9z M297.8,135.2
		c-0.6,0.2-1.5,0.5-2.7,0.6c-0.7,0.1-1.2,0.2-1.5,0.3s-0.5,0.3-0.7,0.5s-0.2,0.5-0.2,0.8c0,0.4,0.2,0.8,0.5,1.1s0.8,0.4,1.5,0.4
		c0.6,0,1.2-0.1,1.7-0.4c0.5-0.3,0.9-0.7,1.1-1.2c0.2-0.4,0.3-0.9,0.3-1.7L297.8,135.2L297.8,135.2z"/>
	<path class="st2" d="M302,140.2v-13.6h1.7v13.6H302z"/>
	<path class="st2" d="M311.7,140.2v-13.6h4.7c1.1,0,1.9,0.1,2.4,0.2c0.8,0.2,1.4,0.5,2,1c0.7,0.6,1.2,1.4,1.6,2.3s0.5,2,0.5,3.2
		c0,1-0.1,1.9-0.4,2.7c-0.2,0.8-0.5,1.5-0.9,2s-0.8,0.9-1.2,1.2c-0.4,0.3-1,0.5-1.6,0.7s-1.4,0.2-2.2,0.2h-4.9V140.2z M313.5,138.6
		h2.9c0.9,0,1.6-0.1,2.1-0.2c0.5-0.2,0.9-0.4,1.2-0.7c0.4-0.4,0.8-1,1-1.7s0.4-1.6,0.4-2.6c0-1.4-0.2-2.5-0.7-3.3s-1-1.3-1.7-1.5
		c-0.5-0.2-1.3-0.3-2.3-0.3h-2.8v10.3H313.5z"/>
	<path class="st2" d="M331.9,137l1.7,0.2c-0.3,1-0.8,1.8-1.5,2.3c-0.7,0.6-1.7,0.8-2.8,0.8c-1.4,0-2.6-0.4-3.4-1.3
		c-0.8-0.9-1.3-2.1-1.3-3.7c0-1.7,0.4-2.9,1.3-3.8s2-1.4,3.3-1.4s2.4,0.4,3.2,1.3c0.8,0.9,1.2,2.2,1.2,3.8c0,0.1,0,0.2,0,0.4h-7.3
		c0.1,1.1,0.4,1.9,0.9,2.5s1.2,0.9,2.1,0.9c0.6,0,1.1-0.2,1.6-0.5C331.3,138.2,331.6,137.7,331.9,137z M326.4,134.3h5.5
		c-0.1-0.8-0.3-1.4-0.6-1.9c-0.5-0.6-1.2-1-2.1-1c-0.8,0-1.4,0.3-1.9,0.8C326.8,132.8,326.5,133.4,326.4,134.3z"/>
	<path class="st2" d="M338.4,140.2l-3.7-9.8h1.8l2.1,5.9c0.2,0.6,0.4,1.3,0.6,2c0.1-0.5,0.4-1.1,0.6-1.9l2.2-6h1.7l-3.7,9.8H338.4z"
		/>
	<path class="st2" d="M344.3,140.2v-1.9h1.9v1.9H344.3z"/>
	<path class="st2" d="M364.2,135.4l1.8,0.5c-0.4,1.5-1.1,2.6-2,3.4s-2.2,1.2-3.6,1.2c-1.5,0-2.7-0.3-3.6-0.9
		c-0.9-0.6-1.6-1.5-2.1-2.6s-0.7-2.3-0.7-3.6c0-1.4,0.3-2.6,0.8-3.7c0.5-1.1,1.3-1.9,2.3-2.4s2.1-0.8,3.3-0.8c1.4,0,2.5,0.3,3.4,1
		c0.9,0.7,1.6,1.7,1.9,2.9l-1.8,0.4c-0.3-1-0.8-1.7-1.4-2.2s-1.4-0.7-2.3-0.7c-1,0-1.9,0.2-2.6,0.7s-1.2,1.2-1.5,2s-0.4,1.7-0.4,2.6
		c0,1.2,0.2,2.2,0.5,3c0.3,0.9,0.9,1.5,1.6,1.9s1.5,0.6,2.3,0.6c1,0,1.9-0.3,2.6-0.9C363.5,137.4,364,136.5,364.2,135.4z"/>
	<path class="st2" d="M367.4,135.2c0-1.8,0.5-3.2,1.5-4c0.8-0.7,1.9-1.1,3.1-1.1c1.4,0,2.5,0.4,3.3,1.3c0.9,0.9,1.3,2.1,1.3,3.7
		c0,1.3-0.2,2.3-0.6,3s-0.9,1.3-1.7,1.7c-0.7,0.4-1.5,0.6-2.4,0.6c-1.4,0-2.5-0.4-3.3-1.3C367.8,138.2,367.4,136.9,367.4,135.2z
		 M369.1,135.2c0,1.3,0.3,2.2,0.8,2.8s1.2,0.9,2.1,0.9c0.8,0,1.5-0.3,2.1-0.9c0.5-0.6,0.8-1.6,0.8-2.9c0-1.2-0.3-2.1-0.8-2.8
		c-0.6-0.6-1.2-0.9-2.1-0.9c-0.8,0-1.5,0.3-2.1,0.9S369.1,134,369.1,135.2z"/>
	<path class="st2" d="M378.5,140.2v-9.8h1.5v1.5c0.4-0.7,0.7-1.2,1.1-1.4c0.3-0.2,0.7-0.3,1.1-0.3c0.6,0,1.1,0.2,1.7,0.5l-0.6,1.5
		c-0.4-0.2-0.8-0.4-1.2-0.4c-0.4,0-0.7,0.1-1,0.3s-0.5,0.5-0.6,0.9c-0.2,0.6-0.3,1.2-0.3,1.9v5.1h-1.7V140.2z"/>
	<path class="st2" d="M384.8,143.9v-13.6h1.5v1.3c0.4-0.5,0.8-0.9,1.2-1.1s1-0.4,1.6-0.4c0.8,0,1.6,0.2,2.2,0.6s1.1,1,1.5,1.8
		c0.3,0.8,0.5,1.6,0.5,2.6s-0.2,1.9-0.5,2.7c-0.4,0.8-0.9,1.4-1.6,1.9c-0.7,0.4-1.4,0.6-2.2,0.6c-0.6,0-1.1-0.1-1.5-0.4
		c-0.4-0.2-0.8-0.5-1.1-0.9v4.8L384.8,143.9L384.8,143.9z M386.4,135.3c0,1.3,0.3,2.2,0.8,2.8s1.1,0.9,1.9,0.9
		c0.7,0,1.4-0.3,1.9-0.9c0.5-0.6,0.8-1.6,0.8-2.9c0-1.3-0.3-2.2-0.8-2.8s-1.1-0.9-1.8-0.9c-0.7,0-1.3,0.3-1.9,1
		S386.4,134,386.4,135.3z"/>
	<path class="st2" d="M395.9,140.2v-1.9h1.9v1.9H395.9z"/>
</g>
<rect x="725.7" y="3278.7" class="st4" width="7072" height="3522.9"/>
<g>
	<g>
		<g>
			<path class="st2" d="M3749.4,5098.8c14.1,18.5,21.2,41.5,21.2,69c0,37.9-14.6,67.1-43.7,87.7c-29.1,20.6-71.6,30.9-127.3,30.9
				h-217.1v-436.8h204.6c51.6,0,91.3,10.1,119.2,30.3c27.9,20.2,41.8,47.9,41.8,83.3c0,21.6-5,40.8-15,57.4s-23.7,29.5-41.2,38.7
				C3716.2,5067,3735.3,5080.2,3749.4,5098.8z M3463.7,4913.1v120.4h114.8c28.3,0,50-5.1,65.2-15.3c15.2-10.2,22.8-25,22.8-44.6
				c0-20-7.6-35-22.8-45.2s-36.9-15.3-65.2-15.3H3463.7z M3688.9,5159.6c0-42-31.4-63-94.2-63h-131v126h131
				C3657.5,5222.6,3688.9,5201.6,3688.9,5159.6z"/>
			<path class="st2" d="M3895.1,5278.1c-31.4-9.6-56.3-22.2-74.6-38.1l28.1-63c17.9,14.1,39.8,25.7,65.8,34.6
				c26,9,52.1,13.4,78.3,13.4c32.4,0,56.7-5.2,72.7-15.6s24-24.1,24-41.2c0-12.5-4.5-22.8-13.4-30.9s-20.3-14.5-34-19
				c-13.7-4.6-32.4-9.8-56.1-15.6c-33.3-7.9-60.2-15.8-80.8-23.7c-20.6-7.9-38.3-20.3-53-37.1c-14.8-16.9-22.1-39.6-22.1-68.3
				c0-24.1,6.6-46.1,19.6-65.8c13.1-19.8,32.9-35.5,59.3-47.1c26.4-11.6,58.8-17.5,97-17.5c26.6,0,52.8,3.3,78.6,10
				s48,16.2,66.8,28.7l-25.6,63c-19.1-11.2-39.1-19.8-59.9-25.6c-20.8-5.8-41-8.7-60.5-8.7c-32,0-55.8,5.4-71.4,16.2
				c-15.6,10.8-23.4,25.2-23.4,43c0,12.5,4.5,22.7,13.4,30.6s20.3,14.1,34,18.7s32.4,9.8,56.1,15.6c32.4,7.5,59.1,15.3,79.9,23.4
				s38.6,20.5,53.4,37.1s22.1,39.1,22.1,67.4c0,24.1-6.5,46-19.6,65.5c-13.1,19.6-33,35.2-59.6,46.8c-26.6,11.6-59.1,17.5-97.3,17.5
				C3959.1,5292.5,3926.5,5287.7,3895.1,5278.1z"/>
			<path class="st2" d="M4847.9,5263.5c-35.6-19.3-63.4-46.1-83.6-80.2s-30.3-72.6-30.3-115.4s10.2-81.3,30.6-115.4
				s48.4-60.8,83.9-80.2c35.6-19.3,75.4-29,119.5-29c35.8,0,68.4,6.2,98,18.7c29.5,12.5,54.5,30.6,74.9,54.3l-52.4,49.3
				c-31.6-34.1-70.5-51.2-116.7-51.2c-30,0-56.8,6.5-80.5,19.6s-42.2,31.3-55.5,54.6c-13.3,23.3-20,49.7-20,79.2s6.6,56,20,79.2
				c13.3,23.3,31.8,41.5,55.5,54.6s50.5,19.6,80.5,19.6c46.2,0,85.1-17.3,116.7-51.8l52.4,49.9c-20.4,23.7-45.5,41.8-75.2,54.3
				s-62.5,18.7-98.3,18.7C4923.2,5292.5,4883.4,5282.8,4847.9,5263.5z"/>
		</g>
		<g>
			<g>
				<polygon class="st2" points="4348.1,5204.5 4464.5,5271.7 4641,5169.8 4641,4966 4641,4966 4641,4921.9 4679.1,4944 
					4679.1,5191.8 4464.5,5315.7 4348.1,5248.5 4310,5226.5 4310,5182.5 				"/>
				<polygon class="st2" points="4348.1,5022.3 4366.8,5011.5 4366.8,5011.5 4464.5,4955.1 4521.3,4988 4562.1,5011.5 
					4562.1,5055.5 4521.3,5032 4521.3,5032 4464.5,4999.2 4407.6,5032 4405,5033.5 4405,5033.5 4366.8,5055.5 4348.1,5066.4 
					4348.1,5135.1 4464.5,5202.3 4562.1,5145.9 4580.8,5135.1 4580.8,5100.7 4580.8,5066.4 4580.8,5042.4 4580.8,5022.3 
					4580.8,5000.7 4580.8,4956.6 4580.8,4931.2 4580.8,4887.2 4619,4909.2 4619,4953.3 4619,4978.7 4619,5042.4 4619,5044.3 
					4619,5100.7 4619,5157.1 4464.5,5246.3 4348.1,5179.1 4310,5157.1 4310,5074.8 4310,5066.4 4310,5044.3 				"/>
				<polygon class="st2" points="4288,4921.9 4464.5,4820 4562.1,4876.4 4562.1,4920.4 4464.5,4864.1 4288,4965.9 4288,4966 
					4288,4991.4 4288,5023.9 4288,5169.8 4288,5169.8 4288,5213.8 4249.8,5191.8 4249.8,4944 				"/>
				<polygon class="st5" points="4464.5,4889.5 4562.1,4945.8 4562.1,4989.8 4464.5,4933.5 4367.3,4989.5 4348.1,5000.7 
					4348.1,5000.7 4310,5022.7 4310,4978.7 4310,4978.7 				"/>
			</g>
		</g>
	</g>
	<text transform="matrix(1 0 0 1 3382.582 5405.5288)" class="st2" style="font-family:'CenturyGothic'; font-size:67.6905px;">Binh Duong S</text>
	<text transform="matrix(1 0 0 1 3811.4321 5405.5288)" class="st2" style="font-family:'ArialMT'; font-size:67.6905px;">ervice and Industrial Development Corporation</text>
</g>
<polygon class="st0" points="421.7,1453 -310.9,1453 -342.2,1453 -342.2,1367.6 -310.9,1367.6 515.6,1367.6 "/>
<polygon class="st0" points="5500,1319.4 5518.3,1337.7 5550,1337.7 5500,1287.7 5449.9,1337.7 5481.6,1337.7 "/>
<polygon class="st6" points="5502.9,1357.6 5534.6,1357.6 5550,1342.2 5518.3,1342.2 "/>
<polygon class="st6" points="5481.6,1342.2 5449.9,1342.2 5465.3,1357.6 5497,1357.6 "/>
<polygon class="st0" points="5613.4,1319.4 5631.7,1337.7 5663.4,1337.7 5613.4,1287.7 5563.3,1337.7 5595,1337.7 "/>
<polygon class="st6" points="5616.3,1357.6 5648,1357.6 5663.4,1342.2 5631.7,1342.2 "/>
<polygon class="st6" points="5595,1342.2 5563.3,1342.2 5578.7,1357.6 5610.4,1357.6 "/>
<polygon class="st0" points="5556.7,1262.7 5575,1281 5606.7,1281 5556.7,1231 5506.6,1281 5538.3,1281 "/>
<polygon class="st6" points="5559.6,1301 5591.3,1301 5606.7,1285.6 5575,1285.6 "/>
<polygon class="st6" points="5538.3,1285.6 5506.6,1285.6 5522,1301 5553.7,1301 "/>
<polygon class="st0" points="5699.8,1443 5556.7,1525.7 5339.5,1400.3 5339.5,1149.6 5339.5,1149.6 5339.5,1095.5 5292.6,1122.6 
	5292.6,1427.4 5556.7,1579.8 5699.8,1497.2 5746.7,1470.1 5746.7,1416 "/>
<polygon class="st0" points="5699.8,1219 5676.8,1205.7 5676.8,1205.7 5556.7,1136.3 5486.7,1176.7 5436.6,1205.7 5436.6,1259.8 
	5486.7,1230.9 5486.7,1230.9 5556.7,1190.5 5626.6,1230.9 5629.9,1232.7 5629.9,1232.7 5676.8,1259.8 5699.8,1273.1 5699.8,1357.6 
	5556.7,1440.3 5436.6,1371 5413.5,1357.6 5413.5,1315.4 5413.5,1273.1 5413.5,1243.6 5413.5,1219 5413.5,1192.3 5413.5,1138.2 
	5413.5,1106.9 5413.5,1052.8 5366.6,1079.9 5366.6,1134 5366.6,1165.3 5366.6,1243.6 5366.6,1246.1 5366.6,1315.4 5366.6,1384.7 
	5556.7,1494.4 5699.8,1411.8 5746.7,1384.7 5746.7,1283.6 5746.7,1273.1 5746.7,1246.1 "/>
<polygon class="st0" points="5773.7,1095.4 5556.7,970.1 5436.6,1039.5 5436.6,1093.6 5556.7,1024.3 5773.7,1149.6 5773.8,1149.6 
	5773.8,1180.9 5773.8,1220.9 5773.8,1400.3 5773.7,1400.4 5773.7,1454.5 5820.7,1427.4 5820.7,1122.6 "/>
<polygon class="st6" points="5556.7,1055.5 5436.6,1124.9 5436.6,1179 5556.7,1109.7 5676.1,1178.7 5699.8,1192.3 5699.8,1192.3 
	5746.7,1219.4 5746.7,1165.3 5746.7,1165.3 "/>
<g>
	<g>
		<path class="st0" d="M4147.4,2279.8c1,1.3,1.6,3,1.6,5c0,2.7-1,4.8-3.1,6.3s-5,2.2-8.9,2.2h-15V2262h14c3.6,0,6.3,0.7,8.3,2.1
			s2.9,3.4,2.9,5.9c0,1.6-0.4,3.1-1.1,4.2c-0.8,1.2-1.8,2.1-3.1,2.7C4144.9,2277.5,4146.3,2278.4,4147.4,2279.8z M4126.5,2265.6v10
			h9.2c2.3,0,4.1-0.4,5.3-1.3c1.2-0.9,1.9-2.1,1.9-3.7s-0.6-2.9-1.9-3.7c-1.2-0.9-3-1.3-5.3-1.3H4126.5L4126.5,2265.6z
			 M4142.5,2288.4c1.3-0.8,1.9-2.1,1.9-3.9c0-3.5-2.5-5.2-7.6-5.2h-10.3v10.4h10.3C4139.3,2289.6,4141.2,2289.2,4142.5,2288.4z"/>
		<path class="st0" d="M4177.3,2269.6v23.7h-4.1v-3.6c-0.9,1.2-2,2.2-3.4,2.8c-1.4,0.7-3,1-4.6,1c-3.2,0-5.6-0.9-7.5-2.6
			c-1.8-1.7-2.7-4.3-2.7-7.7v-13.6h4.3v13.1c0,2.3,0.5,4,1.6,5.2s2.7,1.8,4.7,1.8c2.3,0,4-0.7,5.4-2.1s2-3.3,2-5.8v-12.2
			L4177.3,2269.6L4177.3,2269.6z"/>
		<path class="st0" d="M4185.6,2264.2c-0.5-0.5-0.8-1.2-0.8-2s0.3-1.4,0.8-2s1.2-0.8,2.1-0.8s1.5,0.3,2.1,0.8
			c0.5,0.5,0.8,1.2,0.8,1.9c0,0.8-0.3,1.5-0.8,2c-0.5,0.6-1.2,0.8-2.1,0.8S4186.1,2264.7,4185.6,2264.2z M4185.5,2269.6h4.3v23.7
			h-4.3V2269.6z"/>
		<path class="st0" d="M4198,2260.1h4.3v33.2h-4.3V2260.1z"/>
		<path class="st0" d="M4232.8,2260.1v33.2h-4.1v-3.8c-1,1.3-2.2,2.3-3.6,3c-1.5,0.7-3.1,1-4.8,1c-2.3,0-4.4-0.5-6.2-1.5
			s-3.2-2.4-4.3-4.3s-1.5-3.9-1.5-6.3c0-2.4,0.5-4.5,1.5-6.3s2.5-3.2,4.3-4.2s3.9-1.5,6.2-1.5c1.7,0,3.3,0.3,4.7,1s2.6,1.6,3.6,2.8
			v-13.1L4232.8,2260.1L4232.8,2260.1z M4224.7,2288.7c1.2-0.7,2.2-1.7,2.9-2.9c0.7-1.3,1-2.7,1-4.4c0-1.6-0.3-3.1-1-4.4
			s-1.6-2.2-2.9-2.9c-1.2-0.7-2.6-1-4.1-1s-2.9,0.3-4.1,1s-2.2,1.7-2.9,2.9c-0.7,1.3-1,2.7-1,4.4c0,1.6,0.4,3.1,1,4.4
			c0.7,1.3,1.6,2.2,2.9,2.9s2.6,1.1,4.1,1.1S4223.4,2289.4,4224.7,2288.7z"/>
		<path class="st0" d="M4241,2264.2c-0.5-0.5-0.8-1.2-0.8-2s0.3-1.4,0.8-2s1.2-0.8,2.1-0.8s1.5,0.3,2.1,0.8c0.5,0.5,0.8,1.2,0.8,1.9
			c0,0.8-0.3,1.5-0.8,2c-0.5,0.6-1.2,0.8-2.1,0.8S4241.5,2264.7,4241,2264.2z M4240.9,2269.6h4.3v23.7h-4.3V2269.6z"/>
		<path class="st0" d="M4273.2,2271.9c1.8,1.7,2.7,4.3,2.7,7.7v13.6h-4.3v-13.1c0-2.3-0.5-4-1.6-5.2s-2.7-1.7-4.7-1.7
			c-2.3,0-4.2,0.7-5.5,2c-1.3,1.4-2,3.3-2,5.8v12.2h-4.3v-23.7h4.1v3.6c0.9-1.2,2-2.2,3.5-2.8c1.5-0.7,3.1-1,5-1
			C4269.1,2269.3,4271.5,2270.2,4273.2,2271.9z"/>
		<path class="st0" d="M4306.6,2269.6v20.5c0,4.1-1,7.2-3.1,9.2s-5.1,3-9.2,3c-2.2,0-4.4-0.3-6.4-0.9c-2-0.6-3.7-1.5-4.9-2.6
			l2.1-3.3c1.1,0.9,2.5,1.7,4.1,2.3s3.3,0.8,5,0.8c2.8,0,4.8-0.7,6.1-2c1.3-1.3,2-3.3,2-6v-1.9c-1,1.2-2.3,2.1-3.7,2.8
			s-3.1,0.9-4.8,0.9c-2.3,0-4.3-0.5-6.1-1.4c-1.8-1-3.3-2.3-4.3-4.1c-1-1.7-1.6-3.7-1.6-6s0.5-4.2,1.6-6c1-1.7,2.5-3.1,4.3-4
			s3.9-1.4,6.1-1.4c1.8,0,3.5,0.3,5,1s2.8,1.6,3.8,2.9v-3.7h4V2269.6z M4298.5,2287.5c1.2-0.7,2.2-1.6,2.9-2.8c0.7-1.2,1-2.5,1-4
			c0-2.3-0.8-4.1-2.3-5.6c-1.5-1.4-3.5-2.1-5.9-2.1s-4.4,0.7-5.9,2.1c-1.5,1.4-2.3,3.3-2.3,5.6c0,1.5,0.4,2.8,1,4
			c0.7,1.2,1.7,2.1,2.9,2.8c1.2,0.7,2.6,1,4.2,1C4295.8,2288.5,4297.2,2288.2,4298.5,2287.5z"/>
		<path class="st0" d="M4333.7,2265.9H4323v-3.9h25.9v3.9h-10.7v27.4h-4.4L4333.7,2265.9L4333.7,2265.9z"/>
		<path class="st0" d="M4354.4,2291.9c-1.9-1-3.4-2.5-4.4-4.3c-1.1-1.8-1.6-3.9-1.6-6.2s0.5-4.4,1.6-6.2s2.5-3.3,4.4-4.3
			s4-1.5,6.4-1.5s4.5,0.5,6.3,1.5s3.3,2.5,4.4,4.3s1.6,3.9,1.6,6.2s-0.5,4.4-1.6,6.2s-2.5,3.3-4.4,4.3s-4,1.6-6.3,1.6
			C4358.4,2293.5,4356.3,2293,4354.4,2291.9z M4364.9,2288.7c1.2-0.7,2.1-1.7,2.8-2.9s1-2.7,1-4.4c0-1.6-0.3-3.1-1-4.4
			s-1.6-2.2-2.8-2.9s-2.6-1-4.1-1s-2.9,0.3-4.1,1s-2.2,1.7-2.9,2.9c-0.7,1.3-1,2.7-1,4.4c0,1.6,0.4,3.1,1,4.4
			c0.7,1.3,1.6,2.2,2.9,2.9s2.6,1.1,4.1,1.1S4363.6,2289.4,4364.9,2288.7z"/>
		<path class="st0" d="M4415.7,2271.9c1.7,1.7,2.6,4.3,2.6,7.7v13.6h-4.3v-13.1c0-2.3-0.5-4-1.6-5.2s-2.6-1.7-4.5-1.7
			c-2.2,0-3.9,0.7-5.2,2c-1.3,1.4-1.9,3.3-1.9,5.8v12.2h-4.3v-13.1c0-2.3-0.5-4-1.6-5.2s-2.6-1.7-4.5-1.7c-2.2,0-3.9,0.7-5.2,2
			c-1.3,1.4-1.9,3.3-1.9,5.8v12.2h-4.3v-23.7h4.1v3.5c0.9-1.2,2-2.1,3.4-2.8c1.4-0.6,3-1,4.8-1c1.9,0,3.5,0.4,4.9,1.1
			c1.4,0.8,2.5,1.8,3.3,3.3c0.9-1.4,2.1-2.4,3.7-3.2s3.4-1.2,5.4-1.2C4411.6,2269.3,4414,2270.2,4415.7,2271.9z"/>
		<path class="st0" d="M4430.2,2291.9c-1.9-1-3.4-2.5-4.4-4.3c-1.1-1.8-1.6-3.9-1.6-6.2s0.5-4.4,1.6-6.2s2.5-3.3,4.4-4.3
			s4-1.5,6.4-1.5s4.5,0.5,6.3,1.5s3.3,2.5,4.4,4.3s1.6,3.9,1.6,6.2s-0.5,4.4-1.6,6.2s-2.5,3.3-4.4,4.3s-4,1.6-6.3,1.6
			C4434.2,2293.5,4432,2293,4430.2,2291.9z M4440.6,2288.7c1.2-0.7,2.1-1.7,2.8-2.9c0.7-1.3,1-2.7,1-4.4c0-1.6-0.3-3.1-1-4.4
			s-1.6-2.2-2.8-2.9s-2.6-1-4.1-1s-2.9,0.3-4.1,1s-2.2,1.7-2.9,2.9c-0.7,1.3-1,2.7-1,4.4c0,1.6,0.4,3.1,1,4.4
			c0.7,1.3,1.6,2.2,2.9,2.9s2.6,1.1,4.1,1.1S4439.4,2289.4,4440.6,2288.7z"/>
		<path class="st0" d="M4462.2,2270.4c1.5-0.7,3.2-1.1,5.3-1.1v4.2c-0.2,0-0.6,0-1,0c-2.3,0-4.1,0.7-5.5,2.1s-2,3.4-2,5.9v11.8h-4.3
			v-23.7h4.1v4C4459.6,2272.2,4460.7,2271.1,4462.2,2270.4z"/>
		<path class="st0" d="M4480.2,2270.4c1.5-0.7,3.2-1.1,5.3-1.1v4.2c-0.2,0-0.6,0-1,0c-2.3,0-4.1,0.7-5.5,2.1s-2,3.4-2,5.9v11.8h-4.3
			v-23.7h4.1v4C4477.6,2272.2,4478.7,2271.1,4480.2,2270.4z"/>
		<path class="st0" d="M4494.4,2291.9c-1.9-1-3.4-2.5-4.4-4.3c-1.1-1.8-1.6-3.9-1.6-6.2s0.5-4.4,1.6-6.2s2.5-3.3,4.4-4.3
			s4-1.5,6.4-1.5s4.5,0.5,6.3,1.5s3.3,2.5,4.4,4.3s1.6,3.9,1.6,6.2s-0.5,4.4-1.6,6.2s-2.5,3.3-4.4,4.3s-4,1.6-6.3,1.6
			C4498.4,2293.5,4496.2,2293,4494.4,2291.9z M4504.8,2288.7c1.2-0.7,2.1-1.7,2.8-2.9c0.7-1.3,1-2.7,1-4.4c0-1.6-0.3-3.1-1-4.4
			s-1.6-2.2-2.8-2.9s-2.6-1-4.1-1s-2.9,0.3-4.1,1s-2.2,1.7-2.9,2.9c-0.7,1.3-1,2.7-1,4.4c0,1.6,0.4,3.1,1,4.4
			c0.7,1.3,1.6,2.2,2.9,2.9s2.6,1.1,4.1,1.1S4503.6,2289.4,4504.8,2288.7z"/>
		<path class="st0" d="M4554.1,2269.6l-8.9,23.7h-4.1l-6.8-18l-6.9,18h-4.1l-8.8-23.7h4.1l6.9,18.9l7.1-18.9h3.6l7,18.9l7.1-18.9
			H4554.1z"/>
		<path class="st0" d="M4557.2,2262h3.8l-0.3,12.1h-3.2L4557.2,2262z"/>
		<path class="st0" d="M4569,2292.7c-1.8-0.5-3.2-1.2-4.2-2l1.8-3.4c1,0.8,2.3,1.3,3.8,1.8c1.5,0.4,3,0.7,4.5,0.7
			c3.8,0,5.6-1.1,5.6-3.2c0-0.7-0.2-1.3-0.8-1.7s-1.1-0.7-1.9-0.9s-1.8-0.4-3.2-0.6c-1.9-0.3-3.5-0.6-4.7-1s-2.2-1-3.1-2
			c-0.9-0.9-1.3-2.2-1.3-3.9c0-2.1,0.9-3.9,2.7-5.2c1.8-1.3,4.2-1.9,7.2-1.9c1.6,0,3.2,0.2,4.7,0.6c1.6,0.4,2.9,0.9,3.9,1.6
			l-1.8,3.4c-1.9-1.2-4.2-1.9-6.8-1.9c-1.8,0-3.2,0.3-4.2,0.9c-1,0.6-1.4,1.4-1.4,2.4c0,0.8,0.3,1.4,0.8,1.8c0.5,0.4,1.2,0.8,2,1
			s1.9,0.4,3.3,0.7c1.9,0.3,3.5,0.7,4.6,1.1c1.2,0.4,2.2,1,3,1.9s1.2,2.1,1.2,3.8c0,2.1-0.9,3.9-2.8,5.1s-4.3,1.9-7.5,1.9
			C4572.7,2293.5,4570.8,2293.3,4569,2292.7z"/>
		<path class="st0" d="M4602.9,2262h13.2c3.3,0,6.2,0.7,8.8,2c2.6,1.3,4.5,3.1,6,5.5c1.4,2.4,2.1,5.1,2.1,8.2c0,3.1-0.7,5.8-2.1,8.2
			s-3.4,4.2-6,5.5s-5.5,2-8.8,2h-13.2V2262z M4615.8,2289.4c2.5,0,4.8-0.5,6.7-1.5c1.9-1,3.4-2.4,4.5-4.1c1-1.8,1.6-3.8,1.6-6.1
			s-0.5-4.4-1.6-6.1c-1-1.8-2.5-3.1-4.5-4.1c-1.9-1-4.1-1.5-6.7-1.5h-8.5v23.5L4615.8,2289.4L4615.8,2289.4z"/>
		<path class="st0" d="M4660.5,2282.8h-19.2c0.3,2.1,1.2,3.8,2.8,5c1.6,1.3,3.5,1.9,5.8,1.9c2.8,0,5.1-0.9,6.8-2.9l2.4,2.8
			c-1.1,1.2-2.4,2.2-4,2.9s-3.4,1-5.3,1c-2.5,0-4.7-0.5-6.7-1.5s-3.4-2.5-4.5-4.3c-1.1-1.9-1.6-3.9-1.6-6.3c0-2.3,0.5-4.4,1.5-6.2
			c1-1.9,2.4-3.3,4.2-4.3c1.8-1,3.8-1.5,6.1-1.5c2.3,0,4.3,0.5,6.1,1.5c1.8,1,3.2,2.5,4.2,4.3c1,1.9,1.5,4,1.5,6.4
			C4660.6,2281.9,4660.6,2282.3,4660.5,2282.8z M4643.7,2274.8c-1.4,1.2-2.2,2.9-2.4,4.9h15.2c-0.2-2-1-3.6-2.4-4.9
			c-1.4-1.3-3.1-1.9-5.2-1.9C4646.8,2273,4645.1,2273.6,4643.7,2274.8z"/>
		<path class="st0" d="M4667.7,2292.7c-1.8-0.5-3.2-1.2-4.2-2l1.8-3.4c1,0.8,2.3,1.3,3.8,1.8c1.5,0.4,3,0.7,4.5,0.7
			c3.8,0,5.6-1.1,5.6-3.2c0-0.7-0.2-1.3-0.8-1.7s-1.1-0.7-1.9-0.9s-1.8-0.4-3.2-0.6c-1.9-0.3-3.5-0.6-4.7-1s-2.2-1-3.1-2
			c-0.9-0.9-1.3-2.2-1.3-3.9c0-2.1,0.9-3.9,2.7-5.2c1.8-1.3,4.2-1.9,7.2-1.9c1.6,0,3.2,0.2,4.7,0.6c1.6,0.4,2.9,0.9,3.9,1.6
			l-1.8,3.4c-1.9-1.2-4.2-1.9-6.8-1.9c-1.8,0-3.2,0.3-4.2,0.9c-1,0.6-1.4,1.4-1.4,2.4c0,0.8,0.3,1.4,0.8,1.8s1.2,0.8,2,1
			s1.9,0.4,3.3,0.7c1.9,0.3,3.5,0.7,4.6,1.1c1.2,0.4,2.2,1,3,1.9s1.2,2.1,1.2,3.8c0,2.1-0.9,3.9-2.8,5.1s-4.3,1.9-7.5,1.9
			C4671.4,2293.5,4669.5,2293.3,4667.7,2292.7z"/>
		<path class="st0" d="M4702.2,2291.9c-0.6,0.5-1.4,0.9-2.3,1.2s-1.9,0.4-2.9,0.4c-2.4,0-4.2-0.6-5.5-1.9s-2-3.1-2-5.5v-13h-4v-3.5
			h4v-5.2h4.3v5.2h6.8v3.5h-6.8v12.8c0,1.3,0.3,2.3,1,2.9c0.6,0.7,1.6,1,2.8,1c1.3,0,2.4-0.4,3.4-1.1L4702.2,2291.9z"/>
		<path class="st0" d="M4707.5,2264.2c-0.5-0.5-0.8-1.2-0.8-2s0.3-1.4,0.8-2s1.2-0.8,2.1-0.8s1.5,0.3,2.1,0.8
			c0.5,0.5,0.8,1.2,0.8,1.9c0,0.8-0.3,1.5-0.8,2c-0.5,0.6-1.2,0.8-2.1,0.8S4708,2264.7,4707.5,2264.2z M4707.4,2269.6h4.3v23.7h-4.3
			V2269.6z"/>
		<path class="st0" d="M4739.7,2271.9c1.8,1.7,2.7,4.3,2.7,7.7v13.6h-4.3v-13.1c0-2.3-0.5-4-1.6-5.2s-2.7-1.7-4.7-1.7
			c-2.3,0-4.2,0.7-5.5,2c-1.3,1.4-2,3.3-2,5.8v12.2h-4.3v-23.7h4.1v3.6c0.9-1.2,2-2.2,3.5-2.8c1.5-0.7,3.1-1,5-1
			C4735.6,2269.3,4738,2270.2,4739.7,2271.9z"/>
		<path class="st0" d="M4766.5,2271.8c1.7,1.6,2.6,4,2.6,7.2v14.3h-4.1v-3.1c-0.7,1.1-1.7,1.9-3.1,2.5c-1.3,0.6-2.9,0.9-4.7,0.9
			c-2.6,0-4.8-0.6-6.4-1.9c-1.6-1.3-2.4-3-2.4-5.1s0.8-3.8,2.3-5s3.9-1.9,7.2-1.9h6.8v-0.9c0-1.9-0.5-3.3-1.6-4.2
			c-1.1-1-2.6-1.5-4.7-1.5c-1.4,0-2.8,0.2-4.1,0.7s-2.5,1.1-3.4,1.9l-1.8-3.2c1.2-1,2.7-1.7,4.4-2.3c1.7-0.5,3.5-0.8,5.4-0.8
			C4762.2,2269.3,4764.8,2270.1,4766.5,2271.8z M4762.2,2289.1c1.2-0.7,2.1-1.8,2.6-3.1v-3.3h-6.6c-3.6,0-5.5,1.2-5.5,3.7
			c0,1.2,0.5,2.1,1.4,2.8s2.2,1,3.8,1C4759.6,2290.2,4761,2289.9,4762.2,2289.1z"/>
		<path class="st0" d="M4790.4,2291.9c-0.6,0.5-1.4,0.9-2.3,1.2s-1.9,0.4-2.9,0.4c-2.4,0-4.2-0.6-5.5-1.9s-2-3.1-2-5.5v-13h-4v-3.5
			h4v-5.2h4.3v5.2h6.8v3.5h-6.8v12.8c0,1.3,0.3,2.3,1,2.9c0.6,0.7,1.6,1,2.8,1c1.3,0,2.4-0.4,3.4-1.1L4790.4,2291.9z"/>
		<path class="st0" d="M4795.6,2264.2c-0.5-0.5-0.8-1.2-0.8-2s0.3-1.4,0.8-2s1.2-0.8,2.1-0.8s1.5,0.3,2.1,0.8
			c0.5,0.5,0.8,1.2,0.8,1.9c0,0.8-0.3,1.5-0.8,2c-0.5,0.6-1.2,0.8-2.1,0.8S4796.2,2264.7,4795.6,2264.2z M4795.6,2269.6h4.3v23.7
			h-4.3V2269.6z"/>
		<path class="st0" d="M4811.9,2291.9c-1.9-1-3.4-2.5-4.4-4.3c-1.1-1.8-1.6-3.9-1.6-6.2s0.5-4.4,1.6-6.2s2.5-3.3,4.4-4.3
			s4-1.5,6.4-1.5s4.5,0.5,6.3,1.5s3.3,2.5,4.4,4.3s1.6,3.9,1.6,6.2s-0.5,4.4-1.6,6.2s-2.5,3.3-4.4,4.3s-4,1.6-6.3,1.6
			C4815.8,2293.5,4813.7,2293,4811.9,2291.9z M4822.3,2288.7c1.2-0.7,2.1-1.7,2.8-2.9c0.7-1.3,1-2.7,1-4.4c0-1.6-0.3-3.1-1-4.4
			s-1.6-2.2-2.8-2.9s-2.6-1-4.1-1s-2.9,0.3-4.1,1s-2.2,1.7-2.9,2.9c-0.7,1.3-1,2.7-1,4.4c0,1.6,0.4,3.1,1,4.4
			c0.7,1.3,1.6,2.2,2.9,2.9s2.6,1.1,4.1,1.1S4821.1,2289.4,4822.3,2288.7z"/>
		<path class="st0" d="M4856.3,2271.9c1.8,1.7,2.7,4.3,2.7,7.7v13.6h-4.3v-13.1c0-2.3-0.5-4-1.6-5.2s-2.7-1.7-4.7-1.7
			c-2.3,0-4.2,0.7-5.5,2c-1.3,1.4-2,3.3-2,5.8v12.2h-4.3v-23.7h4.1v3.6c0.9-1.2,2-2.2,3.5-2.8c1.5-0.7,3.1-1,5-1
			C4852.1,2269.3,4854.5,2270.2,4856.3,2271.9z"/>
		<path class="st0" d="M4868.1,2292.7c-1.8-0.5-3.2-1.2-4.2-2l1.8-3.4c1,0.8,2.3,1.3,3.8,1.8c1.5,0.4,3,0.7,4.5,0.7
			c3.8,0,5.6-1.1,5.6-3.2c0-0.7-0.2-1.3-0.8-1.7s-1.1-0.7-1.9-0.9s-1.8-0.4-3.2-0.6c-1.9-0.3-3.5-0.6-4.7-1s-2.2-1-3.1-2
			c-0.9-0.9-1.3-2.2-1.3-3.9c0-2.1,0.9-3.9,2.7-5.2c1.8-1.3,4.2-1.9,7.2-1.9c1.6,0,3.2,0.2,4.7,0.6c1.6,0.4,2.9,0.9,3.9,1.6
			l-1.8,3.4c-1.9-1.2-4.2-1.9-6.8-1.9c-1.8,0-3.2,0.3-4.2,0.9c-1,0.6-1.4,1.4-1.4,2.4c0,0.8,0.3,1.4,0.8,1.8c0.5,0.4,1.2,0.8,2,1
			s1.9,0.4,3.3,0.7c1.9,0.3,3.5,0.7,4.6,1.1c1.2,0.4,2.2,1,3,1.9s1.2,2.1,1.2,3.8c0,2.1-0.9,3.9-2.8,5.1s-4.3,1.9-7.5,1.9
			C4871.7,2293.5,4869.9,2293.3,4868.1,2292.7z"/>
	</g>
</g>
<path class="st0" d="M4122,2033.3h90.1c22.4,0,39.3,5.7,50.7,17.2c8.9,8.9,13.3,19.9,13.3,33v0.6c0,5.5-0.7,10.4-2.1,14.7
	s-3.2,8.1-5.5,11.5s-5,6.4-8,9s-6.3,4.8-9.8,6.6c11.3,4.2,20.1,10,26.6,17.3s9.7,17.4,9.7,30.3v0.6c0,8.9-1.7,16.6-5.1,23.3
	c-3.4,6.6-8.3,12.2-14.7,16.6c-6.4,4.4-14,7.8-23,10s-18.9,3.3-29.8,3.3H4122V2033.3L4122,2033.3z M4233.7,2090.7
	c0-6.5-2.4-11.4-7.2-14.8c-4.8-3.4-11.7-5.1-20.8-5.1h-42.1v41h39.4c9.4,0,16.9-1.6,22.5-4.9c5.5-3.2,8.3-8.4,8.3-15.7
	L4233.7,2090.7L4233.7,2090.7z M4244.5,2168.3c0-6.5-2.5-11.6-7.5-15.4c-5-3.8-13-5.7-24.1-5.7h-49.3v42.7h50.7
	c9.4,0,16.8-1.7,22.2-5.1s8-8.7,8-15.9L4244.5,2168.3L4244.5,2168.3z"/>
<path class="st0" d="M4364.5,2072.6h-59v-39.3h160.7v39.3h-59v154.6h-42.7V2072.6L4364.5,2072.6z"/>
<path class="st0" d="M4498.9,2033.3h75.6c15.1,0,29,2.4,41.7,7.3c12.6,4.9,23.6,11.7,32.7,20.4s16.2,18.9,21.2,30.6
	c5,11.7,7.5,24.4,7.5,38.1v0.6c0,13.7-2.5,26.4-7.5,38.2s-12,22.1-21.2,30.8c-9.1,8.7-20,15.5-32.7,20.5s-26.6,7.5-41.7,7.5h-75.6
	V2033.3z M4541.6,2071.8v116.9h33c8.7,0,16.6-1.4,23.8-4.2c7.2-2.8,13.4-6.7,18.4-11.9c5.1-5.2,9-11.3,11.9-18.3s4.3-14.9,4.3-23.6
	v-0.6c0-8.5-1.4-16.4-4.3-23.6c-2.9-7.2-6.8-13.4-11.9-18.6c-5.1-5.2-11.2-9.2-18.4-12.1s-15.1-4.3-23.8-4.3L4541.6,2071.8
	L4541.6,2071.8z"/>
<path class="st0" d="M4715.6,2033.3h88.7c24.6,0,43.4,6.6,56.5,19.7c11.1,11.1,16.6,25.9,16.6,44.3v0.6c0,15.7-3.8,28.5-11.5,38.4
	s-17.7,17.1-30.1,21.8l47.4,69.3h-49.9l-41.6-62.1h-33.5v62.1h-42.7L4715.6,2033.3L4715.6,2033.3z M4801.5,2127.5
	c10.5,0,18.6-2.5,24.2-7.5s8.5-11.6,8.5-19.9v-0.6c0-9.2-3-16.2-8.9-20.8s-14.1-6.9-24.7-6.9h-42.4v55.7H4801.5L4801.5,2127.5z"/>
<polygon class="st0" points="3807.1,2201.4 3821.9,2216.2 3847.6,2216.2 3807.1,2175.8 3766.6,2216.2 3792.3,2216.2 "/>
<polygon class="st6" points="3809.5,2232.4 3835.1,2232.4 3847.6,2219.9 3821.9,2219.9 "/>
<polygon class="st6" points="3792.3,2219.9 3766.6,2219.9 3779.1,2232.4 3804.7,2232.4 "/>
<polygon class="st0" points="3898.8,2201.4 3913.6,2216.2 3939.3,2216.2 3898.8,2175.8 3858.3,2216.2 3884,2216.2 "/>
<polygon class="st6" points="3901.2,2232.4 3926.9,2232.4 3939.3,2219.9 3913.6,2219.9 "/>
<polygon class="st6" points="3884,2219.9 3858.3,2219.9 3870.8,2232.4 3896.4,2232.4 "/>
<g>
	<polygon class="st0" points="3852.9,2155.6 3867.8,2170.4 3893.4,2170.4 3852.9,2129.9 3812.5,2170.4 3838.1,2170.4 	"/>
	<polygon class="st6" points="3855.3,2186.5 3881,2186.5 3893.4,2174.1 3867.8,2174.1 	"/>
	<polygon class="st6" points="3838.1,2174.1 3812.5,2174.1 3824.9,2186.5 3850.6,2186.5 	"/>
</g>
<g>
	<polygon class="st0" points="3968.7,2301.4 3852.9,2368.3 3677.4,2266.9 3677.4,2064.2 3677.4,2064.2 3677.4,2020.4 3639.5,2042.3 
		3639.5,2288.8 3852.9,2412.1 3968.7,2345.2 4006.6,2323.3 4006.6,2279.5 	"/>
	<polygon class="st0" points="3968.7,2120.2 3950.1,2109.5 3950.1,2109.5 3852.9,2053.4 3796.4,2086.1 3755.8,2109.5 3755.8,2153.3 
		3796.4,2129.9 3796.4,2129.9 3852.9,2097.2 3909.5,2129.9 3912.1,2131.4 3912.1,2131.4 3950.1,2153.3 3968.7,2164 3968.7,2232.4 
		3852.9,2299.2 3755.8,2243.1 3737.2,2232.4 3737.2,2198.2 3737.2,2164 3737.2,2140.2 3737.2,2120.2 3737.2,2098.7 3737.2,2054.9 
		3737.2,2029.7 3737.2,1985.9 3699.3,2007.8 3699.3,2051.6 3699.3,2076.8 3699.3,2140.2 3699.3,2142.1 3699.3,2198.2 3699.3,2254.3 
		3852.9,2343 3968.7,2276.2 4006.6,2254.3 4006.6,2172.5 4006.6,2164.1 4006.6,2142.1 	"/>
	<polygon class="st0" points="4028.5,2020.4 3852.9,1919 3755.8,1975.1 3755.8,2018.9 3852.9,1962.8 4028.5,2064.1 4028.5,2064.2 
		4028.5,2089.4 4028.5,2121.8 4028.5,2266.9 4028.5,2266.9 4028.5,2310.7 4066.4,2288.8 4066.4,2042.3 	"/>
	<polygon class="st6" points="3852.9,1988.1 3755.8,2044.1 3755.8,2087.9 3852.9,2031.9 3949.6,2087.6 3968.7,2098.7 3968.7,2098.7 
		4006.6,2120.6 4006.6,2076.8 4006.6,2076.8 	"/>
</g>
<g>
	<g>
		<path class="st0" d="M4147.4,1389.2c1,1.3,1.6,3,1.6,5c0,2.7-1,4.8-3.1,6.3s-5,2.2-8.9,2.2h-15v-31.3h14c3.6,0,6.3,0.7,8.3,2.2
			s2.9,3.4,2.9,5.9c0,1.6-0.4,3.1-1.1,4.2c-0.8,1.2-1.8,2.1-3.1,2.7C4144.9,1387,4146.3,1387.9,4147.4,1389.2z M4126.5,1375v10h9.2
			c2.3,0,4.1-0.4,5.3-1.3c1.2-0.8,1.9-2.1,1.9-3.7s-0.6-2.9-1.9-3.7c-1.2-0.8-3-1.3-5.3-1.3H4126.5L4126.5,1375z M4142.5,1397.8
			c1.3-0.8,1.9-2.2,1.9-3.9c0-3.5-2.5-5.2-7.6-5.2h-10.3v10.4h10.3C4139.3,1399.1,4141.2,1398.7,4142.5,1397.8z"/>
		<path class="st0" d="M4177.3,1379v23.7h-4.1v-3.6c-0.9,1.2-2,2.2-3.4,2.8c-1.4,0.7-3,1-4.6,1c-3.2,0-5.6-0.9-7.5-2.6
			c-1.8-1.7-2.7-4.3-2.7-7.7V1379h4.3v13.1c0,2.3,0.5,4,1.6,5.2s2.7,1.8,4.7,1.8c2.3,0,4-0.7,5.4-2.1c1.3-1.4,2-3.3,2-5.8V1379
			H4177.3L4177.3,1379z"/>
		<path class="st0" d="M4185.6,1373.6c-0.5-0.5-0.8-1.2-0.8-2s0.3-1.4,0.8-2s1.2-0.8,2.1-0.8s1.5,0.3,2.1,0.8
			c0.5,0.5,0.8,1.2,0.8,1.9c0,0.8-0.3,1.5-0.8,2c-0.5,0.6-1.2,0.8-2.1,0.8S4186.1,1374.2,4185.6,1373.6z M4185.5,1379h4.3v23.7h-4.3
			V1379z"/>
		<path class="st0" d="M4198,1369.5h4.3v33.2h-4.3V1369.5z"/>
		<path class="st0" d="M4232.8,1369.5v33.2h-4.1v-3.8c-1,1.3-2.2,2.3-3.6,3c-1.5,0.7-3.1,1-4.8,1c-2.3,0-4.4-0.5-6.2-1.5
			s-3.2-2.4-4.3-4.3s-1.5-3.9-1.5-6.3s0.5-4.5,1.5-6.3s2.5-3.2,4.3-4.2s3.9-1.5,6.2-1.5c1.7,0,3.3,0.3,4.7,1s2.6,1.6,3.6,2.8v-13.1
			L4232.8,1369.5L4232.8,1369.5z M4224.7,1398.2c1.2-0.7,2.2-1.7,2.9-2.9c0.7-1.3,1-2.7,1-4.4s-0.3-3.1-1-4.4s-1.6-2.2-2.9-2.9
			c-1.2-0.7-2.6-1-4.1-1s-2.9,0.3-4.1,1s-2.2,1.7-2.9,2.9c-0.7,1.3-1,2.7-1,4.4s0.4,3.1,1,4.4c0.7,1.3,1.6,2.2,2.9,2.9
			s2.6,1.1,4.1,1.1C4222.1,1399.2,4223.4,1398.9,4224.7,1398.2z"/>
		<path class="st0" d="M4241,1373.6c-0.5-0.5-0.8-1.2-0.8-2s0.3-1.4,0.8-2s1.2-0.8,2.1-0.8s1.5,0.3,2.1,0.8c0.5,0.5,0.8,1.2,0.8,1.9
			c0,0.8-0.3,1.5-0.8,2c-0.5,0.6-1.2,0.8-2.1,0.8S4241.5,1374.2,4241,1373.6z M4240.9,1379h4.3v23.7h-4.3V1379z"/>
		<path class="st0" d="M4273.2,1381.4c1.8,1.7,2.7,4.3,2.7,7.7v13.6h-4.3v-13.1c0-2.3-0.5-4-1.6-5.2s-2.7-1.7-4.7-1.7
			c-2.3,0-4.2,0.7-5.5,2c-1.3,1.4-2,3.3-2,5.8v12.2h-4.3V1379h4.1v3.6c0.9-1.2,2-2.2,3.5-2.8c1.5-0.7,3.1-1,5-1
			C4269.1,1378.8,4271.5,1379.7,4273.2,1381.4z"/>
		<path class="st0" d="M4306.6,1379v20.5c0,4.1-1,7.2-3.1,9.2s-5.1,3-9.2,3c-2.2,0-4.4-0.3-6.4-0.9s-3.7-1.5-4.9-2.6l2.1-3.3
			c1.1,0.9,2.5,1.7,4.1,2.3c1.6,0.6,3.3,0.8,5,0.8c2.8,0,4.8-0.7,6.1-2c1.3-1.3,2-3.3,2-6v-1.9c-1,1.2-2.3,2.1-3.7,2.8
			s-3.1,0.9-4.8,0.9c-2.3,0-4.3-0.5-6.1-1.4c-1.8-1-3.3-2.3-4.3-4.1c-1-1.7-1.6-3.7-1.6-6s0.5-4.2,1.6-6c1-1.7,2.5-3.1,4.3-4.1
			c1.8-0.9,3.9-1.4,6.1-1.4c1.8,0,3.5,0.3,5,1s2.8,1.6,3.8,2.9v-3.7L4306.6,1379L4306.6,1379z M4298.5,1397c1.2-0.7,2.2-1.6,2.9-2.8
			c0.7-1.2,1-2.5,1-4c0-2.3-0.8-4.2-2.3-5.6s-3.5-2.1-5.9-2.1s-4.4,0.7-5.9,2.1s-2.3,3.3-2.3,5.6c0,1.5,0.4,2.8,1,4
			c0.7,1.2,1.7,2.1,2.9,2.8c1.2,0.7,2.6,1,4.2,1C4295.8,1398,4297.2,1397.6,4298.5,1397z"/>
		<path class="st0" d="M4333.7,1375.3H4323v-3.9h25.9v3.9h-10.7v27.4h-4.4L4333.7,1375.3L4333.7,1375.3z"/>
		<path class="st0" d="M4354.4,1401.4c-1.9-1-3.4-2.5-4.4-4.3c-1.1-1.8-1.6-3.9-1.6-6.2c0-2.3,0.5-4.4,1.6-6.2
			c1.1-1.8,2.5-3.3,4.4-4.3s4-1.5,6.4-1.5s4.5,0.5,6.3,1.5s3.3,2.5,4.4,4.3s1.6,3.9,1.6,6.2c0,2.3-0.5,4.4-1.6,6.2
			c-1.1,1.8-2.5,3.3-4.4,4.3s-4,1.6-6.3,1.6C4358.4,1403,4356.3,1402.4,4354.4,1401.4z M4364.9,1398.2c1.2-0.7,2.1-1.7,2.8-2.9
			c0.7-1.3,1-2.7,1-4.4s-0.3-3.1-1-4.4s-1.6-2.2-2.8-2.9c-1.2-0.7-2.6-1-4.1-1s-2.9,0.3-4.1,1s-2.2,1.7-2.9,2.9
			c-0.7,1.3-1,2.7-1,4.4s0.4,3.1,1,4.4c0.7,1.3,1.6,2.2,2.9,2.9s2.6,1.1,4.1,1.1S4363.6,1398.9,4364.9,1398.2z"/>
		<path class="st0" d="M4415.7,1381.4c1.7,1.7,2.6,4.3,2.6,7.7v13.6h-4.3v-13.1c0-2.3-0.5-4-1.6-5.2s-2.6-1.7-4.5-1.7
			c-2.2,0-3.9,0.7-5.2,2c-1.3,1.4-1.9,3.3-1.9,5.8v12.2h-4.3v-13.1c0-2.3-0.5-4-1.6-5.2s-2.6-1.7-4.5-1.7c-2.2,0-3.9,0.7-5.2,2
			c-1.3,1.4-1.9,3.3-1.9,5.8v12.2h-4.3V1379h4.1v3.5c0.9-1.2,2-2.2,3.4-2.8s3-1,4.8-1c1.9,0,3.5,0.4,4.9,1.1
			c1.4,0.8,2.5,1.8,3.3,3.3c0.9-1.4,2.1-2.4,3.7-3.2c1.6-0.8,3.4-1.2,5.4-1.2C4411.6,1378.8,4414,1379.7,4415.7,1381.4z"/>
		<path class="st0" d="M4430.2,1401.4c-1.9-1-3.4-2.5-4.4-4.3c-1.1-1.8-1.6-3.9-1.6-6.2c0-2.3,0.5-4.4,1.6-6.2
			c1.1-1.8,2.5-3.3,4.4-4.3s4-1.5,6.4-1.5s4.5,0.5,6.3,1.5s3.3,2.5,4.4,4.3s1.6,3.9,1.6,6.2c0,2.3-0.5,4.4-1.6,6.2
			c-1.1,1.8-2.5,3.3-4.4,4.3s-4,1.6-6.3,1.6C4434.2,1403,4432,1402.4,4430.2,1401.4z M4440.6,1398.2c1.2-0.7,2.1-1.7,2.8-2.9
			c0.7-1.3,1-2.7,1-4.4s-0.3-3.1-1-4.4s-1.6-2.2-2.8-2.9c-1.2-0.7-2.6-1-4.1-1s-2.9,0.3-4.1,1s-2.2,1.7-2.9,2.9
			c-0.7,1.3-1,2.7-1,4.4s0.4,3.1,1,4.4c0.7,1.3,1.6,2.2,2.9,2.9s2.6,1.1,4.1,1.1C4438,1399.2,4439.4,1398.9,4440.6,1398.2z"/>
		<path class="st0" d="M4462.2,1379.9c1.5-0.7,3.2-1.1,5.3-1.1v4.2c-0.2,0-0.6,0-1,0c-2.3,0-4.1,0.7-5.5,2.1s-2,3.4-2,5.9v11.8h-4.3
			V1379h4.1v4C4459.6,1381.6,4460.7,1380.6,4462.2,1379.9z"/>
		<path class="st0" d="M4480.2,1379.9c1.5-0.7,3.2-1.1,5.3-1.1v4.2c-0.2,0-0.6,0-1,0c-2.3,0-4.1,0.7-5.5,2.1s-2,3.4-2,5.9v11.8h-4.3
			V1379h4.1v4C4477.6,1381.6,4478.7,1380.6,4480.2,1379.9z"/>
		<path class="st0" d="M4494.4,1401.4c-1.9-1-3.4-2.5-4.4-4.3c-1.1-1.8-1.6-3.9-1.6-6.2c0-2.3,0.5-4.4,1.6-6.2
			c1.1-1.8,2.5-3.3,4.4-4.3s4-1.5,6.4-1.5s4.5,0.5,6.3,1.5s3.3,2.5,4.4,4.3s1.6,3.9,1.6,6.2c0,2.3-0.5,4.4-1.6,6.2
			c-1.1,1.8-2.5,3.3-4.4,4.3s-4,1.6-6.3,1.6C4498.4,1403,4496.2,1402.4,4494.4,1401.4z M4504.8,1398.2c1.2-0.7,2.1-1.7,2.8-2.9
			c0.7-1.3,1-2.7,1-4.4s-0.3-3.1-1-4.4s-1.6-2.2-2.8-2.9c-1.2-0.7-2.6-1-4.1-1s-2.9,0.3-4.1,1s-2.2,1.7-2.9,2.9
			c-0.7,1.3-1,2.7-1,4.4s0.4,3.1,1,4.4c0.7,1.3,1.6,2.2,2.9,2.9s2.6,1.1,4.1,1.1S4503.6,1398.9,4504.8,1398.2z"/>
		<path class="st0" d="M4554.1,1379l-8.9,23.7h-4.1l-6.8-18l-6.9,18h-4.1l-8.8-23.7h4.1l6.9,18.9l7.1-18.9h3.6l7,18.9l7.1-18.9
			H4554.1z"/>
		<path class="st0" d="M4557.2,1371.4h3.8l-0.3,12.1h-3.2L4557.2,1371.4z"/>
		<path class="st0" d="M4569,1402.2c-1.8-0.5-3.2-1.2-4.2-2l1.8-3.4c1,0.8,2.3,1.3,3.8,1.8c1.5,0.4,3,0.7,4.5,0.7
			c3.8,0,5.6-1.1,5.6-3.2c0-0.7-0.2-1.3-0.8-1.7c-0.5-0.4-1.1-0.7-1.9-0.9c-0.8-0.2-1.8-0.4-3.2-0.7c-1.9-0.3-3.5-0.6-4.7-1
			s-2.2-1-3.1-2c-0.9-0.9-1.3-2.2-1.3-3.9c0-2.2,0.9-3.9,2.7-5.2c1.8-1.3,4.2-1.9,7.2-1.9c1.6,0,3.2,0.2,4.7,0.6s2.9,0.9,3.9,1.6
			l-1.8,3.4c-1.9-1.2-4.2-1.9-6.8-1.9c-1.8,0-3.2,0.3-4.2,0.9s-1.4,1.4-1.4,2.4c0,0.8,0.3,1.4,0.8,1.8s1.2,0.8,2,1s1.9,0.4,3.3,0.7
			c1.9,0.3,3.5,0.7,4.6,1.1c1.2,0.4,2.2,1,3,1.9s1.2,2.2,1.2,3.8c0,2.2-0.9,3.8-2.8,5.1s-4.3,1.9-7.5,1.9
			C4572.7,1403,4570.8,1402.7,4569,1402.2z"/>
		<path class="st0" d="M4602.9,1371.4h13.2c3.3,0,6.2,0.7,8.8,2c2.6,1.3,4.5,3.2,6,5.5c1.4,2.4,2.1,5.1,2.1,8.2s-0.7,5.8-2.1,8.2
			c-1.4,2.4-3.4,4.2-6,5.5s-5.5,2-8.8,2h-13.2V1371.4z M4615.8,1398.8c2.5,0,4.8-0.5,6.7-1.5c1.9-1,3.4-2.4,4.5-4.1
			c1-1.8,1.6-3.8,1.6-6.2c0-2.3-0.5-4.4-1.6-6.2c-1-1.8-2.5-3.2-4.5-4.1c-1.9-1-4.1-1.5-6.7-1.5h-8.5v23.5L4615.8,1398.8
			L4615.8,1398.8z"/>
		<path class="st0" d="M4660.5,1392.3h-19.2c0.3,2.1,1.2,3.8,2.8,5c1.6,1.3,3.5,1.9,5.8,1.9c2.8,0,5.1-0.9,6.8-2.9l2.4,2.8
			c-1.1,1.2-2.4,2.2-4,2.9c-1.6,0.7-3.4,1-5.3,1c-2.5,0-4.7-0.5-6.7-1.5s-3.4-2.5-4.5-4.3s-1.6-3.9-1.6-6.3c0-2.3,0.5-4.4,1.5-6.2
			c1-1.8,2.4-3.3,4.2-4.3c1.8-1,3.8-1.5,6.1-1.5c2.3,0,4.3,0.5,6.1,1.5c1.8,1,3.2,2.5,4.2,4.3s1.5,4,1.5,6.3
			C4660.6,1391.3,4660.6,1391.8,4660.5,1392.3z M4643.7,1384.3c-1.4,1.2-2.2,2.9-2.4,4.9h15.2c-0.2-2-1-3.6-2.4-4.9
			s-3.1-1.9-5.2-1.9C4646.8,1382.4,4645.1,1383,4643.7,1384.3z"/>
		<path class="st0" d="M4667.7,1402.2c-1.8-0.5-3.2-1.2-4.2-2l1.8-3.4c1,0.8,2.3,1.3,3.8,1.8c1.5,0.4,3,0.7,4.5,0.7
			c3.8,0,5.6-1.1,5.6-3.2c0-0.7-0.2-1.3-0.8-1.7c-0.5-0.4-1.1-0.7-1.9-0.9c-0.8-0.2-1.8-0.4-3.2-0.7c-1.9-0.3-3.5-0.6-4.7-1
			s-2.2-1-3.1-2c-0.9-0.9-1.3-2.2-1.3-3.9c0-2.2,0.9-3.9,2.7-5.2c1.8-1.3,4.2-1.9,7.2-1.9c1.6,0,3.2,0.2,4.7,0.6s2.9,0.9,3.9,1.6
			l-1.8,3.4c-1.9-1.2-4.2-1.9-6.8-1.9c-1.8,0-3.2,0.3-4.2,0.9s-1.4,1.4-1.4,2.4c0,0.8,0.3,1.4,0.8,1.8s1.2,0.8,2,1s1.9,0.4,3.3,0.7
			c1.9,0.3,3.5,0.7,4.6,1.1c1.2,0.4,2.2,1,3,1.9s1.2,2.2,1.2,3.8c0,2.2-0.9,3.8-2.8,5.1s-4.3,1.9-7.5,1.9
			C4671.4,1403,4669.5,1402.7,4667.7,1402.2z"/>
		<path class="st0" d="M4702.2,1401.3c-0.6,0.5-1.4,0.9-2.3,1.2s-1.9,0.4-2.9,0.4c-2.4,0-4.2-0.6-5.5-1.9s-2-3.1-2-5.5v-13h-4v-3.5
			h4v-5.2h4.3v5.2h6.8v3.5h-6.8v12.8c0,1.3,0.3,2.3,1,2.9c0.6,0.7,1.6,1,2.8,1c1.3,0,2.4-0.4,3.4-1.1L4702.2,1401.3z"/>
		<path class="st0" d="M4707.5,1373.6c-0.5-0.5-0.8-1.2-0.8-2s0.3-1.4,0.8-2s1.2-0.8,2.1-0.8s1.5,0.3,2.1,0.8
			c0.5,0.5,0.8,1.2,0.8,1.9c0,0.8-0.3,1.5-0.8,2c-0.5,0.6-1.2,0.8-2.1,0.8S4708,1374.2,4707.5,1373.6z M4707.4,1379h4.3v23.7h-4.3
			V1379z"/>
		<path class="st0" d="M4739.7,1381.4c1.8,1.7,2.7,4.3,2.7,7.7v13.6h-4.3v-13.1c0-2.3-0.5-4-1.6-5.2s-2.7-1.7-4.7-1.7
			c-2.3,0-4.2,0.7-5.5,2c-1.3,1.4-2,3.3-2,5.8v12.2h-4.3V1379h4.1v3.6c0.9-1.2,2-2.2,3.5-2.8c1.5-0.7,3.1-1,5-1
			C4735.6,1378.8,4738,1379.7,4739.7,1381.4z"/>
		<path class="st0" d="M4766.5,1381.2c1.7,1.6,2.6,4,2.6,7.2v14.3h-4.1v-3.1c-0.7,1.1-1.7,1.9-3.1,2.5c-1.3,0.6-2.9,0.9-4.7,0.9
			c-2.6,0-4.8-0.6-6.4-1.9s-2.4-3-2.4-5.1s0.8-3.8,2.3-5s3.9-1.9,7.2-1.9h6.8v-0.8c0-1.8-0.5-3.3-1.6-4.2c-1.1-1-2.6-1.5-4.7-1.5
			c-1.4,0-2.8,0.2-4.1,0.7s-2.5,1.1-3.4,1.8l-1.8-3.2c1.2-1,2.7-1.7,4.4-2.3c1.7-0.5,3.5-0.8,5.4-0.8
			C4762.2,1378.8,4764.8,1379.6,4766.5,1381.2z M4762.2,1398.6c1.2-0.7,2.1-1.8,2.6-3.1v-3.3h-6.6c-3.6,0-5.5,1.2-5.5,3.7
			c0,1.2,0.5,2.1,1.4,2.8c0.9,0.7,2.2,1,3.8,1C4759.6,1399.7,4761,1399.3,4762.2,1398.6z"/>
		<path class="st0" d="M4790.4,1401.3c-0.6,0.5-1.4,0.9-2.3,1.2s-1.9,0.4-2.9,0.4c-2.4,0-4.2-0.6-5.5-1.9s-2-3.1-2-5.5v-13h-4v-3.5
			h4v-5.2h4.3v5.2h6.8v3.5h-6.8v12.8c0,1.3,0.3,2.3,1,2.9c0.6,0.7,1.6,1,2.8,1c1.3,0,2.4-0.4,3.4-1.1L4790.4,1401.3z"/>
		<path class="st0" d="M4795.6,1373.6c-0.5-0.5-0.8-1.2-0.8-2s0.3-1.4,0.8-2s1.2-0.8,2.1-0.8s1.5,0.3,2.1,0.8
			c0.5,0.5,0.8,1.2,0.8,1.9c0,0.8-0.3,1.5-0.8,2c-0.5,0.6-1.2,0.8-2.1,0.8S4796.2,1374.2,4795.6,1373.6z M4795.6,1379h4.3v23.7h-4.3
			V1379z"/>
		<path class="st0" d="M4811.9,1401.4c-1.9-1-3.4-2.5-4.4-4.3s-1.6-3.9-1.6-6.2c0-2.3,0.5-4.4,1.6-6.2s2.5-3.3,4.4-4.3
			s4-1.5,6.4-1.5s4.5,0.5,6.3,1.5s3.3,2.5,4.4,4.3s1.6,3.9,1.6,6.2c0,2.3-0.5,4.4-1.6,6.2c-1.1,1.8-2.5,3.3-4.4,4.3s-4,1.6-6.3,1.6
			C4815.8,1403,4813.7,1402.4,4811.9,1401.4z M4822.3,1398.2c1.2-0.7,2.1-1.7,2.8-2.9c0.7-1.3,1-2.7,1-4.4s-0.3-3.1-1-4.4
			s-1.6-2.2-2.8-2.9c-1.2-0.7-2.6-1-4.1-1s-2.9,0.3-4.1,1s-2.2,1.7-2.9,2.9c-0.7,1.3-1,2.7-1,4.4s0.4,3.1,1,4.4
			c0.7,1.3,1.6,2.2,2.9,2.9s2.6,1.1,4.1,1.1C4819.7,1399.2,4821.1,1398.9,4822.3,1398.2z"/>
		<path class="st0" d="M4856.3,1381.4c1.8,1.7,2.7,4.3,2.7,7.7v13.6h-4.3v-13.1c0-2.3-0.5-4-1.6-5.2s-2.7-1.7-4.7-1.7
			c-2.3,0-4.2,0.7-5.5,2c-1.3,1.4-2,3.3-2,5.8v12.2h-4.3V1379h4.1v3.6c0.9-1.2,2-2.2,3.5-2.8c1.5-0.7,3.1-1,5-1
			C4852.1,1378.8,4854.5,1379.7,4856.3,1381.4z"/>
		<path class="st0" d="M4868.1,1402.2c-1.8-0.5-3.2-1.2-4.2-2l1.8-3.4c1,0.8,2.3,1.3,3.8,1.8c1.5,0.4,3,0.7,4.5,0.7
			c3.8,0,5.6-1.1,5.6-3.2c0-0.7-0.2-1.3-0.8-1.7c-0.5-0.4-1.1-0.7-1.9-0.9c-0.8-0.2-1.8-0.4-3.2-0.7c-1.9-0.3-3.5-0.6-4.7-1
			s-2.2-1-3.1-2c-0.9-0.9-1.3-2.2-1.3-3.9c0-2.2,0.9-3.9,2.7-5.2c1.8-1.3,4.2-1.9,7.2-1.9c1.6,0,3.2,0.2,4.7,0.6s2.9,0.9,3.9,1.6
			l-1.8,3.4c-1.9-1.2-4.2-1.9-6.8-1.9c-1.8,0-3.2,0.3-4.2,0.9s-1.4,1.4-1.4,2.4c0,0.8,0.3,1.4,0.8,1.8s1.2,0.8,2,1s1.9,0.4,3.3,0.7
			c1.9,0.3,3.5,0.7,4.6,1.1c1.2,0.4,2.2,1,3,1.9s1.2,2.2,1.2,3.8c0,2.2-0.9,3.8-2.8,5.1s-4.3,1.9-7.5,1.9
			C4871.7,1403,4869.9,1402.7,4868.1,1402.2z"/>
	</g>
</g>
<path class="st0" d="M4122,1142.8h90.1c22.4,0,39.3,5.7,50.7,17.2c8.9,8.9,13.3,19.9,13.3,33v0.6c0,5.5-0.7,10.4-2.1,14.7
	s-3.2,8.1-5.5,11.5s-5,6.4-8,9s-6.3,4.8-9.8,6.7c11.3,4.2,20.1,10,26.6,17.3s9.7,17.4,9.7,30.3v0.6c0,8.9-1.7,16.6-5.1,23.3
	s-8.3,12.2-14.7,16.6c-6.4,4.4-14,7.8-23,10s-18.9,3.3-29.8,3.3H4122V1142.8L4122,1142.8z M4233.7,1200.1c0-6.5-2.4-11.4-7.2-14.8
	c-4.8-3.4-11.7-5.1-20.8-5.1h-42.1v41h39.4c9.4,0,16.9-1.6,22.5-4.8c5.5-3.2,8.3-8.4,8.3-15.7L4233.7,1200.1L4233.7,1200.1z
	 M4244.5,1277.7c0-6.5-2.5-11.6-7.5-15.4s-13-5.7-24.1-5.7h-49.3v42.7h50.7c9.4,0,16.8-1.7,22.2-5.1s8-8.7,8-15.9L4244.5,1277.7
	L4244.5,1277.7z"/>
<path class="st0" d="M4364.5,1182.1h-59v-39.3h160.7v39.3h-59v154.6h-42.7V1182.1L4364.5,1182.1z"/>
<path class="st0" d="M4498.9,1142.8h75.6c15.1,0,29,2.4,41.7,7.3c12.6,4.9,23.6,11.7,32.7,20.4c9.1,8.7,16.2,18.9,21.2,30.6
	s7.5,24.4,7.5,38.1v0.6c0,13.7-2.5,26.4-7.5,38.2c-5,11.8-12,22.1-21.2,30.8c-9.1,8.7-20,15.5-32.7,20.5s-26.6,7.5-41.7,7.5h-75.6
	V1142.8z M4541.6,1181.3v116.9h33c8.7,0,16.6-1.4,23.8-4.2c7.2-2.8,13.4-6.7,18.4-11.9c5.1-5.2,9-11.3,11.9-18.3s4.3-14.9,4.3-23.6
	v-0.6c0-8.5-1.4-16.3-4.3-23.6c-2.9-7.2-6.8-13.4-11.9-18.6s-11.2-9.2-18.4-12.1c-7.2-2.9-15.1-4.3-23.8-4.3L4541.6,1181.3
	L4541.6,1181.3z"/>
<path class="st0" d="M4715.6,1142.8h88.7c24.6,0,43.4,6.6,56.5,19.7c11.1,11.1,16.6,25.9,16.6,44.3v0.6c0,15.7-3.8,28.5-11.5,38.4
	s-17.7,17.1-30.1,21.8l47.4,69.3h-49.9l-41.6-62.1h-33.5v62.1h-42.7L4715.6,1142.8L4715.6,1142.8z M4801.5,1237
	c10.5,0,18.6-2.5,24.2-7.5s8.5-11.6,8.5-19.9v-0.6c0-9.2-3-16.2-8.9-20.8s-14.1-6.9-24.7-6.9h-42.4v55.7L4801.5,1237L4801.5,1237z"
	/>
<polygon class="st0" points="3807.1,1310.9 3821.9,1325.7 3847.6,1325.7 3807.1,1285.2 3766.6,1325.7 3792.3,1325.7 "/>
<polygon class="st1" points="3809.5,1341.8 3835.1,1341.8 3847.6,1329.4 3821.9,1329.4 "/>
<polygon class="st1" points="3792.3,1329.4 3766.6,1329.4 3779.1,1341.8 3804.7,1341.8 "/>
<polygon class="st0" points="3898.8,1310.9 3913.6,1325.7 3939.3,1325.7 3898.8,1285.2 3858.3,1325.7 3884,1325.7 "/>
<polygon class="st1" points="3901.2,1341.8 3926.9,1341.8 3939.3,1329.4 3913.6,1329.4 "/>
<polygon class="st1" points="3884,1329.4 3858.3,1329.4 3870.8,1341.8 3896.4,1341.8 "/>
<g>
	<polygon class="st0" points="3852.9,1265.1 3867.8,1279.9 3893.4,1279.9 3852.9,1239.4 3812.5,1279.9 3838.1,1279.9 	"/>
	<polygon class="st1" points="3855.3,1296 3881,1296 3893.4,1283.6 3867.8,1283.6 	"/>
	<polygon class="st1" points="3838.1,1283.6 3812.5,1283.6 3824.9,1296 3850.6,1296 	"/>
</g>
<g>
	<polygon class="st0" points="3968.7,1410.9 3852.9,1477.7 3677.4,1376.3 3677.4,1173.6 3677.4,1173.6 3677.4,1129.8 3639.5,1151.7 
		3639.5,1398.2 3852.9,1521.5 3968.7,1454.7 4006.6,1432.8 4006.6,1389 	"/>
	<polygon class="st0" points="3968.7,1229.7 3950.1,1218.9 3950.1,1218.9 3852.9,1162.9 3796.4,1195.5 3755.8,1218.9 3755.8,1262.7 
		3796.4,1239.3 3796.4,1239.3 3852.9,1206.7 3909.5,1239.3 3912.1,1240.8 3912.1,1240.8 3950.1,1262.7 3968.7,1273.5 3968.7,1341.8 
		3852.9,1408.7 3755.8,1352.6 3737.2,1341.8 3737.2,1307.7 3737.2,1273.5 3737.2,1249.6 3737.2,1229.7 3737.2,1208.2 3737.2,1164.4 
		3737.2,1139.1 3737.2,1095.3 3699.3,1117.2 3699.3,1161 3699.3,1186.3 3699.3,1249.6 3699.3,1251.6 3699.3,1307.7 3699.3,1363.7 
		3852.9,1452.4 3968.7,1385.6 4006.6,1363.7 4006.6,1281.9 4006.6,1273.5 4006.6,1251.6 	"/>
	<polygon class="st0" points="4028.5,1129.8 3852.9,1028.5 3755.8,1084.5 3755.8,1128.3 3852.9,1072.3 4028.5,1173.6 4028.5,1173.6 
		4028.5,1198.9 4028.5,1231.3 4028.5,1376.3 4028.5,1376.4 4028.5,1420.2 4066.4,1398.2 4066.4,1151.7 	"/>
	<polygon class="st1" points="3852.9,1097.5 3755.8,1153.6 3755.8,1197.4 3852.9,1141.3 3949.6,1197.1 3968.7,1208.2 3968.7,1208.2 
		4006.6,1230.1 4006.6,1186.3 4006.6,1186.3 	"/>
</g>
</svg>
