<?xml version="1.0" encoding="utf-8"?>
<!-- Generator: Adobe Illustrator 24.3.0, SVG Export Plug-In . SVG Version: 6.00 Build 0)  -->
<svg version="1.1" id="Layer_1" xmlns="http://www.w3.org/2000/svg" xmlns:xlink="http://www.w3.org/1999/xlink" x="0px" y="0px"
	 viewBox="0 0 424.94 155.29" style="enable-background:new 0 0 424.94 155.29;" xml:space="preserve">
<style type="text/css">
	.st0{fill:#15559B;}
	.st1{fill:#D22A28;}
	.st2{font-family:'CenturyGothic';}
	.st3{font-size:20.1621px;}
	.st4{font-family:'MyriadPro-Regular';}
	.st5{fill:#1E71B8;}
	.st6{fill:#FFFFFF;}
	.st7{fill:#C6C6C6;}
	.st8{fill:#E94E1B;}
</style>
<g>
	<g>
		<path class="st0" d="M1788.14,1288.78c6.31,8.27,9.47,18.53,9.47,30.79c0,16.91-6.5,29.96-19.51,39.15
			c-13.01,9.2-31.95,13.79-56.85,13.79h-96.97v-195.06h91.4c23.03,0,40.78,4.51,53.22,13.52c12.44,9.01,18.67,21.41,18.67,37.2
			c0,9.66-2.23,18.21-6.69,25.64c-4.46,7.43-10.59,13.19-18.39,17.28C1773.27,1274.62,1781.82,1280.52,1788.14,1288.78z
			 M1660.51,1205.88v53.78h51.27c12.63,0,22.34-2.27,29.12-6.83c6.78-4.55,10.17-11.19,10.17-19.92c0-8.92-3.39-15.65-10.17-20.2
			c-6.78-4.55-16.49-6.83-29.12-6.83H1660.51z M1761.11,1315.95c0-18.76-14.03-28.14-42.08-28.14h-58.52v56.29h58.52
			C1747.08,1344.1,1761.11,1334.72,1761.11,1315.95z"/>
		<path class="st0" d="M1853.2,1368.9c-14.03-4.27-25.13-9.94-33.3-17l12.54-28.14c7.99,6.32,17.79,11.47,29.4,15.47
			c11.61,4,23.27,5.99,34.97,5.99c14.49,0,25.31-2.32,32.46-6.97c7.15-4.64,10.73-10.77,10.73-18.39c0-5.57-2-10.17-5.99-13.79
			c-4-3.62-9.06-6.45-15.19-8.5c-6.13-2.04-14.49-4.36-25.08-6.97c-14.86-3.53-26.89-7.06-36.09-10.59
			c-9.2-3.53-17.09-9.06-23.69-16.58c-6.6-7.52-9.89-17.7-9.89-30.51c0-10.77,2.93-20.57,8.78-29.4
			c5.85-8.82,14.67-15.84,26.47-21.04c11.8-5.2,26.24-7.8,43.33-7.8c11.89,0,23.59,1.49,35.11,4.46
			c11.52,2.97,21.46,7.25,29.82,12.82l-11.42,28.15c-8.55-5.02-17.46-8.82-26.75-11.43c-9.29-2.6-18.3-3.9-27.03-3.9
			c-14.31,0-24.94,2.42-31.91,7.25c-6.97,4.83-10.45,11.24-10.45,19.23c0,5.57,1.99,10.13,5.99,13.65
			c3.99,3.53,9.06,6.32,15.19,8.36c6.13,2.05,14.49,4.37,25.08,6.97c14.49,3.34,26.38,6.83,35.67,10.45
			c9.29,3.62,17.23,9.15,23.83,16.58c6.59,7.43,9.89,17.46,9.89,30.1c0,10.78-2.93,20.53-8.78,29.26
			c-5.85,8.73-14.73,15.7-26.61,20.9c-11.89,5.2-26.38,7.8-43.47,7.8C1881.77,1375.31,1867.23,1373.17,1853.2,1368.9z"/>
		<path class="st0" d="M2278.72,1362.35c-15.88-8.64-28.33-20.57-37.34-35.81c-9.01-15.23-13.52-32.42-13.52-51.55
			c0-19.13,4.55-36.32,13.65-51.55c9.1-15.23,21.6-27.17,37.48-35.81c15.88-8.64,33.67-12.96,53.36-12.96
			c15.98,0,30.56,2.79,43.75,8.36c13.19,5.57,24.33,13.65,33.44,24.24l-23.41,22.01c-14.12-15.23-31.49-22.85-52.11-22.85
			c-13.38,0-25.36,2.93-35.95,8.78s-18.86,13.98-24.8,24.38c-5.95,10.41-8.92,22.2-8.92,35.39c0,13.19,2.97,24.99,8.92,35.39
			c5.94,10.41,14.21,18.53,24.8,24.38s22.57,8.78,35.95,8.78c20.62,0,37.99-7.71,52.11-23.13l23.41,22.29
			c-9.1,10.59-20.3,18.67-33.58,24.24c-13.28,5.57-27.91,8.36-43.89,8.36C2312.39,1375.31,2294.6,1370.99,2278.72,1362.35z"/>
	</g>
	<g>
		<g>
			<polygon class="st0" points="2055.5,1336.01 2107.48,1366.02 2186.31,1320.5 2186.31,1229.47 2186.31,1229.47 2186.31,1209.81 
				2203.34,1219.64 2203.34,1330.33 2107.48,1385.68 2055.5,1355.67 2038.47,1345.84 2038.47,1326.17 			"/>
			<polygon class="st0" points="2055.5,1254.65 2063.88,1249.82 2063.88,1249.81 2107.48,1224.64 2132.89,1239.31 2151.08,1249.81 
				2151.08,1269.48 2132.89,1258.97 2132.89,1258.97 2107.48,1244.3 2082.08,1258.97 2080.9,1259.65 2080.9,1259.65 
				2063.88,1269.48 2055.5,1274.31 2055.5,1305 2107.48,1335.01 2151.08,1309.84 2159.46,1305 2159.46,1289.66 2159.46,1274.31 
				2159.46,1263.6 2159.46,1254.65 2159.46,1244.98 2159.46,1225.32 2159.46,1213.97 2159.46,1194.31 2176.49,1204.14 
				2176.49,1223.8 2176.49,1235.15 2176.49,1263.6 2176.49,1264.48 2176.49,1289.66 2176.49,1314.83 2107.48,1354.67 
				2055.5,1324.66 2038.47,1314.83 2038.47,1278.1 2038.47,1274.32 2038.47,1264.48 			"/>
			<polygon class="st0" points="2028.67,1209.8 2107.48,1164.3 2151.08,1189.47 2151.08,1209.14 2107.48,1183.96 2028.67,1229.46 
				2028.65,1229.47 2028.65,1240.82 2028.65,1255.36 2028.65,1320.5 2028.67,1320.52 2028.67,1340.18 2011.62,1330.33 
				2011.62,1219.64 			"/>
			<polygon class="st1" points="2107.48,1195.3 2151.08,1220.48 2151.08,1240.14 2107.48,1214.97 2064.1,1240.01 2055.5,1244.98 
				2055.5,1244.98 2038.47,1254.81 2038.47,1235.15 2038.47,1235.15 			"/>
		</g>
	</g>
</g>
<text transform="matrix(1 0 0 1 1624.2863 1436.0757)"><tspan x="0" y="0" class="st0 st2" style="font-size:41.5609px;">Binh Duong S</tspan><tspan x="263.31" y="0" class="st0 st4" style="font-size:41.5609px;">ervice and Industrial Dev. Corp.</tspan></text>
<g>
	<g>
		<g>
			<path class="st0" d="M97.95,69.02c3.06,4.01,4.6,8.99,4.6,14.94c0,8.2-3.16,14.53-9.46,18.99c-6.31,4.46-15.5,6.69-27.58,6.69
				H18.46V15.02H62.8c11.17,0,19.78,2.19,25.82,6.56c6.04,4.37,9.06,10.39,9.06,18.05c0,4.69-1.08,8.83-3.24,12.44
				c-2.16,3.61-5.14,6.4-8.92,8.38C90.74,62.15,94.88,65.01,97.95,69.02z M36.03,28.81V54.9h24.87c6.13,0,10.84-1.1,14.13-3.31
				c3.29-2.21,4.93-5.43,4.93-9.67c0-4.33-1.65-7.59-4.93-9.8c-3.29-2.21-8-3.31-14.13-3.31H36.03z M84.83,82.2
				c0-9.1-6.81-13.65-20.41-13.65H36.03v27.31h28.39C78.03,95.86,84.83,91.31,84.83,82.2z"/>
			<path class="st0" d="M129.51,107.89c-6.81-2.07-12.19-4.82-16.15-8.25l6.08-13.65c3.87,3.06,8.63,5.57,14.26,7.5
				c5.63,1.94,11.29,2.91,16.97,2.91c7.03,0,12.28-1.13,15.75-3.38c3.47-2.25,5.2-5.23,5.2-8.92c0-2.7-0.97-4.93-2.91-6.69
				c-1.94-1.76-4.39-3.13-7.37-4.12c-2.97-0.99-7.03-2.12-12.17-3.38c-7.21-1.71-13.05-3.42-17.51-5.14
				c-4.46-1.71-8.29-4.39-11.49-8.04c-3.2-3.65-4.8-8.58-4.8-14.8c0-5.23,1.42-9.98,4.26-14.26c2.84-4.28,7.12-7.68,12.84-10.21
				c5.72-2.52,12.73-3.78,21.02-3.78c5.77,0,11.44,0.72,17.03,2.16c5.59,1.44,10.41,3.51,14.46,6.22l-5.54,13.65
				c-4.15-2.43-8.47-4.28-12.98-5.54c-4.51-1.26-8.88-1.89-13.11-1.89c-6.94,0-12.1,1.17-15.48,3.52c-3.38,2.34-5.07,5.45-5.07,9.33
				c0,2.7,0.97,4.91,2.91,6.62c1.94,1.71,4.39,3.06,7.37,4.06c2.97,0.99,7.03,2.12,12.17,3.38c7.03,1.62,12.8,3.31,17.3,5.07
				c4.51,1.76,8.36,4.44,11.56,8.04c3.2,3.61,4.8,8.47,4.8,14.6c0,5.23-1.42,9.96-4.26,14.19c-2.84,4.24-7.14,7.62-12.91,10.14
				c-5.77,2.52-12.8,3.78-21.09,3.78C143.37,111,136.31,109.96,129.51,107.89z"/>
			<path class="st0" d="M335.94,104.71c-7.71-4.19-13.74-9.98-18.11-17.37c-4.37-7.39-6.56-15.73-6.56-25.01
				c0-9.28,2.21-17.62,6.62-25.01c4.41-7.39,10.48-13.18,18.18-17.37c7.71-4.19,16.33-6.29,25.89-6.29c7.75,0,14.82,1.35,21.22,4.06
				c6.4,2.7,11.81,6.62,16.22,11.76l-11.36,10.68c-6.85-7.39-15.28-11.08-25.28-11.08c-6.49,0-12.3,1.42-17.44,4.26
				c-5.14,2.84-9.15,6.78-12.03,11.83c-2.89,5.05-4.33,10.77-4.33,17.17c0,6.4,1.44,12.12,4.33,17.17
				c2.88,5.05,6.89,8.99,12.03,11.83c5.14,2.84,10.95,4.26,17.44,4.26c10,0,18.43-3.74,25.28-11.22l11.36,10.81
				c-4.42,5.14-9.85,9.06-16.29,11.76c-6.44,2.7-13.54,4.06-21.29,4.06C352.27,111,343.64,108.9,335.94,104.71z"/>
		</g>
		<g>
			<g>
				<polygon class="st0" points="227.65,91.93 252.87,106.49 291.11,84.41 291.11,40.25 291.11,40.25 291.11,30.71 299.37,35.48 
					299.37,89.18 252.87,116.03 227.65,101.47 219.39,96.7 219.39,87.16 				"/>
				<polygon class="st0" points="227.65,52.47 231.71,50.12 231.71,50.12 252.87,37.91 265.19,45.02 274.02,50.12 274.02,59.66 
					265.19,54.56 265.19,54.56 252.87,47.44 240.54,54.56 239.97,54.89 239.97,54.89 231.71,59.66 227.65,62 227.65,76.89 
					252.87,91.45 274.02,79.24 278.08,76.89 278.08,69.45 278.08,62 278.08,56.81 278.08,52.47 278.08,47.77 278.08,38.23 
					278.08,32.73 278.08,23.19 286.34,27.96 286.34,37.5 286.34,43 286.34,56.81 286.34,57.23 286.34,69.45 286.34,81.66 
					252.87,100.99 227.65,86.43 219.39,81.66 219.39,63.84 219.39,62.01 219.39,57.23 				"/>
				<polygon class="st0" points="214.64,30.71 252.87,8.63 274.02,20.85 274.02,30.38 252.87,18.17 214.64,40.24 214.62,40.25 
					214.62,45.75 214.62,52.81 214.62,84.41 214.64,84.42 214.64,93.96 206.36,89.18 206.36,35.48 				"/>
				<polygon class="st1" points="252.87,23.67 274.02,35.89 274.02,45.43 252.87,33.21 231.82,45.36 227.65,47.77 227.65,47.77 
					219.39,52.54 219.39,43 219.39,43 				"/>
			</g>
		</g>
	</g>
	<text transform="matrix(1 0 0 1 18.4591 140.4779)"><tspan x="0" y="0" class="st0 st2 st3">Binh Duong S</tspan><tspan x="127.74" y="0" class="st0 st4 st3">ervice and Industrial Dev. Corp.</tspan></text>
</g>
<rect x="725.7" y="3278.73" class="st5" width="7071.96" height="3522.88"/>
<g>
	<g>
		<g>
			<path class="st6" d="M3749.45,5098.75c14.14,18.51,21.21,41.49,21.21,68.95c0,37.85-14.56,67.07-43.67,87.66
				c-29.12,20.59-71.55,30.88-127.28,30.88h-217.13v-436.75h204.65c51.57,0,91.3,10.09,119.17,30.26
				c27.86,20.18,41.8,47.94,41.8,83.29c0,21.63-4.99,40.77-14.97,57.4c-9.98,16.64-23.71,29.54-41.18,38.68
				C3716.17,5067.04,3735.3,5080.25,3749.45,5098.75z M3463.69,4913.13v120.42h114.8c28.28,0,50.01-5.09,65.2-15.29
				c15.18-10.19,22.77-25.05,22.77-44.61c0-19.96-7.59-35.04-22.77-45.23c-15.19-10.19-36.92-15.29-65.2-15.29H3463.69z
				 M3688.93,5159.58c0-42.01-31.41-63.02-94.21-63.02h-131.02v126.03h131.02C3657.52,5222.6,3688.93,5201.6,3688.93,5159.58z"/>
			<path class="st6" d="M3895.13,5278.13c-31.41-9.56-56.26-22.25-74.56-38.06l28.08-63.02c17.88,14.14,39.82,25.69,65.82,34.63
				c25.99,8.95,52.1,13.41,78.3,13.41c32.44,0,56.67-5.2,72.69-15.6c16.01-10.39,24.02-24.12,24.02-41.18
				c0-12.48-4.47-22.77-13.41-30.88c-8.95-8.11-20.28-14.45-34-19.03c-13.73-4.57-32.44-9.77-56.15-15.6
				c-33.28-7.9-60.21-15.8-80.8-23.71c-20.59-7.9-38.27-20.28-53.03-37.12c-14.77-16.85-22.15-39.62-22.15-68.32
				c0-24.12,6.55-46.06,19.65-65.83c13.1-19.75,32.85-35.46,59.27-47.11c26.41-11.64,58.75-17.47,97.02-17.47
				c26.61,0,52.82,3.33,78.61,9.98c25.79,6.66,48.04,16.22,66.76,28.7l-25.58,63.02c-19.14-11.23-39.1-19.75-59.9-25.58
				c-20.8-5.82-40.97-8.73-60.52-8.73c-32.03,0-55.84,5.41-71.44,16.22c-15.6,10.82-23.4,25.17-23.4,43.05
				c0,12.48,4.46,22.67,13.41,30.57c8.94,7.91,20.28,14.15,34,18.72c13.73,4.58,32.44,9.78,56.15,15.6
				c32.44,7.49,59.06,15.29,79.86,23.4c20.79,8.11,38.58,20.49,53.35,37.12c14.76,16.64,22.15,39.1,22.15,67.38
				c0,24.13-6.55,45.96-19.65,65.51c-13.1,19.56-32.97,35.16-59.59,46.8c-26.62,11.64-59.07,17.47-97.33,17.47
				C3959.08,5292.48,3926.53,5287.69,3895.13,5278.13z"/>
			<path class="st6" d="M4847.85,5263.47c-35.56-19.34-63.44-46.06-83.6-80.18c-20.18-34.1-30.26-72.58-30.26-115.42
				c0-42.84,10.19-81.32,30.57-115.43c20.38-34.1,48.35-60.83,83.92-80.18c35.56-19.34,75.39-29.01,119.48-29.01
				c35.77,0,68.42,6.24,97.96,18.72c29.53,12.48,54.49,30.57,74.87,54.28l-52.41,49.29c-31.61-34.1-70.5-51.16-116.67-51.16
				c-29.95,0-56.78,6.55-80.49,19.65c-23.71,13.1-42.22,31.3-55.53,54.59c-13.32,23.3-19.97,49.71-19.97,79.24
				c0,29.54,6.65,55.95,19.97,79.24c13.31,23.3,31.82,41.49,55.53,54.59c23.71,13.1,50.54,19.65,80.49,19.65
				c46.17,0,85.06-17.26,116.67-51.79l52.41,49.91c-20.39,23.71-45.45,41.8-75.18,54.28c-29.74,12.48-62.5,18.72-98.27,18.72
				C4923.24,5292.48,4883.41,5282.81,4847.85,5263.47z"/>
		</g>
		<g>
			<g>
				<polygon class="st6" points="4348.07,5204.48 4464.46,5271.68 4640.96,5169.77 4640.96,4965.96 4640.96,4965.96 
					4640.96,4921.94 4679.09,4943.95 4679.09,5191.78 4464.46,5315.7 4348.07,5248.5 4309.95,5226.49 4309.95,5182.47 				"/>
				<polygon class="st6" points="4348.07,5022.33 4366.83,5011.5 4366.83,5011.5 4464.46,4955.13 4521.34,4987.98 4562.08,5011.5 
					4562.08,5055.52 4521.34,5032 4521.34,5032 4464.46,4999.16 4407.57,5032 4404.95,5033.51 4404.95,5033.52 4366.83,5055.53 
					4348.07,5066.36 4348.07,5135.06 4464.46,5202.26 4562.08,5145.89 4580.84,5135.06 4580.84,5100.71 4580.84,5066.35 
					4580.84,5042.37 4580.84,5022.33 4580.84,5000.67 4580.84,4956.65 4580.84,4931.25 4580.84,4887.23 4618.97,4909.24 
					4618.97,4953.26 4618.97,4978.66 4618.97,5042.37 4618.97,5044.34 4618.97,5100.71 4618.97,5157.07 4464.46,5246.28 
					4348.07,5179.08 4309.95,5157.07 4309.95,5074.82 4309.95,5066.36 4309.95,5044.34 				"/>
				<polygon class="st6" points="4288.01,4921.9 4464.46,4820.03 4562.08,4876.4 4562.08,4920.42 4464.46,4864.06 4288.01,4965.93 
					4287.95,4965.96 4287.95,4991.36 4287.95,5023.91 4287.95,5169.77 4288.01,5169.81 4288.01,5213.83 4249.83,5191.78 
					4249.83,4943.95 				"/>
				<polygon class="st7" points="4464.46,4889.45 4562.08,4945.82 4562.08,4989.84 4464.46,4933.48 4367.34,4989.55 
					4348.07,5000.67 4348.07,5000.67 4309.95,5022.68 4309.95,4978.66 4309.95,4978.66 				"/>
			</g>
		</g>
	</g>
	<text transform="matrix(1 0 0 1 3382.582 5405.5288)"><tspan x="0" y="0" class="st6 st2" style="font-size:67.6905px;">Binh Duong S</tspan><tspan x="428.85" y="0" class="st6 st4" style="font-size:67.6905px;">ervice and Industrial Development Corporation</tspan></text>
</g>
<polygon class="st0" points="421.69,1453.01 -310.89,1453.01 -342.19,1453.01 -342.19,1367.59 -310.89,1367.59 515.59,1367.59 "/>
<polygon class="st0" points="5499.95,1319.38 5518.27,1337.7 5550.01,1337.7 5499.95,1287.65 5449.9,1337.7 5481.63,1337.7 "/>
<polygon class="st8" points="5502.9,1357.63 5534.63,1357.63 5550.01,1342.25 5518.27,1342.25 "/>
<polygon class="st8" points="5481.63,1342.25 5449.9,1342.25 5465.27,1357.63 5497.01,1357.63 "/>
<polygon class="st0" points="5613.37,1319.38 5631.69,1337.7 5663.42,1337.7 5613.37,1287.65 5563.32,1337.7 5595.05,1337.7 "/>
<polygon class="st8" points="5616.31,1357.63 5648.05,1357.63 5663.42,1342.25 5631.69,1342.25 "/>
<polygon class="st8" points="5595.05,1342.25 5563.32,1342.25 5578.69,1357.63 5610.43,1357.63 "/>
<polygon class="st0" points="5556.66,1262.71 5574.98,1281.03 5606.71,1281.03 5556.66,1230.98 5506.61,1281.03 5538.34,1281.03 "/>
<polygon class="st8" points="5559.6,1300.96 5591.34,1300.96 5606.71,1285.58 5574.98,1285.58 "/>
<polygon class="st8" points="5538.34,1285.58 5506.61,1285.58 5521.98,1300.96 5553.72,1300.96 "/>
<polygon class="st0" points="5699.82,1443.03 5556.66,1525.69 5339.55,1400.34 5339.55,1149.64 5339.55,1149.63 5339.55,1095.48 
	5292.65,1122.56 5292.65,1427.41 5556.66,1579.84 5699.82,1497.19 5746.72,1470.11 5746.72,1415.96 "/>
<polygon class="st0" points="5699.82,1218.98 5676.75,1205.66 5676.75,1205.66 5556.66,1136.32 5486.69,1176.72 5436.57,1205.66 
	5436.57,1259.81 5486.69,1230.87 5486.69,1230.87 5556.66,1190.47 5626.63,1230.87 5629.85,1232.73 5629.85,1232.74 
	5676.75,1259.81 5699.82,1273.13 5699.82,1357.64 5556.66,1440.3 5436.57,1370.96 5413.5,1357.64 5413.5,1315.38 5413.5,1273.13 
	5413.5,1243.63 5413.5,1218.98 5413.5,1192.33 5413.5,1138.18 5413.5,1106.94 5413.5,1052.79 5366.6,1079.87 5366.6,1134.02 
	5366.6,1165.26 5366.6,1243.63 5366.6,1246.05 5366.6,1315.38 5366.6,1384.72 5556.66,1494.45 5699.82,1411.79 5746.72,1384.72 
	5746.72,1283.55 5746.72,1273.14 5746.72,1246.06 "/>
<polygon class="st0" points="5773.7,1095.45 5556.66,970.14 5436.57,1039.47 5436.57,1093.62 5556.66,1024.29 5773.7,1149.6 
	5773.77,1149.64 5773.77,1180.88 5773.77,1220.92 5773.77,1400.34 5773.7,1400.38 5773.7,1454.53 5820.67,1427.41 5820.67,1122.56 
	"/>
<polygon class="st8" points="5556.66,1055.53 5436.57,1124.86 5436.57,1179.01 5556.66,1109.68 5676.12,1178.65 5699.82,1192.33 
	5699.82,1192.33 5746.72,1219.41 5746.72,1165.26 5746.72,1165.26 "/>
<g>
	<g>
		<path class="st0" d="M4147.37,2279.77c1.04,1.33,1.56,3,1.56,5.03c0,2.71-1.02,4.8-3.06,6.26c-2.04,1.46-5.01,2.19-8.92,2.19
			h-14.93v-31.29h14.04c3.58,0,6.34,0.72,8.29,2.15c1.95,1.43,2.93,3.41,2.93,5.94c0,1.64-0.38,3.05-1.14,4.25
			c-0.76,1.19-1.78,2.1-3.06,2.73C4144.9,2277.53,4146.33,2278.45,4147.37,2279.77z M4126.5,2265.58v10.01h9.16
			c2.29,0,4.06-0.42,5.3-1.27c1.24-0.85,1.85-2.09,1.85-3.73c0-1.64-0.62-2.88-1.85-3.73c-1.24-0.85-3-1.27-5.3-1.27H4126.5z
			 M4142.5,2288.38c1.28-0.83,1.92-2.15,1.92-3.93c0-3.49-2.55-5.23-7.64-5.23h-10.28v10.41h10.28
			C4139.31,2289.63,4141.22,2289.21,4142.5,2288.38z"/>
		<path class="st0" d="M4177.32,2269.56v23.69h-4.07v-3.58c-0.87,1.22-2,2.17-3.42,2.84c-1.42,0.67-2.96,1.01-4.63,1.01
			c-3.16,0-5.65-0.87-7.46-2.61c-1.82-1.74-2.73-4.31-2.73-7.71v-13.63h4.29v13.14c0,2.3,0.55,4.03,1.65,5.21
			c1.1,1.18,2.68,1.77,4.74,1.77c2.26,0,4.05-0.69,5.36-2.06c1.31-1.37,1.97-3.31,1.97-5.81v-12.25H4177.32z"/>
		<path class="st0" d="M4185.57,2264.2c-0.55-0.54-0.83-1.19-0.83-1.97c0-0.77,0.27-1.44,0.83-1.99c0.55-0.55,1.24-0.83,2.08-0.83
			s1.53,0.26,2.08,0.78c0.55,0.52,0.83,1.17,0.83,1.94c0,0.8-0.28,1.48-0.83,2.03c-0.55,0.55-1.24,0.83-2.08,0.83
			S4186.12,2264.73,4185.57,2264.2z M4185.5,2269.56h4.29v23.69h-4.29V2269.56z"/>
		<path class="st0" d="M4197.97,2260.08h4.29v33.17h-4.29V2260.08z"/>
		<path class="st0" d="M4232.79,2260.08v33.17h-4.11v-3.75c-0.95,1.31-2.16,2.31-3.62,2.99c-1.46,0.69-3.07,1.03-4.83,1.03
			c-2.3,0-4.35-0.51-6.17-1.52c-1.82-1.01-3.24-2.44-4.27-4.27c-1.03-1.83-1.54-3.94-1.54-6.32c0-2.38,0.51-4.48,1.54-6.3
			c1.03-1.82,2.45-3.23,4.27-4.25c1.82-1.01,3.87-1.52,6.17-1.52c1.7,0,3.26,0.32,4.69,0.96c1.43,0.64,2.62,1.59,3.58,2.84v-13.05
			H4232.79z M4224.66,2288.71c1.22-0.7,2.17-1.68,2.86-2.95c0.68-1.27,1.03-2.72,1.03-4.36c0-1.64-0.34-3.09-1.03-4.36
			c-0.69-1.27-1.64-2.24-2.86-2.93c-1.22-0.69-2.58-1.03-4.07-1.03c-1.52,0-2.88,0.34-4.09,1.03c-1.21,0.69-2.16,1.66-2.86,2.93
			c-0.7,1.27-1.05,2.72-1.05,4.36c0,1.64,0.35,3.09,1.05,4.36c0.7,1.27,1.65,2.25,2.86,2.95c1.21,0.7,2.57,1.05,4.09,1.05
			C4222.08,2289.76,4223.43,2289.41,4224.66,2288.71z"/>
		<path class="st0" d="M4240.99,2264.2c-0.55-0.54-0.83-1.19-0.83-1.97c0-0.77,0.27-1.44,0.83-1.99c0.55-0.55,1.24-0.83,2.08-0.83
			s1.53,0.26,2.08,0.78c0.55,0.52,0.83,1.17,0.83,1.94c0,0.8-0.28,1.48-0.83,2.03c-0.55,0.55-1.24,0.83-2.08,0.83
			S4241.54,2264.73,4240.99,2264.2z M4240.93,2269.56h4.29v23.69h-4.29V2269.56z"/>
		<path class="st0" d="M4273.22,2271.95c1.77,1.74,2.66,4.3,2.66,7.67v13.63h-4.29v-13.14c0-2.29-0.55-4.02-1.65-5.19
			c-1.1-1.16-2.68-1.74-4.74-1.74c-2.32,0-4.16,0.68-5.5,2.03c-1.34,1.36-2.01,3.3-2.01,5.83v12.2h-4.29v-23.69h4.11v3.58
			c0.86-1.22,2.03-2.16,3.51-2.82c1.48-0.66,3.15-0.98,5.03-0.98C4269.06,2269.34,4271.45,2270.21,4273.22,2271.95z"/>
		<path class="st0" d="M4306.63,2269.56v20.47c0,4.14-1.03,7.2-3.08,9.19c-2.06,1.98-5.13,2.97-9.21,2.97
			c-2.23,0-4.37-0.31-6.39-0.92c-2.03-0.61-3.67-1.48-4.92-2.61l2.06-3.31c1.1,0.95,2.46,1.71,4.09,2.26
			c1.62,0.55,3.3,0.83,5.03,0.83c2.77,0,4.82-0.66,6.15-1.97c1.32-1.31,1.99-3.31,1.99-5.99v-1.88c-1.01,1.22-2.26,2.14-3.73,2.75
			c-1.47,0.61-3.08,0.92-4.8,0.92c-2.27,0-4.31-0.48-6.15-1.45c-1.83-0.97-3.27-2.32-4.31-4.07c-1.04-1.74-1.56-3.73-1.56-5.97
			c0-2.24,0.52-4.22,1.56-5.97c1.04-1.74,2.48-3.09,4.31-4.04c1.83-0.95,3.88-1.43,6.15-1.43c1.79,0,3.45,0.33,4.98,0.98
			c1.53,0.66,2.79,1.62,3.78,2.91v-3.67H4306.63z M4298.47,2287.53c1.24-0.66,2.2-1.57,2.9-2.75c0.7-1.18,1.05-2.51,1.05-4
			c0-2.29-0.76-4.15-2.28-5.56c-1.52-1.42-3.47-2.12-5.86-2.12c-2.41,0-4.38,0.71-5.9,2.12c-1.52,1.42-2.28,3.27-2.28,5.56
			c0,1.49,0.35,2.82,1.05,4c0.7,1.18,1.67,2.09,2.9,2.75c1.24,0.66,2.64,0.98,4.22,0.98
			C4295.84,2288.51,4297.24,2288.18,4298.47,2287.53z"/>
		<path class="st0" d="M4333.67,2265.85h-10.73v-3.89h25.88v3.89h-10.73v27.4h-4.43V2265.85z"/>
		<path class="st0" d="M4354.41,2291.95c-1.88-1.04-3.35-2.48-4.4-4.31c-1.06-1.83-1.59-3.91-1.59-6.24s0.53-4.4,1.59-6.24
			c1.06-1.83,2.53-3.26,4.4-4.29s3.99-1.54,6.35-1.54c2.35,0,4.46,0.51,6.32,1.54s3.32,2.46,4.38,4.29
			c1.06,1.83,1.59,3.91,1.59,6.24s-0.53,4.4-1.59,6.24c-1.06,1.83-2.52,3.27-4.38,4.31c-1.86,1.04-3.97,1.56-6.32,1.56
			C4358.41,2293.52,4356.29,2293,4354.41,2291.95z M4364.85,2288.71c1.21-0.7,2.15-1.68,2.84-2.95c0.69-1.27,1.03-2.72,1.03-4.36
			c0-1.64-0.34-3.09-1.03-4.36c-0.69-1.27-1.63-2.24-2.84-2.93c-1.21-0.69-2.57-1.03-4.09-1.03s-2.88,0.34-4.09,1.03
			c-1.21,0.69-2.16,1.66-2.86,2.93c-0.7,1.27-1.05,2.72-1.05,4.36c0,1.64,0.35,3.09,1.05,4.36c0.7,1.27,1.65,2.25,2.86,2.95
			c1.21,0.7,2.57,1.05,4.09,1.05S4363.64,2289.41,4364.85,2288.71z"/>
		<path class="st0" d="M4415.72,2271.93c1.74,1.73,2.61,4.29,2.61,7.69v13.63h-4.29v-13.14c0-2.29-0.53-4.02-1.59-5.19
			c-1.06-1.16-2.57-1.74-4.54-1.74c-2.18,0-3.9,0.68-5.19,2.03c-1.28,1.36-1.92,3.3-1.92,5.83v12.2h-4.29v-13.14
			c0-2.29-0.53-4.02-1.59-5.19c-1.06-1.16-2.57-1.74-4.54-1.74c-2.18,0-3.9,0.68-5.19,2.03c-1.28,1.36-1.92,3.3-1.92,5.83v12.2H4379
			v-23.69h4.11v3.53c0.86-1.22,2-2.15,3.4-2.79c1.4-0.64,2.99-0.96,4.78-0.96c1.85,0,3.49,0.37,4.92,1.12
			c1.43,0.75,2.53,1.83,3.31,3.26c0.89-1.37,2.14-2.44,3.73-3.22c1.59-0.77,3.39-1.16,5.39-1.16
			C4411.61,2269.34,4413.97,2270.2,4415.72,2271.93z"/>
		<path class="st0" d="M4430.18,2291.95c-1.88-1.04-3.35-2.48-4.4-4.31c-1.06-1.83-1.59-3.91-1.59-6.24s0.53-4.4,1.59-6.24
			c1.06-1.83,2.53-3.26,4.4-4.29s3.99-1.54,6.35-1.54c2.35,0,4.46,0.51,6.32,1.54s3.32,2.46,4.38,4.29
			c1.06,1.83,1.59,3.91,1.59,6.24s-0.53,4.4-1.59,6.24c-1.06,1.83-2.52,3.27-4.38,4.31c-1.86,1.04-3.97,1.56-6.32,1.56
			C4434.17,2293.52,4432.05,2293,4430.18,2291.95z M4440.61,2288.71c1.21-0.7,2.15-1.68,2.84-2.95c0.68-1.27,1.03-2.72,1.03-4.36
			c0-1.64-0.34-3.09-1.03-4.36c-0.69-1.27-1.63-2.24-2.84-2.93c-1.21-0.69-2.57-1.03-4.09-1.03c-1.52,0-2.88,0.34-4.09,1.03
			c-1.21,0.69-2.16,1.66-2.86,2.93c-0.7,1.27-1.05,2.72-1.05,4.36c0,1.64,0.35,3.09,1.05,4.36c0.7,1.27,1.65,2.25,2.86,2.95
			c1.21,0.7,2.57,1.05,4.09,1.05C4438.04,2289.76,4439.41,2289.41,4440.61,2288.71z"/>
		<path class="st0" d="M4462.18,2270.41c1.46-0.72,3.23-1.07,5.32-1.07v4.16c-0.24-0.03-0.57-0.04-0.98-0.04
			c-2.32,0-4.15,0.69-5.48,2.08s-1.99,3.36-1.99,5.92v11.8h-4.29v-23.69h4.11v3.98C4459.62,2272.17,4460.72,2271.12,4462.18,2270.41
			z"/>
		<path class="st0" d="M4480.19,2270.41c1.46-0.72,3.23-1.07,5.32-1.07v4.16c-0.24-0.03-0.57-0.04-0.98-0.04
			c-2.32,0-4.15,0.69-5.48,2.08s-1.99,3.36-1.99,5.92v11.8h-4.29v-23.69h4.11v3.98C4477.63,2272.17,4478.73,2271.12,4480.19,2270.41
			z"/>
		<path class="st0" d="M4494.36,2291.95c-1.88-1.04-3.35-2.48-4.4-4.31c-1.06-1.83-1.59-3.91-1.59-6.24s0.53-4.4,1.59-6.24
			c1.06-1.83,2.53-3.26,4.4-4.29s3.99-1.54,6.35-1.54c2.35,0,4.46,0.51,6.32,1.54s3.32,2.46,4.38,4.29
			c1.06,1.83,1.59,3.91,1.59,6.24s-0.53,4.4-1.59,6.24c-1.06,1.83-2.52,3.27-4.38,4.31c-1.86,1.04-3.97,1.56-6.32,1.56
			C4498.35,2293.52,4496.24,2293,4494.36,2291.95z M4504.8,2288.71c1.21-0.7,2.15-1.68,2.84-2.95c0.68-1.27,1.03-2.72,1.03-4.36
			c0-1.64-0.34-3.09-1.03-4.36c-0.69-1.27-1.63-2.24-2.84-2.93c-1.21-0.69-2.57-1.03-4.09-1.03s-2.88,0.34-4.09,1.03
			c-1.21,0.69-2.16,1.66-2.86,2.93c-0.7,1.27-1.05,2.72-1.05,4.36c0,1.64,0.35,3.09,1.05,4.36c0.7,1.27,1.65,2.25,2.86,2.95
			c1.21,0.7,2.57,1.05,4.09,1.05S4503.59,2289.41,4504.8,2288.71z"/>
		<path class="st0" d="M4554.12,2269.56l-8.85,23.69h-4.11l-6.84-17.97l-6.93,17.97h-4.11l-8.81-23.69h4.07l6.88,18.86l7.15-18.86
			h3.62l7.02,18.95l7.06-18.95H4554.12z"/>
		<path class="st0" d="M4557.21,2261.96h3.75l-0.31,12.07h-3.17L4557.21,2261.96z"/>
		<path class="st0" d="M4569.05,2292.74c-1.79-0.52-3.19-1.18-4.2-1.99l1.79-3.4c1.04,0.75,2.31,1.34,3.8,1.79
			c1.49,0.45,3,0.67,4.52,0.67c3.75,0,5.63-1.07,5.63-3.22c0-0.72-0.25-1.28-0.76-1.7c-0.51-0.42-1.14-0.72-1.9-0.92
			c-0.76-0.19-1.84-0.41-3.24-0.65c-1.91-0.3-3.46-0.64-4.67-1.03c-1.21-0.39-2.24-1.04-3.11-1.97c-0.86-0.92-1.3-2.22-1.3-3.89
			c0-2.15,0.89-3.87,2.68-5.16c1.79-1.3,4.19-1.94,7.2-1.94c1.58,0,3.16,0.19,4.74,0.58c1.58,0.39,2.88,0.91,3.89,1.56l-1.83,3.4
			c-1.94-1.25-4.22-1.88-6.84-1.88c-1.82,0-3.2,0.3-4.16,0.89c-0.95,0.6-1.43,1.39-1.43,2.37c0,0.78,0.27,1.39,0.8,1.83
			c0.54,0.45,1.2,0.78,1.99,0.98c0.79,0.21,1.9,0.45,3.33,0.72c1.91,0.33,3.45,0.68,4.63,1.05c1.18,0.37,2.18,1.01,3.02,1.9
			c0.83,0.89,1.25,2.15,1.25,3.75c0,2.15-0.92,3.85-2.75,5.12c-1.83,1.27-4.33,1.9-7.49,1.9
			C4572.7,2293.52,4570.84,2293.26,4569.05,2292.74z"/>
		<path class="st0" d="M4602.89,2261.96h13.19c3.31,0,6.24,0.66,8.81,1.97c2.56,1.31,4.55,3.15,5.97,5.52
			c1.41,2.37,2.12,5.09,2.12,8.16c0,3.07-0.71,5.79-2.12,8.16c-1.42,2.37-3.4,4.21-5.97,5.52c-2.56,1.31-5.5,1.97-8.81,1.97h-13.19
			V2261.96z M4615.81,2289.36c2.53,0,4.76-0.49,6.68-1.47c1.92-0.98,3.4-2.36,4.45-4.13c1.04-1.77,1.56-3.82,1.56-6.15
			s-0.52-4.37-1.56-6.15c-1.04-1.77-2.53-3.15-4.45-4.13c-1.92-0.98-4.15-1.48-6.68-1.48h-8.45v23.51H4615.81z"/>
		<path class="st0" d="M4660.5,2282.84h-19.22c0.27,2.09,1.18,3.76,2.75,5.03c1.56,1.27,3.51,1.9,5.83,1.9
			c2.83,0,5.11-0.95,6.84-2.86l2.37,2.77c-1.07,1.25-2.41,2.21-4,2.86c-1.59,0.66-3.38,0.98-5.34,0.98c-2.5,0-4.72-0.51-6.66-1.54
			c-1.94-1.03-3.44-2.47-4.49-4.31c-1.06-1.85-1.59-3.93-1.59-6.26c0-2.29,0.51-4.36,1.54-6.21c1.03-1.85,2.44-3.29,4.25-4.31
			c1.8-1.03,3.84-1.54,6.1-1.54c2.26,0,4.28,0.51,6.06,1.54c1.77,1.03,3.16,2.47,4.16,4.31c1,1.85,1.5,3.96,1.5,6.35
			C4660.59,2281.87,4660.56,2282.3,4660.5,2282.84z M4643.72,2274.83c-1.39,1.25-2.2,2.89-2.44,4.92h15.2
			c-0.24-2-1.05-3.63-2.44-4.89c-1.39-1.27-3.11-1.9-5.16-1.9C4646.83,2272.96,4645.1,2273.58,4643.72,2274.83z"/>
		<path class="st0" d="M4667.74,2292.74c-1.79-0.52-3.19-1.18-4.2-1.99l1.79-3.4c1.04,0.75,2.31,1.34,3.8,1.79
			c1.49,0.45,3,0.67,4.52,0.67c3.75,0,5.63-1.07,5.63-3.22c0-0.72-0.25-1.28-0.76-1.7c-0.51-0.42-1.14-0.72-1.9-0.92
			c-0.76-0.19-1.84-0.41-3.24-0.65c-1.91-0.3-3.46-0.64-4.67-1.03c-1.21-0.39-2.24-1.04-3.11-1.97c-0.86-0.92-1.3-2.22-1.3-3.89
			c0-2.15,0.89-3.87,2.68-5.16c1.79-1.3,4.19-1.94,7.2-1.94c1.58,0,3.16,0.19,4.74,0.58c1.58,0.39,2.88,0.91,3.89,1.56l-1.83,3.4
			c-1.94-1.25-4.22-1.88-6.84-1.88c-1.82,0-3.2,0.3-4.16,0.89c-0.95,0.6-1.43,1.39-1.43,2.37c0,0.78,0.27,1.39,0.8,1.83
			s1.2,0.78,1.99,0.98c0.79,0.21,1.9,0.45,3.33,0.72c1.91,0.33,3.45,0.68,4.63,1.05c1.18,0.37,2.18,1.01,3.02,1.9
			c0.83,0.89,1.25,2.15,1.25,3.75c0,2.15-0.92,3.85-2.75,5.12c-1.83,1.27-4.33,1.9-7.49,1.9
			C4671.39,2293.52,4669.53,2293.26,4667.74,2292.74z"/>
		<path class="st0" d="M4702.25,2291.86c-0.63,0.54-1.4,0.95-2.32,1.23c-0.92,0.28-1.88,0.42-2.86,0.42c-2.38,0-4.23-0.64-5.54-1.92
			c-1.31-1.28-1.97-3.11-1.97-5.5v-13.01h-4.02v-3.53h4.02v-5.19h4.29v5.19h6.79v3.53h-6.79v12.83c0,1.28,0.32,2.27,0.96,2.95
			c0.64,0.69,1.56,1.03,2.75,1.03c1.31,0,2.43-0.37,3.35-1.12L4702.25,2291.86z"/>
		<path class="st0" d="M4707.5,2264.2c-0.55-0.54-0.83-1.19-0.83-1.97c0-0.77,0.27-1.44,0.83-1.99c0.55-0.55,1.24-0.83,2.08-0.83
			s1.53,0.26,2.08,0.78c0.55,0.52,0.83,1.17,0.83,1.94c0,0.8-0.28,1.48-0.83,2.03c-0.55,0.55-1.24,0.83-2.08,0.83
			S4708.05,2264.73,4707.5,2264.2z M4707.44,2269.56h4.29v23.69h-4.29V2269.56z"/>
		<path class="st0" d="M4739.73,2271.95c1.77,1.74,2.66,4.3,2.66,7.67v13.63h-4.29v-13.14c0-2.29-0.55-4.02-1.65-5.19
			c-1.1-1.16-2.68-1.74-4.74-1.74c-2.32,0-4.16,0.68-5.5,2.03c-1.34,1.36-2.01,3.3-2.01,5.83v12.2h-4.29v-23.69h4.11v3.58
			c0.86-1.22,2.03-2.16,3.51-2.82c1.48-0.66,3.15-0.98,5.03-0.98C4735.56,2269.34,4737.96,2270.21,4739.73,2271.95z"/>
		<path class="st0" d="M4766.5,2271.75c1.74,1.61,2.61,4.01,2.61,7.2v14.3h-4.07v-3.13c-0.72,1.1-1.74,1.94-3.06,2.53
			c-1.33,0.58-2.9,0.87-4.72,0.87c-2.65,0-4.78-0.64-6.37-1.92c-1.59-1.28-2.39-2.96-2.39-5.05c0-2.09,0.76-3.76,2.28-5.03
			c1.52-1.27,3.93-1.9,7.24-1.9h6.79v-0.85c0-1.85-0.54-3.26-1.61-4.25c-1.07-0.98-2.65-1.47-4.74-1.47c-1.4,0-2.77,0.23-4.11,0.69
			s-2.47,1.08-3.4,1.85l-1.79-3.22c1.22-0.98,2.68-1.74,4.38-2.26c1.7-0.52,3.5-0.78,5.41-0.78
			C4762.25,2269.34,4764.76,2270.14,4766.5,2271.75z M4762.23,2289.12c1.19-0.73,2.06-1.77,2.59-3.11v-3.31h-6.62
			c-3.64,0-5.45,1.22-5.45,3.67c0,1.19,0.46,2.13,1.39,2.82c0.92,0.69,2.2,1.03,3.84,1.03
			C4759.63,2290.21,4761.04,2289.85,4762.23,2289.12z"/>
		<path class="st0" d="M4790.4,2291.86c-0.63,0.54-1.4,0.95-2.32,1.23c-0.92,0.28-1.88,0.42-2.86,0.42c-2.38,0-4.23-0.64-5.54-1.92
			c-1.31-1.28-1.97-3.11-1.97-5.5v-13.01h-4.02v-3.53h4.02v-5.19h4.29v5.19h6.79v3.53h-6.79v12.83c0,1.28,0.32,2.27,0.96,2.95
			c0.64,0.69,1.56,1.03,2.75,1.03c1.31,0,2.43-0.37,3.35-1.12L4790.4,2291.86z"/>
		<path class="st0" d="M4795.65,2264.2c-0.55-0.54-0.83-1.19-0.83-1.97c0-0.77,0.27-1.44,0.83-1.99c0.55-0.55,1.24-0.83,2.08-0.83
			s1.53,0.26,2.08,0.78c0.55,0.52,0.83,1.17,0.83,1.94c0,0.8-0.28,1.48-0.83,2.03c-0.55,0.55-1.24,0.83-2.08,0.83
			S4796.2,2264.73,4795.65,2264.2z M4795.58,2269.56h4.29v23.69h-4.29V2269.56z"/>
		<path class="st0" d="M4811.85,2291.95c-1.88-1.04-3.35-2.48-4.4-4.31c-1.06-1.83-1.59-3.91-1.59-6.24s0.53-4.4,1.59-6.24
			c1.06-1.83,2.53-3.26,4.4-4.29c1.88-1.03,3.99-1.54,6.35-1.54c2.35,0,4.46,0.51,6.32,1.54s3.32,2.46,4.38,4.29
			c1.06,1.83,1.59,3.91,1.59,6.24s-0.53,4.4-1.59,6.24c-1.06,1.83-2.52,3.27-4.38,4.31c-1.86,1.04-3.97,1.56-6.32,1.56
			C4815.84,2293.52,4813.73,2293,4811.85,2291.95z M4822.29,2288.71c1.21-0.7,2.15-1.68,2.84-2.95c0.68-1.27,1.03-2.72,1.03-4.36
			c0-1.64-0.34-3.09-1.03-4.36c-0.69-1.27-1.63-2.24-2.84-2.93c-1.21-0.69-2.57-1.03-4.09-1.03c-1.52,0-2.88,0.34-4.09,1.03
			c-1.21,0.69-2.16,1.66-2.86,2.93c-0.7,1.27-1.05,2.72-1.05,4.36c0,1.64,0.35,3.09,1.05,4.36c0.7,1.27,1.65,2.25,2.86,2.95
			c1.21,0.7,2.57,1.05,4.09,1.05C4819.72,2289.76,4821.08,2289.41,4822.29,2288.71z"/>
		<path class="st0" d="M4856.26,2271.95c1.77,1.74,2.66,4.3,2.66,7.67v13.63h-4.29v-13.14c0-2.29-0.55-4.02-1.65-5.19
			c-1.1-1.16-2.68-1.74-4.74-1.74c-2.32,0-4.16,0.68-5.5,2.03c-1.34,1.36-2.01,3.3-2.01,5.83v12.2h-4.29v-23.69h4.11v3.58
			c0.86-1.22,2.03-2.16,3.51-2.82c1.48-0.66,3.15-0.98,5.03-0.98C4852.09,2269.34,4854.48,2270.21,4856.26,2271.95z"/>
		<path class="st0" d="M4868.08,2292.74c-1.79-0.52-3.19-1.18-4.2-1.99l1.79-3.4c1.04,0.75,2.31,1.34,3.8,1.79
			c1.49,0.45,3,0.67,4.52,0.67c3.75,0,5.63-1.07,5.63-3.22c0-0.72-0.25-1.28-0.76-1.7c-0.51-0.42-1.14-0.72-1.9-0.92
			c-0.76-0.19-1.84-0.41-3.24-0.65c-1.91-0.3-3.46-0.64-4.67-1.03c-1.21-0.39-2.24-1.04-3.11-1.97c-0.86-0.92-1.3-2.22-1.3-3.89
			c0-2.15,0.89-3.87,2.68-5.16c1.79-1.3,4.19-1.94,7.2-1.94c1.58,0,3.16,0.19,4.74,0.58c1.58,0.39,2.88,0.91,3.89,1.56l-1.83,3.4
			c-1.94-1.25-4.22-1.88-6.84-1.88c-1.82,0-3.2,0.3-4.16,0.89c-0.95,0.6-1.43,1.39-1.43,2.37c0,0.78,0.27,1.39,0.8,1.83
			c0.54,0.45,1.2,0.78,1.99,0.98c0.79,0.21,1.9,0.45,3.33,0.72c1.91,0.33,3.45,0.68,4.63,1.05c1.18,0.37,2.18,1.01,3.02,1.9
			c0.83,0.89,1.25,2.15,1.25,3.75c0,2.15-0.92,3.85-2.75,5.12c-1.83,1.27-4.33,1.9-7.49,1.9
			C4871.73,2293.52,4869.87,2293.26,4868.08,2292.74z"/>
	</g>
</g>
<path class="st0" d="M4122.03,2033.3h90.06c22.35,0,39.26,5.73,50.71,17.18c8.87,8.87,13.3,19.86,13.3,32.98v0.55
	c0,5.54-0.69,10.44-2.08,14.69c-1.39,4.25-3.23,8.08-5.54,11.5c-2.31,3.42-4.99,6.42-8.04,9.01c-3.05,2.59-6.33,4.81-9.84,6.65
	c11.27,4.25,20.13,10.02,26.6,17.32c6.46,7.3,9.7,17.42,9.7,30.34v0.55c0,8.87-1.71,16.63-5.13,23.28
	c-3.42,6.65-8.31,12.19-14.69,16.63c-6.37,4.43-14.04,7.76-23,9.98c-8.96,2.22-18.89,3.33-29.79,3.33h-92.28V2033.3z
	 M4233.71,2090.66c0-6.46-2.4-11.41-7.21-14.83c-4.81-3.42-11.73-5.13-20.78-5.13h-42.12v41.01h39.35c9.42,0,16.9-1.62,22.45-4.85
	c5.54-3.23,8.31-8.45,8.31-15.66V2090.66z M4244.52,2168.26c0-6.46-2.49-11.59-7.48-15.38c-4.99-3.78-13.02-5.68-24.11-5.68h-49.33
	v42.68h50.71c9.42,0,16.81-1.71,22.17-5.13c5.36-3.42,8.04-8.73,8.04-15.93V2168.26z"/>
<path class="st0" d="M4364.51,2072.65h-59.03v-39.35h160.73v39.35h-59.03v154.63h-42.68V2072.65z"/>
<path class="st0" d="M4498.91,2033.3h75.65c15.15,0,29.05,2.45,41.71,7.34c12.65,4.9,23.56,11.69,32.7,20.37
	c9.14,8.69,16.21,18.89,21.2,30.62c4.99,11.73,7.48,24.43,7.48,38.1v0.55c0,13.67-2.49,26.42-7.48,38.24
	c-4.99,11.83-12.05,22.08-21.2,30.76c-9.15,8.69-20.05,15.52-32.7,20.51c-12.66,4.99-26.56,7.48-41.71,7.48h-75.65V2033.3z
	 M4541.59,2071.82v116.94h32.98c8.68,0,16.63-1.39,23.83-4.16c7.21-2.77,13.35-6.74,18.43-11.92c5.08-5.17,9.05-11.27,11.92-18.29
	c2.86-7.02,4.3-14.87,4.3-23.56v-0.55c0-8.5-1.43-16.35-4.3-23.56c-2.87-7.21-6.84-13.39-11.92-18.57
	c-5.08-5.17-11.22-9.19-18.43-12.05c-7.21-2.86-15.15-4.3-23.83-4.3H4541.59z"/>
<path class="st0" d="M4715.62,2033.3h88.68c24.57,0,43.41,6.56,56.53,19.68c11.08,11.08,16.63,25.87,16.63,44.34v0.55
	c0,15.7-3.84,28.5-11.5,38.38c-7.67,9.89-17.69,17.14-30.07,21.75l47.39,69.28h-49.88l-41.57-62.07h-33.53v62.07h-42.68V2033.3z
	 M4801.52,2127.52c10.53,0,18.61-2.49,24.25-7.48c5.63-4.99,8.45-11.64,8.45-19.95v-0.55c0-9.24-2.96-16.16-8.87-20.78
	c-5.91-4.62-14.13-6.93-24.66-6.93h-42.4v55.7H4801.52z"/>
<polygon class="st0" points="3807.09,2201.44 3821.91,2216.25 3847.57,2216.25 3807.09,2175.78 3766.62,2216.25 3792.28,2216.25 "/>
<polygon class="st8" points="3809.47,2232.37 3835.14,2232.37 3847.57,2219.93 3821.91,2219.93 "/>
<polygon class="st8" points="3792.28,2219.93 3766.62,2219.93 3779.05,2232.37 3804.71,2232.37 "/>
<polygon class="st0" points="3898.81,2201.44 3913.62,2216.25 3939.28,2216.25 3898.81,2175.78 3858.33,2216.25 3883.99,2216.25 "/>
<polygon class="st8" points="3901.19,2232.37 3926.85,2232.37 3939.28,2219.93 3913.62,2219.93 "/>
<polygon class="st8" points="3883.99,2219.93 3858.33,2219.93 3870.76,2232.37 3896.43,2232.37 "/>
<g>
	<polygon class="st0" points="3852.95,2155.61 3867.76,2170.43 3893.42,2170.43 3852.95,2129.95 3812.47,2170.43 3838.14,2170.43 	
		"/>
	<polygon class="st8" points="3855.33,2186.54 3880.99,2186.54 3893.42,2174.11 3867.76,2174.11 	"/>
	<polygon class="st8" points="3838.14,2174.11 3812.47,2174.11 3824.91,2186.54 3850.57,2186.54 	"/>
</g>
<g>
	<polygon class="st0" points="3968.72,2301.43 3852.95,2368.27 3677.38,2266.9 3677.38,2064.18 3677.39,2064.18 3677.39,2020.39 
		3639.46,2042.28 3639.46,2288.8 3852.95,2412.06 3968.72,2345.22 4006.64,2323.32 4006.64,2279.54 	"/>
	<polygon class="st0" points="3968.72,2120.25 3950.06,2109.48 3950.06,2109.48 3852.95,2053.41 3796.37,2086.08 3755.84,2109.48 
		3755.84,2153.26 3796.37,2129.86 3796.37,2129.86 3852.95,2097.2 3909.53,2129.86 3912.14,2131.37 3912.14,2131.37 
		3950.06,2153.27 3968.72,2164.04 3968.72,2232.38 3852.95,2299.22 3755.84,2243.15 3737.18,2232.38 3737.18,2198.21 
		3737.18,2164.04 3737.18,2140.18 3737.18,2120.25 3737.18,2098.7 3737.18,2054.92 3737.18,2029.65 3737.18,1985.87 
		3699.26,2007.76 3699.26,2051.55 3699.26,2076.81 3699.26,2140.18 3699.26,2142.14 3699.26,2198.21 3699.26,2254.27 3852.95,2343 
		3968.72,2276.17 4006.64,2254.27 4006.64,2172.46 4006.64,2164.05 4006.64,2142.15 	"/>
	<polygon class="st0" points="4028.46,2020.36 3852.95,1919.03 3755.84,1975.09 3755.84,2018.88 3852.95,1962.82 4028.46,2064.14 
		4028.52,2064.18 4028.52,2089.44 4028.52,2121.82 4028.52,2266.9 4028.46,2266.94 4028.46,2310.73 4066.44,2288.8 4066.44,2042.28 
			"/>
	<polygon class="st8" points="3852.95,1988.08 3755.84,2044.14 3755.84,2087.93 3852.95,2031.87 3949.55,2087.64 3968.72,2098.7 
		3968.72,2098.7 4006.64,2120.6 4006.64,2076.81 4006.64,2076.81 	"/>
</g>
<g>
	<g>
		<path class="st0" d="M4147.37,1389.22c1.04,1.33,1.56,3,1.56,5.03c0,2.71-1.02,4.8-3.06,6.26c-2.04,1.46-5.01,2.19-8.92,2.19
			h-14.93v-31.29h14.04c3.58,0,6.34,0.72,8.29,2.15c1.95,1.43,2.93,3.41,2.93,5.94c0,1.64-0.38,3.05-1.14,4.25
			c-0.76,1.19-1.78,2.1-3.06,2.73C4144.9,1386.98,4146.33,1387.89,4147.37,1389.22z M4126.5,1375.03v10.01h9.16
			c2.29,0,4.06-0.42,5.3-1.27c1.24-0.85,1.85-2.09,1.85-3.73c0-1.64-0.62-2.88-1.85-3.73c-1.24-0.85-3-1.27-5.3-1.27H4126.5z
			 M4142.5,1397.82c1.28-0.83,1.92-2.15,1.92-3.93c0-3.49-2.55-5.23-7.64-5.23h-10.28v10.41h10.28
			C4139.31,1399.08,4141.22,1398.66,4142.5,1397.82z"/>
		<path class="st0" d="M4177.32,1379.01v23.69h-4.07v-3.58c-0.87,1.22-2,2.17-3.42,2.84c-1.42,0.67-2.96,1.01-4.63,1.01
			c-3.16,0-5.65-0.87-7.46-2.61c-1.82-1.74-2.73-4.31-2.73-7.71v-13.63h4.29v13.14c0,2.3,0.55,4.03,1.65,5.21
			c1.1,1.18,2.68,1.77,4.74,1.77c2.26,0,4.05-0.69,5.36-2.06c1.31-1.37,1.97-3.31,1.97-5.81v-12.25H4177.32z"/>
		<path class="st0" d="M4185.57,1373.64c-0.55-0.54-0.83-1.19-0.83-1.97c0-0.77,0.27-1.44,0.83-1.99c0.55-0.55,1.24-0.83,2.08-0.83
			s1.53,0.26,2.08,0.78c0.55,0.52,0.83,1.17,0.83,1.94c0,0.8-0.28,1.48-0.83,2.03c-0.55,0.55-1.24,0.83-2.08,0.83
			S4186.12,1374.18,4185.57,1373.64z M4185.5,1379.01h4.29v23.69h-4.29V1379.01z"/>
		<path class="st0" d="M4197.97,1369.53h4.29v33.17h-4.29V1369.53z"/>
		<path class="st0" d="M4232.79,1369.53v33.17h-4.11v-3.75c-0.95,1.31-2.16,2.31-3.62,2.99c-1.46,0.69-3.07,1.03-4.83,1.03
			c-2.3,0-4.35-0.51-6.17-1.52c-1.82-1.01-3.24-2.44-4.27-4.27s-1.54-3.94-1.54-6.32c0-2.38,0.51-4.48,1.54-6.3
			c1.03-1.82,2.45-3.23,4.27-4.25c1.82-1.01,3.87-1.52,6.17-1.52c1.7,0,3.26,0.32,4.69,0.96c1.43,0.64,2.62,1.59,3.58,2.84v-13.05
			H4232.79z M4224.66,1398.16c1.22-0.7,2.17-1.68,2.86-2.95c0.68-1.27,1.03-2.72,1.03-4.36c0-1.64-0.34-3.09-1.03-4.36
			c-0.69-1.27-1.64-2.24-2.86-2.93c-1.22-0.69-2.58-1.03-4.07-1.03c-1.52,0-2.88,0.34-4.09,1.03c-1.21,0.69-2.16,1.66-2.86,2.93
			c-0.7,1.27-1.05,2.72-1.05,4.36c0,1.64,0.35,3.09,1.05,4.36c0.7,1.27,1.65,2.25,2.86,2.95c1.21,0.7,2.57,1.05,4.09,1.05
			C4222.08,1399.21,4223.43,1398.86,4224.66,1398.16z"/>
		<path class="st0" d="M4240.99,1373.64c-0.55-0.54-0.83-1.19-0.83-1.97c0-0.77,0.27-1.44,0.83-1.99c0.55-0.55,1.24-0.83,2.08-0.83
			s1.53,0.26,2.08,0.78c0.55,0.52,0.83,1.17,0.83,1.94c0,0.8-0.28,1.48-0.83,2.03c-0.55,0.55-1.24,0.83-2.08,0.83
			S4241.54,1374.18,4240.99,1373.64z M4240.93,1379.01h4.29v23.69h-4.29V1379.01z"/>
		<path class="st0" d="M4273.22,1381.4c1.77,1.74,2.66,4.3,2.66,7.67v13.63h-4.29v-13.14c0-2.29-0.55-4.02-1.65-5.19
			c-1.1-1.16-2.68-1.74-4.74-1.74c-2.32,0-4.16,0.68-5.5,2.03c-1.34,1.36-2.01,3.3-2.01,5.83v12.2h-4.29v-23.69h4.11v3.58
			c0.86-1.22,2.03-2.16,3.51-2.82c1.48-0.66,3.15-0.98,5.03-0.98C4269.06,1378.78,4271.45,1379.65,4273.22,1381.4z"/>
		<path class="st0" d="M4306.63,1379.01v20.47c0,4.14-1.03,7.2-3.08,9.19c-2.06,1.98-5.13,2.97-9.21,2.97
			c-2.23,0-4.37-0.31-6.39-0.92c-2.03-0.61-3.67-1.48-4.92-2.61l2.06-3.31c1.1,0.95,2.46,1.71,4.09,2.26
			c1.62,0.55,3.3,0.83,5.03,0.83c2.77,0,4.82-0.66,6.15-1.97c1.32-1.31,1.99-3.31,1.99-5.99v-1.88c-1.01,1.22-2.26,2.14-3.73,2.75
			c-1.47,0.61-3.08,0.92-4.8,0.92c-2.27,0-4.31-0.48-6.15-1.45c-1.83-0.97-3.27-2.32-4.31-4.07c-1.04-1.74-1.56-3.73-1.56-5.97
			c0-2.24,0.52-4.22,1.56-5.97c1.04-1.74,2.48-3.09,4.31-4.05c1.83-0.95,3.88-1.43,6.15-1.43c1.79,0,3.45,0.33,4.98,0.98
			c1.53,0.66,2.79,1.62,3.78,2.91v-3.67H4306.63z M4298.47,1396.98c1.24-0.66,2.2-1.57,2.9-2.75c0.7-1.18,1.05-2.51,1.05-4
			c0-2.29-0.76-4.15-2.28-5.57c-1.52-1.42-3.47-2.12-5.86-2.12c-2.41,0-4.38,0.71-5.9,2.12c-1.52,1.42-2.28,3.27-2.28,5.57
			c0,1.49,0.35,2.82,1.05,4c0.7,1.18,1.67,2.09,2.9,2.75c1.24,0.66,2.64,0.98,4.22,0.98
			C4295.84,1397.96,4297.24,1397.63,4298.47,1396.98z"/>
		<path class="st0" d="M4333.67,1375.3h-10.73v-3.89h25.88v3.89h-10.73v27.4h-4.43V1375.3z"/>
		<path class="st0" d="M4354.41,1401.4c-1.88-1.04-3.35-2.48-4.4-4.31c-1.06-1.83-1.59-3.91-1.59-6.24c0-2.32,0.53-4.4,1.59-6.24
			c1.06-1.83,2.53-3.26,4.4-4.29c1.88-1.03,3.99-1.54,6.35-1.54c2.35,0,4.46,0.51,6.32,1.54c1.86,1.03,3.32,2.46,4.38,4.29
			c1.06,1.83,1.59,3.91,1.59,6.24c0,2.32-0.53,4.4-1.59,6.24c-1.06,1.83-2.52,3.27-4.38,4.31c-1.86,1.04-3.97,1.56-6.32,1.56
			C4358.41,1402.97,4356.29,1402.44,4354.41,1401.4z M4364.85,1398.16c1.21-0.7,2.15-1.68,2.84-2.95c0.69-1.27,1.03-2.72,1.03-4.36
			c0-1.64-0.34-3.09-1.03-4.36c-0.69-1.27-1.63-2.24-2.84-2.93c-1.21-0.69-2.57-1.03-4.09-1.03s-2.88,0.34-4.09,1.03
			c-1.21,0.69-2.16,1.66-2.86,2.93c-0.7,1.27-1.05,2.72-1.05,4.36c0,1.64,0.35,3.09,1.05,4.36c0.7,1.27,1.65,2.25,2.86,2.95
			c1.21,0.7,2.57,1.05,4.09,1.05S4363.64,1398.86,4364.85,1398.16z"/>
		<path class="st0" d="M4415.72,1381.38c1.74,1.73,2.61,4.29,2.61,7.69v13.63h-4.29v-13.14c0-2.29-0.53-4.02-1.59-5.19
			c-1.06-1.16-2.57-1.74-4.54-1.74c-2.18,0-3.9,0.68-5.19,2.03c-1.28,1.36-1.92,3.3-1.92,5.83v12.2h-4.29v-13.14
			c0-2.29-0.53-4.02-1.59-5.19c-1.06-1.16-2.57-1.74-4.54-1.74c-2.18,0-3.9,0.68-5.19,2.03c-1.28,1.36-1.92,3.3-1.92,5.83v12.2H4379
			v-23.69h4.11v3.53c0.86-1.22,2-2.15,3.4-2.79c1.4-0.64,2.99-0.96,4.78-0.96c1.85,0,3.49,0.37,4.92,1.12
			c1.43,0.75,2.53,1.83,3.31,3.26c0.89-1.37,2.14-2.44,3.73-3.22c1.59-0.77,3.39-1.16,5.39-1.16
			C4411.61,1378.78,4413.97,1379.65,4415.72,1381.38z"/>
		<path class="st0" d="M4430.18,1401.4c-1.88-1.04-3.35-2.48-4.4-4.31c-1.06-1.83-1.59-3.91-1.59-6.24c0-2.32,0.53-4.4,1.59-6.24
			c1.06-1.83,2.53-3.26,4.4-4.29c1.88-1.03,3.99-1.54,6.35-1.54c2.35,0,4.46,0.51,6.32,1.54c1.86,1.03,3.32,2.46,4.38,4.29
			c1.06,1.83,1.59,3.91,1.59,6.24c0,2.32-0.53,4.4-1.59,6.24c-1.06,1.83-2.52,3.27-4.38,4.31c-1.86,1.04-3.97,1.56-6.32,1.56
			C4434.17,1402.97,4432.05,1402.44,4430.18,1401.4z M4440.61,1398.16c1.21-0.7,2.15-1.68,2.84-2.95c0.68-1.27,1.03-2.72,1.03-4.36
			c0-1.64-0.34-3.09-1.03-4.36c-0.69-1.27-1.63-2.24-2.84-2.93c-1.21-0.69-2.57-1.03-4.09-1.03c-1.52,0-2.88,0.34-4.09,1.03
			c-1.21,0.69-2.16,1.66-2.86,2.93c-0.7,1.27-1.05,2.72-1.05,4.36c0,1.64,0.35,3.09,1.05,4.36c0.7,1.27,1.65,2.25,2.86,2.95
			c1.21,0.7,2.57,1.05,4.09,1.05C4438.04,1399.21,4439.41,1398.86,4440.61,1398.16z"/>
		<path class="st0" d="M4462.18,1379.86c1.46-0.72,3.23-1.07,5.32-1.07v4.16c-0.24-0.03-0.57-0.04-0.98-0.04
			c-2.32,0-4.15,0.69-5.48,2.08s-1.99,3.36-1.99,5.92v11.8h-4.29v-23.69h4.11v3.98C4459.62,1381.61,4460.72,1380.57,4462.18,1379.86
			z"/>
		<path class="st0" d="M4480.19,1379.86c1.46-0.72,3.23-1.07,5.32-1.07v4.16c-0.24-0.03-0.57-0.04-0.98-0.04
			c-2.32,0-4.15,0.69-5.48,2.08s-1.99,3.36-1.99,5.92v11.8h-4.29v-23.69h4.11v3.98C4477.63,1381.61,4478.73,1380.57,4480.19,1379.86
			z"/>
		<path class="st0" d="M4494.36,1401.4c-1.88-1.04-3.35-2.48-4.4-4.31c-1.06-1.83-1.59-3.91-1.59-6.24c0-2.32,0.53-4.4,1.59-6.24
			c1.06-1.83,2.53-3.26,4.4-4.29c1.88-1.03,3.99-1.54,6.35-1.54c2.35,0,4.46,0.51,6.32,1.54c1.86,1.03,3.32,2.46,4.38,4.29
			c1.06,1.83,1.59,3.91,1.59,6.24c0,2.32-0.53,4.4-1.59,6.24c-1.06,1.83-2.52,3.27-4.38,4.31c-1.86,1.04-3.97,1.56-6.32,1.56
			C4498.35,1402.97,4496.24,1402.44,4494.36,1401.4z M4504.8,1398.16c1.21-0.7,2.15-1.68,2.84-2.95c0.68-1.27,1.03-2.72,1.03-4.36
			c0-1.64-0.34-3.09-1.03-4.36c-0.69-1.27-1.63-2.24-2.84-2.93c-1.21-0.69-2.57-1.03-4.09-1.03s-2.88,0.34-4.09,1.03
			c-1.21,0.69-2.16,1.66-2.86,2.93c-0.7,1.27-1.05,2.72-1.05,4.36c0,1.64,0.35,3.09,1.05,4.36c0.7,1.27,1.65,2.25,2.86,2.95
			c1.21,0.7,2.57,1.05,4.09,1.05S4503.59,1398.86,4504.8,1398.16z"/>
		<path class="st0" d="M4554.12,1379.01l-8.85,23.69h-4.11l-6.84-17.97l-6.93,17.97h-4.11l-8.81-23.69h4.07l6.88,18.86l7.15-18.86
			h3.62l7.02,18.95l7.06-18.95H4554.12z"/>
		<path class="st0" d="M4557.21,1371.41h3.75l-0.31,12.07h-3.17L4557.21,1371.41z"/>
		<path class="st0" d="M4569.05,1402.18c-1.79-0.52-3.19-1.18-4.2-1.99l1.79-3.4c1.04,0.75,2.31,1.34,3.8,1.79
			c1.49,0.45,3,0.67,4.52,0.67c3.75,0,5.63-1.07,5.63-3.22c0-0.72-0.25-1.28-0.76-1.7c-0.51-0.42-1.14-0.72-1.9-0.92
			c-0.76-0.19-1.84-0.41-3.24-0.65c-1.91-0.3-3.46-0.64-4.67-1.03c-1.21-0.39-2.24-1.04-3.11-1.97c-0.86-0.92-1.3-2.22-1.3-3.89
			c0-2.15,0.89-3.87,2.68-5.16c1.79-1.3,4.19-1.94,7.2-1.94c1.58,0,3.16,0.19,4.74,0.58c1.58,0.39,2.88,0.91,3.89,1.56l-1.83,3.4
			c-1.94-1.25-4.22-1.88-6.84-1.88c-1.82,0-3.2,0.3-4.16,0.89c-0.95,0.6-1.43,1.39-1.43,2.37c0,0.78,0.27,1.39,0.8,1.83
			c0.54,0.45,1.2,0.78,1.99,0.98c0.79,0.21,1.9,0.45,3.33,0.72c1.91,0.33,3.45,0.68,4.63,1.05c1.18,0.37,2.18,1.01,3.02,1.9
			s1.25,2.15,1.25,3.75c0,2.15-0.92,3.85-2.75,5.12c-1.83,1.27-4.33,1.9-7.49,1.9C4572.7,1402.97,4570.84,1402.7,4569.05,1402.18z"
			/>
		<path class="st0" d="M4602.89,1371.41h13.19c3.31,0,6.24,0.66,8.81,1.97c2.56,1.31,4.55,3.15,5.97,5.52
			c1.41,2.37,2.12,5.09,2.12,8.16c0,3.07-0.71,5.79-2.12,8.16c-1.42,2.37-3.4,4.21-5.97,5.52c-2.56,1.31-5.5,1.97-8.81,1.97h-13.19
			V1371.41z M4615.81,1398.81c2.53,0,4.76-0.49,6.68-1.47c1.92-0.98,3.4-2.36,4.45-4.13c1.04-1.77,1.56-3.82,1.56-6.15
			c0-2.32-0.52-4.37-1.56-6.15c-1.04-1.77-2.53-3.15-4.45-4.13c-1.92-0.98-4.15-1.48-6.68-1.48h-8.45v23.51H4615.81z"/>
		<path class="st0" d="M4660.5,1392.28h-19.22c0.27,2.09,1.18,3.76,2.75,5.03c1.56,1.27,3.51,1.9,5.83,1.9
			c2.83,0,5.11-0.95,6.84-2.86l2.37,2.77c-1.07,1.25-2.41,2.21-4,2.86c-1.59,0.66-3.38,0.98-5.34,0.98c-2.5,0-4.72-0.51-6.66-1.54
			c-1.94-1.03-3.44-2.47-4.49-4.31c-1.06-1.85-1.59-3.93-1.59-6.26c0-2.29,0.51-4.36,1.54-6.21c1.03-1.85,2.44-3.29,4.25-4.31
			c1.8-1.03,3.84-1.54,6.1-1.54c2.26,0,4.28,0.51,6.06,1.54c1.77,1.03,3.16,2.47,4.16,4.31c1,1.85,1.5,3.96,1.5,6.35
			C4660.59,1391.31,4660.56,1391.75,4660.5,1392.28z M4643.72,1384.28c-1.39,1.25-2.2,2.89-2.44,4.92h15.2
			c-0.24-2-1.05-3.63-2.44-4.89c-1.39-1.27-3.11-1.9-5.16-1.9C4646.83,1382.4,4645.1,1383.03,4643.72,1384.28z"/>
		<path class="st0" d="M4667.74,1402.18c-1.79-0.52-3.19-1.18-4.2-1.99l1.79-3.4c1.04,0.75,2.31,1.34,3.8,1.79
			c1.49,0.45,3,0.67,4.52,0.67c3.75,0,5.63-1.07,5.63-3.22c0-0.72-0.25-1.28-0.76-1.7c-0.51-0.42-1.14-0.72-1.9-0.92
			c-0.76-0.19-1.84-0.41-3.24-0.65c-1.91-0.3-3.46-0.64-4.67-1.03c-1.21-0.39-2.24-1.04-3.11-1.97c-0.86-0.92-1.3-2.22-1.3-3.89
			c0-2.15,0.89-3.87,2.68-5.16c1.79-1.3,4.19-1.94,7.2-1.94c1.58,0,3.16,0.19,4.74,0.58c1.58,0.39,2.88,0.91,3.89,1.56l-1.83,3.4
			c-1.94-1.25-4.22-1.88-6.84-1.88c-1.82,0-3.2,0.3-4.16,0.89c-0.95,0.6-1.43,1.39-1.43,2.37c0,0.78,0.27,1.39,0.8,1.83
			c0.54,0.45,1.2,0.78,1.99,0.98c0.79,0.21,1.9,0.45,3.33,0.72c1.91,0.33,3.45,0.68,4.63,1.05c1.18,0.37,2.18,1.01,3.02,1.9
			c0.83,0.89,1.25,2.15,1.25,3.75c0,2.15-0.92,3.85-2.75,5.12c-1.83,1.27-4.33,1.9-7.49,1.9
			C4671.39,1402.97,4669.53,1402.7,4667.74,1402.18z"/>
		<path class="st0" d="M4702.25,1401.31c-0.63,0.54-1.4,0.95-2.32,1.23c-0.92,0.28-1.88,0.42-2.86,0.42c-2.38,0-4.23-0.64-5.54-1.92
			c-1.31-1.28-1.97-3.11-1.97-5.5v-13.01h-4.02v-3.53h4.02v-5.18h4.29v5.18h6.79v3.53h-6.79v12.83c0,1.28,0.32,2.27,0.96,2.95
			c0.64,0.69,1.56,1.03,2.75,1.03c1.31,0,2.43-0.37,3.35-1.12L4702.25,1401.31z"/>
		<path class="st0" d="M4707.5,1373.64c-0.55-0.54-0.83-1.19-0.83-1.97c0-0.77,0.27-1.44,0.83-1.99c0.55-0.55,1.24-0.83,2.08-0.83
			s1.53,0.26,2.08,0.78c0.55,0.52,0.83,1.17,0.83,1.94c0,0.8-0.28,1.48-0.83,2.03c-0.55,0.55-1.24,0.83-2.08,0.83
			S4708.05,1374.18,4707.5,1373.64z M4707.44,1379.01h4.29v23.69h-4.29V1379.01z"/>
		<path class="st0" d="M4739.73,1381.4c1.77,1.74,2.66,4.3,2.66,7.67v13.63h-4.29v-13.14c0-2.29-0.55-4.02-1.65-5.19
			c-1.1-1.16-2.68-1.74-4.74-1.74c-2.32,0-4.16,0.68-5.5,2.03c-1.34,1.36-2.01,3.3-2.01,5.83v12.2h-4.29v-23.69h4.11v3.58
			c0.86-1.22,2.03-2.16,3.51-2.82c1.48-0.66,3.15-0.98,5.03-0.98C4735.56,1378.78,4737.96,1379.65,4739.73,1381.4z"/>
		<path class="st0" d="M4766.5,1381.2c1.74,1.61,2.61,4.01,2.61,7.2v14.3h-4.07v-3.13c-0.72,1.1-1.74,1.94-3.06,2.53
			c-1.33,0.58-2.9,0.87-4.72,0.87c-2.65,0-4.78-0.64-6.37-1.92c-1.59-1.28-2.39-2.96-2.39-5.05c0-2.09,0.76-3.76,2.28-5.03
			c1.52-1.27,3.93-1.9,7.24-1.9h6.79v-0.85c0-1.85-0.54-3.26-1.61-4.25c-1.07-0.98-2.65-1.47-4.74-1.47c-1.4,0-2.77,0.23-4.11,0.69
			c-1.34,0.46-2.47,1.08-3.4,1.85l-1.79-3.22c1.22-0.98,2.68-1.74,4.38-2.26c1.7-0.52,3.5-0.78,5.41-0.78
			C4762.25,1378.78,4764.76,1379.59,4766.5,1381.2z M4762.23,1398.56c1.19-0.73,2.06-1.77,2.59-3.11v-3.31h-6.62
			c-3.64,0-5.45,1.22-5.45,3.67c0,1.19,0.46,2.13,1.39,2.82c0.92,0.69,2.2,1.03,3.84,1.03
			C4759.63,1399.66,4761.04,1399.29,4762.23,1398.56z"/>
		<path class="st0" d="M4790.4,1401.31c-0.63,0.54-1.4,0.95-2.32,1.23c-0.92,0.28-1.88,0.42-2.86,0.42c-2.38,0-4.23-0.64-5.54-1.92
			c-1.31-1.28-1.97-3.11-1.97-5.5v-13.01h-4.02v-3.53h4.02v-5.18h4.29v5.18h6.79v3.53h-6.79v12.83c0,1.28,0.32,2.27,0.96,2.95
			c0.64,0.69,1.56,1.03,2.75,1.03c1.31,0,2.43-0.37,3.35-1.12L4790.4,1401.31z"/>
		<path class="st0" d="M4795.65,1373.64c-0.55-0.54-0.83-1.19-0.83-1.97c0-0.77,0.27-1.44,0.83-1.99c0.55-0.55,1.24-0.83,2.08-0.83
			s1.53,0.26,2.08,0.78c0.55,0.52,0.83,1.17,0.83,1.94c0,0.8-0.28,1.48-0.83,2.03c-0.55,0.55-1.24,0.83-2.08,0.83
			S4796.2,1374.18,4795.65,1373.64z M4795.58,1379.01h4.29v23.69h-4.29V1379.01z"/>
		<path class="st0" d="M4811.85,1401.4c-1.88-1.04-3.35-2.48-4.4-4.31s-1.59-3.91-1.59-6.24c0-2.32,0.53-4.4,1.59-6.24
			s2.53-3.26,4.4-4.29c1.88-1.03,3.99-1.54,6.35-1.54c2.35,0,4.46,0.51,6.32,1.54c1.86,1.03,3.32,2.46,4.38,4.29
			c1.06,1.83,1.59,3.91,1.59,6.24c0,2.32-0.53,4.4-1.59,6.24c-1.06,1.83-2.52,3.27-4.38,4.31c-1.86,1.04-3.97,1.56-6.32,1.56
			C4815.84,1402.97,4813.73,1402.44,4811.85,1401.4z M4822.29,1398.16c1.21-0.7,2.15-1.68,2.84-2.95c0.68-1.27,1.03-2.72,1.03-4.36
			c0-1.64-0.34-3.09-1.03-4.36c-0.69-1.27-1.63-2.24-2.84-2.93c-1.21-0.69-2.57-1.03-4.09-1.03c-1.52,0-2.88,0.34-4.09,1.03
			c-1.21,0.69-2.16,1.66-2.86,2.93c-0.7,1.27-1.05,2.72-1.05,4.36c0,1.64,0.35,3.09,1.05,4.36c0.7,1.27,1.65,2.25,2.86,2.95
			c1.21,0.7,2.57,1.05,4.09,1.05C4819.72,1399.21,4821.08,1398.86,4822.29,1398.16z"/>
		<path class="st0" d="M4856.26,1381.4c1.77,1.74,2.66,4.3,2.66,7.67v13.63h-4.29v-13.14c0-2.29-0.55-4.02-1.65-5.19
			c-1.1-1.16-2.68-1.74-4.74-1.74c-2.32,0-4.16,0.68-5.5,2.03c-1.34,1.36-2.01,3.3-2.01,5.83v12.2h-4.29v-23.69h4.11v3.58
			c0.86-1.22,2.03-2.16,3.51-2.82c1.48-0.66,3.15-0.98,5.03-0.98C4852.09,1378.78,4854.48,1379.65,4856.26,1381.4z"/>
		<path class="st0" d="M4868.08,1402.18c-1.79-0.52-3.19-1.18-4.2-1.99l1.79-3.4c1.04,0.75,2.31,1.34,3.8,1.79
			c1.49,0.45,3,0.67,4.52,0.67c3.75,0,5.63-1.07,5.63-3.22c0-0.72-0.25-1.28-0.76-1.7c-0.51-0.42-1.14-0.72-1.9-0.92
			c-0.76-0.19-1.84-0.41-3.24-0.65c-1.91-0.3-3.46-0.64-4.67-1.03c-1.21-0.39-2.24-1.04-3.11-1.97c-0.86-0.92-1.3-2.22-1.3-3.89
			c0-2.15,0.89-3.87,2.68-5.16c1.79-1.3,4.19-1.94,7.2-1.94c1.58,0,3.16,0.19,4.74,0.58c1.58,0.39,2.88,0.91,3.89,1.56l-1.83,3.4
			c-1.94-1.25-4.22-1.88-6.84-1.88c-1.82,0-3.2,0.3-4.16,0.89c-0.95,0.6-1.43,1.39-1.43,2.37c0,0.78,0.27,1.39,0.8,1.83
			c0.54,0.45,1.2,0.78,1.99,0.98c0.79,0.21,1.9,0.45,3.33,0.72c1.91,0.33,3.45,0.68,4.63,1.05c1.18,0.37,2.18,1.01,3.02,1.9
			s1.25,2.15,1.25,3.75c0,2.15-0.92,3.85-2.75,5.12c-1.83,1.27-4.33,1.9-7.49,1.9C4871.73,1402.97,4869.87,1402.7,4868.08,1402.18z"
			/>
	</g>
</g>
<path class="st0" d="M4122.03,1142.75h90.06c22.35,0,39.26,5.73,50.71,17.18c8.87,8.87,13.3,19.86,13.3,32.98v0.55
	c0,5.54-0.69,10.44-2.08,14.69c-1.39,4.25-3.23,8.08-5.54,11.5c-2.31,3.42-4.99,6.42-8.04,9.01c-3.05,2.59-6.33,4.81-9.84,6.65
	c11.27,4.25,20.13,10.02,26.6,17.32c6.46,7.3,9.7,17.42,9.7,30.34v0.55c0,8.87-1.71,16.63-5.13,23.28
	c-3.42,6.65-8.31,12.19-14.69,16.63c-6.37,4.43-14.04,7.76-23,9.98c-8.96,2.22-18.89,3.33-29.79,3.33h-92.28V1142.75z
	 M4233.71,1200.11c0-6.46-2.4-11.4-7.21-14.83c-4.81-3.42-11.73-5.13-20.78-5.13h-42.12v41.01h39.35c9.42,0,16.9-1.62,22.45-4.85
	c5.54-3.23,8.31-8.45,8.31-15.66V1200.11z M4244.52,1277.7c0-6.46-2.49-11.59-7.48-15.38c-4.99-3.78-13.02-5.68-24.11-5.68h-49.33
	v42.68h50.71c9.42,0,16.81-1.71,22.17-5.13c5.36-3.42,8.04-8.73,8.04-15.93V1277.7z"/>
<path class="st0" d="M4364.51,1182.1h-59.03v-39.35h160.73v39.35h-59.03v154.63h-42.68V1182.1z"/>
<path class="st0" d="M4498.91,1142.75h75.65c15.15,0,29.05,2.45,41.71,7.34c12.65,4.9,23.56,11.69,32.7,20.37
	c9.14,8.69,16.21,18.89,21.2,30.62c4.99,11.73,7.48,24.43,7.48,38.1v0.55c0,13.67-2.49,26.42-7.48,38.24
	c-4.99,11.83-12.05,22.08-21.2,30.76c-9.15,8.69-20.05,15.52-32.7,20.51c-12.66,4.99-26.56,7.48-41.71,7.48h-75.65V1142.75z
	 M4541.59,1181.26v116.94h32.98c8.68,0,16.63-1.39,23.83-4.16c7.21-2.77,13.35-6.74,18.43-11.92c5.08-5.17,9.05-11.27,11.92-18.29
	c2.86-7.02,4.3-14.87,4.3-23.56v-0.55c0-8.5-1.43-16.35-4.3-23.56c-2.87-7.21-6.84-13.39-11.92-18.57
	c-5.08-5.17-11.22-9.19-18.43-12.05c-7.21-2.86-15.15-4.3-23.83-4.3H4541.59z"/>
<path class="st0" d="M4715.62,1142.75h88.68c24.57,0,43.41,6.56,56.53,19.68c11.08,11.08,16.63,25.87,16.63,44.34v0.55
	c0,15.7-3.84,28.5-11.5,38.38c-7.67,9.89-17.69,17.14-30.07,21.75l47.39,69.28h-49.88l-41.57-62.07h-33.53v62.07h-42.68V1142.75z
	 M4801.52,1236.97c10.53,0,18.61-2.49,24.25-7.48c5.63-4.99,8.45-11.64,8.45-19.95v-0.55c0-9.24-2.96-16.16-8.87-20.78
	c-5.91-4.62-14.13-6.93-24.66-6.93h-42.4v55.7H4801.52z"/>
<polygon class="st0" points="3807.09,1310.89 3821.91,1325.7 3847.57,1325.7 3807.09,1285.22 3766.62,1325.7 3792.28,1325.7 "/>
<polygon class="st1" points="3809.47,1341.81 3835.14,1341.81 3847.57,1329.38 3821.91,1329.38 "/>
<polygon class="st1" points="3792.28,1329.38 3766.62,1329.38 3779.05,1341.81 3804.71,1341.81 "/>
<polygon class="st0" points="3898.81,1310.89 3913.62,1325.7 3939.28,1325.7 3898.81,1285.22 3858.33,1325.7 3883.99,1325.7 "/>
<polygon class="st1" points="3901.19,1341.81 3926.85,1341.81 3939.28,1329.38 3913.62,1329.38 "/>
<polygon class="st1" points="3883.99,1329.38 3858.33,1329.38 3870.76,1341.81 3896.43,1341.81 "/>
<g>
	<polygon class="st0" points="3852.95,1265.06 3867.76,1279.87 3893.42,1279.87 3852.95,1239.4 3812.47,1279.87 3838.14,1279.87 	
		"/>
	<polygon class="st1" points="3855.33,1295.99 3880.99,1295.99 3893.42,1283.55 3867.76,1283.55 	"/>
	<polygon class="st1" points="3838.14,1283.55 3812.47,1283.55 3824.91,1295.99 3850.57,1295.99 	"/>
</g>
<g>
	<polygon class="st0" points="3968.72,1410.88 3852.95,1477.72 3677.38,1376.35 3677.38,1173.63 3677.39,1173.62 3677.39,1129.83 
		3639.46,1151.73 3639.46,1398.25 3852.95,1521.5 3968.72,1454.67 4006.64,1432.77 4006.64,1388.98 	"/>
	<polygon class="st0" points="3968.72,1229.7 3950.06,1218.93 3950.06,1218.92 3852.95,1162.86 3796.37,1195.52 3755.84,1218.92 
		3755.84,1262.71 3796.37,1239.31 3796.37,1239.31 3852.95,1206.65 3909.53,1239.31 3912.14,1240.82 3912.14,1240.82 
		3950.06,1262.71 3968.72,1273.49 3968.72,1341.83 3852.95,1408.66 3755.84,1352.6 3737.18,1341.83 3737.18,1307.65 
		3737.18,1273.48 3737.18,1249.63 3737.18,1229.69 3737.18,1208.15 3737.18,1164.36 3737.18,1139.1 3737.18,1095.31 
		3699.26,1117.21 3699.26,1160.99 3699.26,1186.26 3699.26,1249.63 3699.26,1251.59 3699.26,1307.65 3699.26,1363.72 
		3852.95,1452.45 3968.72,1385.61 4006.64,1363.72 4006.64,1281.91 4006.64,1273.5 4006.64,1251.59 	"/>
	<polygon class="st0" points="4028.46,1129.8 3852.95,1028.47 3755.84,1084.54 3755.84,1128.33 3852.95,1072.26 4028.46,1173.59 
		4028.52,1173.63 4028.52,1198.89 4028.52,1231.27 4028.52,1376.35 4028.46,1376.39 4028.46,1420.17 4066.44,1398.25 
		4066.44,1151.73 	"/>
	<polygon class="st1" points="3852.95,1097.53 3755.84,1153.59 3755.84,1197.38 3852.95,1141.31 3949.55,1197.09 3968.72,1208.15 
		3968.72,1208.15 4006.64,1230.05 4006.64,1186.26 4006.64,1186.26 	"/>
</g>
</svg>
