<?xml version="1.0" encoding="utf-8"?>
<!-- Generator: Adobe Illustrator 19.0.0, SVG Export Plug-In . SVG Version: 6.00 Build 0)  -->
<svg version="1.1" id="Layer_1" xmlns="http://www.w3.org/2000/svg" xmlns:xlink="http://www.w3.org/1999/xlink" x="0px" y="0px"
	 viewBox="0 0 341.3 512" style="enable-background:new 0 0 341.3 512;" xml:space="preserve">
<style type="text/css">
	.st0{clip-path:url(#SVGID_2_);fill:#FFFFFF;}
</style>
<g>
	<defs>
		<rect id="SVGID_1_" width="341.3" height="512"/>
	</defs>
	<clipPath id="SVGID_2_">
		<use xlink:href="#SVGID_1_"  style="overflow:visible;"/>
	</clipPath>
	<path class="st0" d="M170.7,0C76.6,0,0,76.6,0,170.7c0,28.3,7.1,56.3,20.5,81.1l140.8,254.7c1.9,3.4,5.4,5.5,9.3,5.5
		c3.9,0,7.5-2.1,9.3-5.5l140.9-254.8c13.4-24.8,20.4-52.8,20.4-81C341.3,76.6,264.8,0,170.7,0 M170.7,256
		c-47.1,0-85.3-38.3-85.3-85.3s38.3-85.3,85.3-85.3s85.3,38.3,85.3,85.3S217.7,256,170.7,256"/>
</g>
</svg>
