<?xml version="1.0" encoding="utf-8"?>
<!-- Generator: Adobe Illustrator 19.0.0, SVG Export Plug-In . SVG Version: 6.00 Build 0)  -->
<svg version="1.1" id="Layer_1" xmlns="http://www.w3.org/2000/svg" xmlns:xlink="http://www.w3.org/1999/xlink" x="0px" y="0px"
	 viewBox="0 0 25 25" style="enable-background:new 0 0 25 25;" xml:space="preserve">
<style type="text/css">
	.st0{clip-path:url(#XMLID_10_);fill:#fff;}
</style>
<g>
	<defs>
		<rect id="XMLID_1_" width="25" height="25"/>
	</defs>
	<clipPath id="XMLID_10_">
		<use xlink:href="#XMLID_1_"  style="overflow:visible;"/>
	</clipPath>
	<path id="XMLID_2_" class="st0" d="M5,10.8c1.9,3.9,5.3,7.1,9.2,9.2l3.1-3.1c0.4-0.4,1-0.6,1.4-0.3c1.5,0.6,3.2,0.8,5,0.8
		c0.8,0,1.4,0.6,1.4,1.4v4.7c0,0.8-0.6,1.4-1.4,1.4C10.6,25,0,14.4,0,1.4C0,0.6,0.6,0,1.4,0h4.9c0.8,0,1.4,0.6,1.4,1.4
		c0,1.7,0.3,3.3,0.8,5c0.1,0.4,0,1-0.3,1.4L5,10.8z"/>
</g>
<g id="XMLID_3_">
</g>
<g id="XMLID_4_">
</g>
<g id="XMLID_5_">
</g>
<g id="XMLID_6_">
</g>
<g id="XMLID_7_">
</g>
<g id="XMLID_8_">
</g>
</svg>
