<svg id="Group_2063" data-name="Group 2063" xmlns="http://www.w3.org/2000/svg" width="116.266" height="58.251" viewBox="0 0 116.266 58.251">
  <path id="Path_1436" data-name="Path 1436" d="M315.29,616.917c-4.573,0-9.149-.009-13.72.013-.494,0-.594-.13-.587-.6.028-2.125.024-4.25,0-6.374,0-.424.067-.576.546-.572q11.26.026,22.521.022a4.478,4.478,0,0,0,1-.174.646.646,0,0,0,.476-.376,2.948,2.948,0,0,0,.007-2.457,1.068,1.068,0,0,0-1.063-.489c-5.078,0-10.151.022-15.227-.009a12.535,12.535,0,0,1-4.219-.676,5.5,5.5,0,0,1-3.843-4.038,6.614,6.614,0,0,1-.181-1.4c-.022-1.892-.048-3.784,0-5.671a9.008,9.008,0,0,1,.668-3.571,4.346,4.346,0,0,1,2.523-2.331,14.89,14.89,0,0,1,4.926-.831c7.922-.239,15.845-.022,23.767-.113.537-.009.652.141.644.657-.028,2.1-.024,4.2,0,6.307,0,.433-.078.581-.55.576-6.407-.013-12.813,0-19.218-.017a9.53,9.53,0,0,0-1.3.141.634.634,0,0,0-.5.387,2.652,2.652,0,0,0-.135,2.164,1.169,1.169,0,0,0,1.263.8c5.017,0,10.036-.031,15.051.013a11.871,11.871,0,0,1,4.625.822,5.651,5.651,0,0,1,3.414,4.245,10.353,10.353,0,0,1,.241,2.307c-.013,1.559.041,3.125-.015,4.684a5.854,5.854,0,0,1-5.548,6.328,30.821,30.821,0,0,1-5.787.224c-3.262.022-6.524.009-9.784.009" transform="translate(-220.169 -580.602)" fill="#030303"/>
  <path id="Path_1432" data-name="Path 1432" d="M301.369,587.279c5.263,0,10.53.013,15.8-.013.55,0,.644.165.637.663-.028,2.142-.022,4.284,0,6.426,0,.428-.076.576-.55.572-3.182-.022-6.365,0-9.549-.022-.418,0-.581.057-.578.542.02,6.985.009,13.966.028,20.951,0,.437-.111.533-.537.529q-5.209-.026-10.419,0c-.45,0-.524-.133-.522-.548.013-6.961,0-13.929.024-20.892,0-.48-.111-.589-.591-.589-3.221.026-6.444,0-9.664.026-.437,0-.544-.109-.539-.542.024-2.2.028-4.4,0-6.6-.007-.463.148-.515.552-.515q7.956.02,15.916.009" transform="translate(-239.056 -580.602)" fill="#030303"/>
  <path id="Path_1423" data-name="Path 1423" d="M270.176,595.105c.944,0,1.89.009,2.834-.009.3,0,.391.074.394.385a9.872,9.872,0,0,0,3.5,7.552,9.672,9.672,0,0,0,5.535,2.494c.109.013.211.093.317.1.263.022.724-.044.752.044a3.307,3.307,0,0,1,.078,1.022c0,1.6-.013,3.2.011,4.8.007.463-.1.663-.607.629a17.816,17.816,0,0,1-5.73-1.272,16.785,16.785,0,0,1-9.871-11.428,15.358,15.358,0,0,1-.483-3.808c0-.455.143-.533.555-.52.9.03,1.811.009,2.718.009" transform="translate(-260.197 -571.405)" fill="#030303"/>
  <path id="Path_1424" data-name="Path 1424" d="M268.2,604.185c-1.268.074-2.64-.22-4.021-.109-.359.03-.35-.159-.354-.411a14.579,14.579,0,0,1,1.133-5.639,16.64,16.64,0,0,1,3.1-4.965,16.4,16.4,0,0,1,7.224-4.765,12.768,12.768,0,0,1,4.188-.778,1.455,1.455,0,0,0,.385-.074c.824-.226,1.107-.022.974.818a31.411,31.411,0,0,0-.1,3.562c-.017.424,0,.848,0,1.272,0,.848,0,.852-.87.9a9.89,9.89,0,0,0-5.867,2.39,10.207,10.207,0,0,0-3.379,5.245,6.018,6.018,0,0,0-.3,2.172c.028.289-.052.411-.372.393-.537-.026-1.079-.009-1.735-.009" transform="translate(-263.819 -580.493)" fill="#030303"/>
  <path id="Path_1425" data-name="Path 1425" d="M285.295,601.293c-.926,0-1.851-.009-2.777,0-.407,0-.581-.135-.581-.576a9.421,9.421,0,0,0-2.216-6.011,10.068,10.068,0,0,0-4.2-3.177,7.761,7.761,0,0,0-2.714-.67,1.013,1.013,0,0,1-1.046-1.118c0-.9-.015-1.809,0-2.718.02-.787.074-1.574.115-2.355.035-.7.613-.429.87-.368.772.17,1.568.1,2.333.309a17.659,17.659,0,0,1,4.078,1.44,12.7,12.7,0,0,1,1.566,1.013c.4.307.942.559,1.4.879a10.69,10.69,0,0,1,1.964,1.788,16.98,16.98,0,0,1,3.91,7.37,19.422,19.422,0,0,1,.441,3.456c.009.224.159.548.063.648-.2.2-.546.078-.831.083-.789.013-1.581,0-2.373,0" transform="translate(-254.502 -584.202)" fill="#3d59a6"/>
  <path id="Path_1426" data-name="Path 1426" d="M274.5,605.924c0-1.027,0-2.055,0-3.086,0-.272.133-.4.4-.363a7.164,7.164,0,0,0,2.686-.389,9.9,9.9,0,0,0,2.729-1.272,10.278,10.278,0,0,0,2.56-2.364,10.116,10.116,0,0,0,1.82-3.68,7.923,7.923,0,0,0,.354-2.194c0-.25.157-.3.387-.3q2.779.013,5.556,0c.422,0,.552.189.542.6a16.531,16.531,0,0,1-1.581,6.411,15.3,15.3,0,0,1-4.549,5.8,13.055,13.055,0,0,1-2.264,1.561,18.256,18.256,0,0,1-2.629,1.261,6.325,6.325,0,0,1-1.264.381c-.663.061-1.274.437-1.972.467-.511.022-1.018.137-1.529.181-.207.022-.592.009-.6-.043-.091-.468-.844-.5-.672-1.185a7.421,7.421,0,0,0,.03-1.788" transform="translate(-251.34 -574.719)" fill="#3d59a6"/>
  <path id="Path_1427" data-name="Path 1427" d="M276.455,611c0,1.688-.015,3.327.011,4.961.009.437-.107.568-.542.537-.578-.039-1.159-.017-1.738,0-.274.009-.415-.035-.413-.365q.016-4.808,0-9.612c0-.294.117-.359.378-.346.309.017.618,0,.926,0,1.4,0,1.394,0,2.125,1.224.857,1.433,1.727,2.858,2.6,4.293.211-.107.111-.281.111-.407.009-1.548.017-3.09,0-4.634,0-.376.1-.5.485-.485.6.031,1.194.017,1.794,0,.276-.009.409.035.407.368q-.016,4.772,0,9.551c0,.348-.122.418-.435.409a6.133,6.133,0,0,1-2.116-.074c-.607-.261-.8-1.122-1.172-1.718-.692-1.1-1.368-2.225-2.046-3.338-.078-.126-.124-.285-.368-.368" transform="translate(-252.125 -558.406)" fill="#3d59a6"/>
  <path id="Path_1440" data-name="Path 1440" d="M319.093,611.7v-4.549c0-.939,0-.957.929-.935.57.013,1.331-.254,1.655.122.278.324.089,1.061.091,1.618,0,2.684-.011,5.367.011,8.051,0,.442-.117.555-.544.528-.711-.043-1.544.191-2.1-.1-.526-.285-.774-1.1-1.133-1.687-.755-1.225-1.5-2.457-2.255-3.684-.017-.026-.061-.041-.1-.063-.194.093-.1.272-.1.4-.009,1.544-.02,3.09,0,4.634.007.416-.12.529-.52.5a16.65,16.65,0,0,0-1.679,0c-.309.013-.392-.091-.392-.394q.016-4.779,0-9.553c0-.311.094-.394.392-.385.6.022,1.2.03,1.794,0a.708.708,0,0,1,.722.428c.942,1.585,1.9,3.16,2.855,4.737a.586.586,0,0,0,.37.333" transform="translate(-206.095 -558.44)" fill="#3d59a6"/>
  <path id="Path_1433" data-name="Path 1433" d="M290.2,609.287v.866c0,.143.054.285.217.248.541-.122,1.1.015,1.646-.157a1.011,1.011,0,0,0,.709-1.29c-.17-.568-.535-.768-1.411-.783-1.161-.013-1.161-.013-1.161,1.115m3.314,2.649a3.709,3.709,0,0,1,1.788,2.172c.3.663.6,1.329.92,1.979.176.354.054.411-.287.407-.787-.022-1.579-.017-2.37,0a.483.483,0,0,1-.515-.341c-.476-1.022-.981-2.031-1.477-3.045a1.61,1.61,0,0,0-.533-.67.844.844,0,0,0-.757-.156c-.191.083-.078.385-.078.589-.011,1.057-.024,2.12,0,3.177.009.368-.107.459-.457.446-.674-.026-1.35-.022-2.025,0-.313.009-.431-.065-.431-.411q.02-4.74,0-9.484c0-.376.128-.437.465-.437,1.657.017,3.314,0,4.973.009,1.629.009,2.627.735,2.864,2.172a2.893,2.893,0,0,1-1.8,3.453,2.864,2.864,0,0,0-.281.139" transform="translate(-236.238 -558.405)" fill="#3d59a6"/>
  <path id="Path_1438" data-name="Path 1438" d="M312.571,608.5a1.612,1.612,0,0,0-1.679,1.148,5.592,5.592,0,0,0,.007,3.61,1.7,1.7,0,0,0,1.814,1.137,1.651,1.651,0,0,0,1.6-1.263,6.136,6.136,0,0,0,.03-3.282,1.736,1.736,0,0,0-1.768-1.35m-4.708,2.884a5.631,5.631,0,0,1,.561-2.956,4.472,4.472,0,0,1,4.628-2.342,4.141,4.141,0,0,1,3.695,2.342,7.061,7.061,0,0,1,.555,3.873,5.135,5.135,0,0,1-1.372,3.264,3.763,3.763,0,0,1-2.164,1.1,5.443,5.443,0,0,1-3.895-.6,4.607,4.607,0,0,1-2-3.588,10.27,10.27,0,0,1-.007-1.1" transform="translate(-212.101 -558.519)" fill="#3d59a6"/>
  <path id="Path_1428" data-name="Path 1428" d="M275.379,611.387a3.772,3.772,0,0,0-.2-1.585,1.81,1.81,0,0,0-3.495.048,5.589,5.589,0,0,0-.013,3.112,1.819,1.819,0,0,0,3.571-.1,4.19,4.19,0,0,0,.135-1.479m2.79-.1a6.3,6.3,0,0,1-.291,2.484,3.935,3.935,0,0,1-3.216,2.862c-1.74.267-3.423.17-4.721-1.259a5.1,5.1,0,0,1-1.242-3.095,7.154,7.154,0,0,1,.437-3.51,4.163,4.163,0,0,1,3.358-2.623,5.879,5.879,0,0,1,2.333.085c2.155.494,3.149,2.194,3.34,4.23a8.079,8.079,0,0,1,0,.826" transform="translate(-258.138 -558.511)" fill="#3d59a6"/>
  <path id="Path_1434" data-name="Path 1434" d="M300.661,609.924a30.049,30.049,0,0,1-.124,3.636,3.634,3.634,0,0,1-3.564,3.064,9.166,9.166,0,0,1-2.464-.17,3.511,3.511,0,0,1-2.544-3.021c-.294-2.3-.057-4.617-.137-6.92-.011-.3.141-.348.391-.346.655.009,1.311.033,1.964,0,.411-.028.468.148.461.5-.013,1.905-.009,3.814,0,5.724a1.732,1.732,0,0,0,1,1.785,1.6,1.6,0,0,0,2.205-1.635c.013-1.927.022-3.856-.009-5.782-.009-.489.128-.631.6-.589a12.67,12.67,0,0,0,1.677,0c.418-.028.57.074.552.528-.037,1-.011,2.005-.011,3.229" transform="translate(-230.937 -558.408)" fill="#3d59a6"/>
  <path id="Path_1429" data-name="Path 1429" d="M282.69,616.758c-.476-.043-.952-.048-1.431-.126a3.316,3.316,0,0,1-2.736-3c-.074-.359.1-.494.437-.494a8.436,8.436,0,0,0,1.72-.113c.311-.065.474,0,.561.4a1.52,1.52,0,0,0,1.729,1.331,1.135,1.135,0,0,0,1.1-.848,1.035,1.035,0,0,0-.681-1.2c-.75-.285-1.529-.485-2.286-.744a4,4,0,0,1-1.2-.642,2.7,2.7,0,0,1-.944-2.99,2.841,2.841,0,0,1,2.457-2.133,5.867,5.867,0,0,1,3.332.233,2.928,2.928,0,0,1,1.766,2.433c.041.207-.065.328-.287.333a10.01,10.01,0,0,0-2.009.122c-.381.083-.4-.222-.454-.437a1.329,1.329,0,0,0-1.707-.839.773.773,0,0,0-.615.739.713.713,0,0,0,.589.7c.763.235,1.548.411,2.305.672a3.167,3.167,0,0,1,2.457,2.592,3.419,3.419,0,0,1-2.553,3.873,8.376,8.376,0,0,1-1.542.144" transform="translate(-246.567 -558.523)" fill="#3d59a6"/>
  <path id="Path_1430" data-name="Path 1430" d="M272.912,609.262c-.746.187-1.483.376-2.223.563-.128.035-.209.087-.318-.1-.707-1.216-1.074-1.429-2.014-1.242a1.96,1.96,0,0,0-1.422,1.9,7.679,7.679,0,0,0,.085,2.531,1.693,1.693,0,0,0,3.314.228c.283-.744.283-.744,1.05-.476.435.152.861.326,1.307.437.27.065.285.2.235.411a3.756,3.756,0,0,1-3.6,3.208,10.626,10.626,0,0,1-1.779-.078c-2.075-.285-3.192-2.253-3.412-3.991a7.882,7.882,0,0,1,.439-4.11,4.466,4.466,0,0,1,4.808-2.438,3.9,3.9,0,0,1,3.525,3.155" transform="translate(-263.547 -558.512)" fill="#3d59a6"/>
  <path id="Path_1435" data-name="Path 1435" d="M301.367,616.75c-2.921.13-4.345-1.861-4.647-4.09a6.835,6.835,0,0,1,.755-4.712,4.313,4.313,0,0,1,4.3-1.862,3.79,3.79,0,0,1,3.571,2.762c.13.38.024.476-.287.546-.574.137-1.155.246-1.72.415-.241.076-.333.03-.441-.174-.507-.966-.979-1.276-1.738-1.168a1.845,1.845,0,0,0-1.611,1.631,6.72,6.72,0,0,0,.094,3.021,1.54,1.54,0,0,0,1.446,1.268,1.637,1.637,0,0,0,1.74-1.055c.148-.292.039-.789.424-.861.283-.048.613.176.92.28.217.074.433.152.65.228.792.274.792.274.522,1.035a3.709,3.709,0,0,1-3.98,2.736" transform="translate(-225.298 -558.516)" fill="#3d59a6"/>
  <path id="Path_1437" data-name="Path 1437" d="M305.462,606.171c1.292,0,2.586.013,3.88-.009.354,0,.472.091.45.45a12.139,12.139,0,0,0,0,1.566c.028.4-.139.481-.5.468-.6-.028-1.2.026-1.794-.02-.546-.039-.728.115-.718.692.033,2.2,0,4.4.022,6.6,0,.433-.083.615-.561.581a11.346,11.346,0,0,0-1.677,0c-.437.03-.585-.083-.581-.555.028-2.238,0-4.48.026-6.718,0-.485-.135-.631-.613-.6-.613.046-1.233,0-1.851.02-.339.013-.489-.072-.468-.446a16.074,16.074,0,0,0,0-1.618c-.015-.346.128-.42.439-.42,1.313.013,2.627.009,3.938.009" transform="translate(-220.047 -558.405)" fill="#3d59a6"/>
  <path id="Path_1431" data-name="Path 1431" d="M287.064,606.173c1.274,0,2.549.013,3.821-.009.361-.009.468.1.448.455a12.062,12.062,0,0,0,0,1.561c.026.4-.146.481-.5.468-.615-.028-1.235.017-1.851-.02-.444-.022-.555.137-.55.561.017,2.242-.009,4.48.02,6.718.006.494-.137.628-.611.589a9.154,9.154,0,0,0-1.62,0c-.55.061-.618-.17-.613-.646.024-2.216,0-4.436.024-6.657,0-.472-.139-.6-.585-.57-.615.037-1.235-.011-1.851.02-.4.022-.494-.124-.472-.491a10.7,10.7,0,0,0,0-1.446c-.03-.416.067-.563.524-.55,1.272.035,2.546.013,3.821.013" transform="translate(-241.624 -558.408)" fill="#3d59a6"/>
  <path id="Path_1439" data-name="Path 1439" d="M308.53,611.338c0,1.542-.011,3.086.009,4.628,0,.385-.063.557-.5.531-.615-.037-1.235-.022-1.851,0-.326.009-.474-.046-.472-.428q.026-4.746,0-9.495c0-.346.124-.42.437-.407.655.017,1.311.022,1.966,0,.341-.013.413.115.411.428-.013,1.583-.007,3.164-.007,4.747" transform="translate(-214.599 -558.406)" fill="#3d59a6"/>
</svg>
